<?xml version="1.0" encoding="UTF-8"?>
<svg id="_Слой_1" data-name="Слой 1" xmlns="http://www.w3.org/2000/svg" viewBox="0 0 480 650">
  <rect width="480" height="650" style="fill: #e8e3dd; stroke-width: 0px;"/>
  <g>
    <path d="m104.79,134.24v162.76h227.39v-162.76H104.79Zm215.42,150.8H116.76v-138.83h203.46v138.83Z" style="fill: #22272b; stroke-width: 0px;"/>
    <path d="m153.02,97.71l-4.84,29.35h12.14l2.56-15.61,94.79,15.61h73.75l-178.39-29.35Zm186.34,30.66v12.14l24.27,4-22.52,136.99-1.63-.26-.07,12.09,11.56,1.91,26.43-160.61-38.03-6.25Z" style="fill: #22272b; stroke-width: 0px;"/>
    <polygon points="131.12 273.06 305.72 273.06 272.34 170.14 212.5 241.95 177.71 215.62 131.12 273.06" style="fill: #22272b; stroke-width: 0px;"/>
    <circle cx="157.45" cy="184.5" r="19.15" style="fill: #22272b; stroke-width: 0px;"/>
  </g>
  <g>
    <path d="m179.67,408.59h33.03v7.03h-33.03v-7.03Zm0,0h7.03v15.04h-7.03v-15.04Zm.21,0h.64c1.6,0,2.83-.74,3.71-2.22.88-1.48,1.32-3.57,1.32-6.27v-23.18h7.29v22.06c0,3.21-.43,5.93-1.29,8.17-.86,2.24-2.16,3.94-3.91,5.11-1.75,1.17-3.94,1.76-6.59,1.76h-1.17v-5.43Zm9.85-31.67h16.85v7.03h-16.85v-7.03Zm13.71,0h7.29v38.7h-7.29v-38.7Zm4.47,31.67h7.05v15.04h-7.05v-15.04Z" style="fill: #22272b; stroke-width: 0px;"/>
    <path d="m233.91,376.92h4.63l14.8,38.7h-7.85l-9.26-26.43-9.26,26.43h-7.85l14.8-38.7Zm-7.69,25.47h20.36v7.03h-20.36v-7.03Z" style="fill: #22272b; stroke-width: 0px;"/>
    <path d="m258.13,376.92h7.29v38.7h-7.29v-38.7Zm3.38,15.99h22.54v7.03h-22.54v-7.03Zm17.8-15.99h7.29v38.7h-7.29v-38.7Z" style="fill: #22272b; stroke-width: 0px;"/>
    <path d="m302.14,415.61h-7.56v-38.7h7.56v38.7Z" style="fill: #22272b; stroke-width: 0px;"/>
  </g>
  <g>
    <path d="m20.81,455.2h7.29v38.7h-7.29v-38.7Zm3.38,0h22.54v7.03h-22.54v-7.03Zm17.8,0h7.29v38.7h-7.29v-38.7Z" style="fill: #22272b; stroke-width: 0px;"/>
    <path d="m63.73,492.53c-2.14-1.18-3.79-2.85-4.96-5-1.17-2.15-1.76-4.65-1.76-7.49v-10.96c0-2.84.59-5.34,1.76-7.49,1.17-2.16,2.83-3.82,4.96-5,2.14-1.18,4.61-1.77,7.41-1.77s5.27.59,7.41,1.77c2.14,1.18,3.79,2.85,4.96,5,1.17,2.15,1.76,4.65,1.76,7.49v10.96c0,2.84-.59,5.34-1.76,7.49-1.17,2.16-2.83,3.82-4.96,5-2.14,1.18-4.61,1.77-7.41,1.77s-5.27-.59-7.41-1.77Zm10.87-6.36c.99-.56,1.76-1.35,2.3-2.38.54-1.03.81-2.22.81-3.57v-11.34c0-1.35-.27-2.54-.81-3.57-.54-1.03-1.31-1.82-2.3-2.38-.99-.56-2.15-.84-3.46-.84s-2.47.28-3.46.84c-.99.56-1.76,1.35-2.3,2.38-.54,1.03-.81,2.22-.81,3.57v11.34c0,1.35.27,2.54.81,3.57.54,1.03,1.31,1.82,2.3,2.38.99.56,2.15.84,3.46.84s2.47-.28,3.46-.84Z" style="fill: #22272b; stroke-width: 0px;"/>
    <path d="m113.27,492.61c-2.09-1.13-3.69-2.77-4.79-4.92-1.1-2.15-1.65-4.76-1.65-7.81v-10.62c0-3.05.55-5.65,1.65-7.81,1.1-2.15,2.7-3.8,4.79-4.94,2.09-1.14,4.61-1.7,7.56-1.7,2.43,0,4.6.52,6.52,1.57s3.5,2.57,4.75,4.56c1.25,2,2.12,4.4,2.59,7.23h-7.56c-.28-1.28-.72-2.37-1.32-3.27-.59-.9-1.31-1.6-2.16-2.08-.84-.48-1.79-.72-2.83-.72-1.37,0-2.53.28-3.49.84-.96.56-1.69,1.38-2.2,2.45-.51,1.07-.76,2.36-.76,3.87v10.62c0,1.51.25,2.79.76,3.86s1.24,1.88,2.2,2.44c.96.56,2.12.84,3.49.84,1.06,0,2.02-.23,2.87-.71.85-.47,1.57-1.16,2.16-2.06s1.01-2.01,1.28-3.3h7.56c-.5,2.82-1.37,5.23-2.62,7.23-1.25,2-2.83,3.52-4.74,4.56-1.91,1.05-4.08,1.57-6.51,1.57-2.95,0-5.46-.56-7.56-1.69Z" style="fill: #22272b; stroke-width: 0px;"/>
    <path d="m140.81,455.2h7.29v38.7h-7.29v-38.7Zm2.63,0h23.29v7.03h-23.29v-7.03Zm0,15.97h20.36v7.03h-20.36v-7.03Zm0,15.7h23.29v7.03h-23.29v-7.03Z" style="fill: #22272b; stroke-width: 0px;"/>
    <path d="m173.39,455.2h7.29v38.7h-7.29v-38.7Zm3.33,16.66h12.38c.87,0,1.64-.2,2.3-.6.67-.4,1.18-.96,1.56-1.69s.56-1.56.56-2.5-.18-1.81-.55-2.54c-.36-.74-.88-1.3-1.54-1.7-.67-.4-1.44-.6-2.33-.6h-12.38v-7.03h12.19c2.41,0,4.54.49,6.37,1.48,1.84.98,3.26,2.37,4.27,4.16s1.52,3.87,1.52,6.23-.51,4.43-1.52,6.21c-1.01,1.78-2.43,3.16-4.27,4.14-1.84.98-3.96,1.46-6.37,1.46h-12.19v-7.03Z" style="fill: #22272b; stroke-width: 0px;"/>
    <path d="m205.19,455.2h28.37v7.03h-28.37v-7.03Zm10.54,3.17h7.29v35.53h-7.29v-35.53Z" style="fill: #22272b; stroke-width: 0px;"/>
    <path d="m260.49,493.87v-30.95l.64.69-14.61,30.26h-8.7v-38.67h6.97v31.4l-.64-.69,14.66-30.71h8.65v38.67h-6.97Z" style="fill: #22272b; stroke-width: 0px;"/>
    <path d="m282.64,488c-2.94-1.18-5.19-2.92-6.73-5.22-1.54-2.3-2.32-5.09-2.32-8.37v-1.06c0-3.28.77-6.07,2.32-8.37,1.54-2.3,3.79-4.04,6.73-5.22,2.94-1.18,6.5-1.77,10.67-1.77s7.73.59,10.67,1.77c2.94,1.18,5.19,2.92,6.73,5.22,1.54,2.3,2.32,5.09,2.32,8.37v1.06c0,3.28-.77,6.07-2.32,8.37-1.54,2.3-3.79,4.04-6.73,5.22-2.94,1.18-6.5,1.77-10.67,1.77s-7.73-.59-10.67-1.77Zm20.27-6.93c2.24-1.53,3.37-3.74,3.37-6.65v-1.06c0-2.91-1.12-5.13-3.37-6.65-2.24-1.53-5.44-2.29-9.59-2.29s-7.35.76-9.59,2.29c-2.24,1.53-3.37,3.74-3.37,6.65v1.06c0,2.91,1.12,5.13,3.37,6.65,2.24,1.53,5.44,2.29,9.59,2.29s7.35-.76,9.59-2.29Zm-13.37-27.2h7.56v40.03h-7.56v-40.03Z" style="fill: #22272b; stroke-width: 0px;"/>
    <path d="m325.64,493.9h-7.56v-38.7h7.56v38.7Z" style="fill: #22272b; stroke-width: 0px;"/>
    <path d="m333.63,455.2h7.29v38.7h-7.29v-38.7Zm3.17,15.97h13.71v7.03h-13.71v-7.03Zm7.58,5.7l6.63-2.79,13.33,19.83h-9.13l-10.83-17.03Zm.03-4.2l9.9-17.46h8.41l-12.91,22.22-5.4-4.76Z" style="fill: #22272b; stroke-width: 0px;"/>
    <path d="m379.67,455.2h4.63l14.8,38.7h-7.85l-9.26-26.43-9.26,26.43h-7.85l14.8-38.7Zm-7.69,25.47h20.36v7.03h-20.36v-7.03Z" style="fill: #22272b; stroke-width: 0px;"/>
    <path d="m397.5,455.2h28.37v7.03h-28.37v-7.03Zm10.54,3.17h7.29v35.53h-7.29v-35.53Z" style="fill: #22272b; stroke-width: 0px;"/>
    <path d="m429.06,455.2h7.77l11.36,27.7-4.58,6.47-14.56-34.17Zm20.63,30.69c-.69,1.88-1.48,3.44-2.36,4.67-.88,1.23-1.92,2.16-3.11,2.8-1.2.63-2.6.94-4.22.94h-4.5v-6.95h2.9c.82,0,1.55-.17,2.2-.51.65-.34,1.22-.85,1.72-1.53.5-.68.93-1.55,1.3-2.6l9.87-27.52h7.5l-11.31,30.69Z" style="fill: #22272b; stroke-width: 0px;"/>
  </g>
</svg>