<?xml version="1.0" encoding="UTF-8"?>
<svg id="_Слой_1" data-name="Слой 1" xmlns="http://www.w3.org/2000/svg" viewBox="0 0 500 500">
  <path d="m246.89,139.08c-2.61,2.73-4.86,5.58-6.78,8.48-13.47,20.38-10.08,44.81,9.67,63.26,14.99,13.94,37.63,24.03,56.79,35.94,11,6.86,20.9,14.39,29.52,22.39,4.08,3.79,7.84,7.7,11.32,11.74.27.28.5.56.73.84.14.19.69.95,1.56,1.92.5.64,1.15,1.37,1.79,2.09.5-.67.92-1.23,1.24-1.62.18-.28.32-.45.37-.53.5-.67,1.05-1.31,1.65-1.95,3.02-3.68,6.37-7.25,9.9-10.76,8.3-8.14,17.92-15.81,28.64-22.81,18.65-12.18,40.93-22.61,55.36-36.78,19.07-18.71,21.45-43.16,7.24-63.35-2.02-2.9-4.4-5.69-7.1-8.39,1.19,15.64-15.72,29.61-34.1,40.6-18.33,10.96-39.46,20.94-50.83,34.99-1.91,2.35-3.5,4.78-4.84,7.26,2.75-14.11,7.6-28.06,14.56-41.62,12.82-24.96,32.72-48.91,37.29-74.91,6.05-34.38-17.82-70-60.48-92.69-6.11-3.25-12.61-6.24-19.46-8.92,19.21,21.63,10.81,48.38-2.9,71.51-13.71,23.13-32.49,45.97-32.9,70.56-.25,14.61,6.12,28.87,14.36,42.48,1.75,2.89,3.59,5.76,5.47,8.61-10.19-6.39-21.76-12.15-32.46-18.25-18.74-10.73-36.25-24.42-35.61-40.09Z" style="fill: #dfd7d5; stroke-width: 0px;"/>
  <path d="m446.67,304.25h-244.89c-1.9-4.26-4.61-8.47-8.09-12.41-4.53-5.13-9.98-9.54-16.11-13.05-.57-.33-1.31-.31-1.86.05-4.3,2.38-8.2,5.31-11.58,8.68h.02c-6.59,6.54-11.16,14.53-13.24,23.17-1.87,8.23-.96,16.35,3.31,22.72,1.27,1.9,2.84,3.63,4.65,5.13,4.39,3.78,10.1,6.01,16.12,6.37v.05h.91c.14,0,.27.02.41.02.21,0,.42-.02.63-.02h164.66c-28.9,41.71-77.18,69.06-131.66,69.06-88.34,0-160.22-71.88-160.22-160.22S121.6,93.59,209.94,93.59c10.88,0,21.55,1.11,31.82,3.2l26.19-44.81c-18.45-5.3-37.9-8.12-58.01-8.12C93.98,43.87,0,137.84,0,253.81s93.98,209.94,209.94,209.94c83.31,0,155.25-48.51,189.17-118.78h100.88l-53.33-40.72Z" style="fill: #dfd7d5; stroke-width: 0px;"/>
</svg>