<svg width="32" height="36" viewBox="0 0 32 36" fill="none" xmlns="http://www.w3.org/2000/svg">
<path d="M12.6676 17.7946C12.6676 15.7705 14.1595 14.1293 16.0004 14.1293C17.8412 14.1293 19.334 15.7705 19.334 17.7946C19.334 19.8186 17.8412 21.4599 16.0004 21.4599C14.1595 21.4599 12.6676 19.8186 12.6676 17.7946ZM10.8655 17.7946C10.8655 20.9128 13.1644 23.4404 16.0004 23.4404C18.8364 23.4404 21.1352 20.9128 21.1352 17.7946C21.1352 14.6764 18.8364 12.1488 16.0004 12.1488C13.1644 12.1488 10.8655 14.6764 10.8655 17.7946ZM20.1385 11.9249C20.1384 12.1859 20.2087 12.441 20.3405 12.658C20.4723 12.8751 20.6596 13.0442 20.8789 13.1442C21.0981 13.2442 21.3394 13.2704 21.5722 13.2196C21.805 13.1688 22.0188 13.0432 22.1867 12.8588C22.3546 12.6743 22.469 12.4393 22.5154 12.1834C22.5618 11.9274 22.5381 11.6621 22.4474 11.421C22.3566 11.1799 22.2029 10.9738 22.0056 10.8287C21.8083 10.6836 21.5763 10.6061 21.339 10.606H21.3385C21.0204 10.6062 20.7153 10.7452 20.4903 10.9925C20.2653 11.2398 20.1388 11.5751 20.1385 11.9249V11.9249ZM11.9604 26.7443C10.9854 26.6954 10.4555 26.5169 10.1033 26.366C9.63645 26.1662 9.30333 25.9282 8.95309 25.5436C8.60285 25.159 8.38605 24.7931 8.20509 24.2798C8.06781 23.8928 7.90541 23.3099 7.86109 22.238C7.81261 21.079 7.80293 20.7309 7.80293 17.7947C7.80293 14.8585 7.81341 14.5113 7.86109 13.3514C7.90549 12.2794 8.06909 11.6977 8.20509 11.3095C8.38685 10.7962 8.60333 10.4299 8.95309 10.0448C9.30285 9.65976 9.63565 9.42139 10.1033 9.22242C10.4553 9.07148 10.9854 8.89292 11.9604 8.84419C13.0144 8.79089 13.3311 8.78025 16.0004 8.78025C18.6696 8.78025 18.9866 8.79177 20.0416 8.84419C21.0165 8.89301 21.5456 9.07289 21.8986 9.22242C22.3655 9.42139 22.6986 9.66029 23.0488 10.0448C23.3991 10.4294 23.6151 10.7962 23.7968 11.3095C23.9341 11.6966 24.0965 12.2794 24.1408 13.3514C24.1893 14.5113 24.199 14.8585 24.199 17.7947C24.199 20.7309 24.1893 21.078 24.1408 22.238C24.0964 23.3099 23.9332 23.8926 23.7968 24.2798C23.6151 24.7931 23.3986 25.1594 23.0488 25.5436C22.6991 25.9278 22.3655 26.1662 21.8986 26.366C21.5466 26.517 21.0165 26.6955 20.0416 26.7443C18.9875 26.7976 18.6708 26.8082 16.0004 26.8082C13.3299 26.8082 13.0141 26.7976 11.9604 26.7443V26.7443ZM11.8776 6.86615C10.813 6.91945 10.0856 7.10505 9.45029 7.37684C8.79237 7.65752 8.23541 8.03408 7.67885 8.64505C7.12229 9.25602 6.78069 9.86937 6.52541 10.5928C6.27821 11.2917 6.10941 12.0911 6.06093 13.2616C6.01165 14.4339 6.00037 14.8087 6.00037 17.7946C6.00037 20.7805 6.01165 21.1553 6.06093 22.3276C6.10941 23.4982 6.27821 24.2975 6.52541 24.9964C6.78069 25.7193 7.12237 26.3334 7.67885 26.9441C8.23533 27.5548 8.79237 27.9308 9.45029 28.2123C10.0868 28.4841 10.813 28.6697 11.8776 28.723C12.9444 28.7763 13.2847 28.7896 16.0004 28.7896C18.716 28.7896 19.0569 28.7772 20.1232 28.723C21.1878 28.6697 21.9148 28.4841 22.5504 28.2123C23.208 27.9308 23.7653 27.5551 24.3219 26.9441C24.8784 26.3331 25.2193 25.7193 25.4753 24.9964C25.7225 24.2975 25.8921 23.4981 25.9398 22.3276C25.9883 21.1544 25.9996 20.7805 25.9996 17.7946C25.9996 14.8087 25.9883 14.4339 25.9398 13.2616C25.8913 12.091 25.7225 11.2912 25.4753 10.5928C25.2193 9.86981 24.8776 9.25699 24.3219 8.64505C23.7662 8.03311 23.208 7.65752 22.5512 7.37684C21.9148 7.10505 21.1877 6.91857 20.124 6.86615C19.0577 6.81284 18.7168 6.79956 16.0012 6.79956C13.2855 6.79956 12.9444 6.81196 11.8776 6.86615Z" fill="#121212" fill-opacity="0.6"/>
</svg>
