<svg width="32" height="36" viewBox="0 0 32 36" fill="none" xmlns="http://www.w3.org/2000/svg">
<path d="M23.8415 13.992C23.8415 14.1844 23.8415 14.3768 23.8415 14.5418C23.8415 20.2317 19.8915 26.8012 12.6915 26.8012C10.4665 26.8012 8.41647 26.0865 6.66647 24.8771C6.96647 24.9046 7.29147 24.9321 7.59147 24.9321C9.41647 24.9321 11.1165 24.2449 12.4665 23.0904C10.7415 23.0629 9.29147 21.7985 8.81647 20.0942C9.06647 20.1492 9.29147 20.1767 9.56647 20.1767C9.91647 20.1767 10.2665 20.1217 10.5915 20.0118C8.79147 19.627 7.44147 17.8952 7.44147 15.8062C7.44147 15.7787 7.44147 15.7787 7.44147 15.7512C7.96647 16.0811 8.56647 16.2735 9.21647 16.301C8.16647 15.5313 7.46647 14.2119 7.46647 12.7001C7.46647 11.903 7.66647 11.1608 7.99147 10.5286C9.91647 13.1399 12.8165 14.8441 16.0665 15.0365C15.9915 14.7342 15.9665 14.3768 15.9665 14.047C15.9665 11.6556 17.7165 9.73145 19.8915 9.73145C21.0165 9.73145 22.0415 10.2537 22.7415 11.0783C23.6415 10.8859 24.4665 10.5286 25.2415 10.0338C24.9415 11.0508 24.3165 11.8755 23.5165 12.4252C24.3165 12.3153 25.0665 12.0954 25.7665 11.738C25.2665 12.6176 24.6165 13.3873 23.8415 13.992Z" fill="#121212" fill-opacity="0.6"/>
</svg>
