<?xml version="1.0" encoding="UTF-8"?><svg id="uuid-2d9e4c4d-cd5c-4964-b8b0-a351627af1e9" xmlns="http://www.w3.org/2000/svg" width="512" height="512" viewBox="0 0 512 512"><defs><style>.uuid-ee524d78-c9ae-4b48-a315-f923329ea73d{fill:#e9e5df;}.uuid-ee524d78-c9ae-4b48-a315-f923329ea73d,.uuid-743c4158-4022-4d8b-b85c-dbe4c32eec3c,.uuid-dd6ee174-ab6d-463f-a99b-5e3a96cac8d6,.uuid-893b56f1-dce9-4ab6-91fa-7ef74dee9075,.uuid-5365969d-ff5c-45a9-97cb-e2582a1fd7e3,.uuid-f8135748-a34d-4ece-b335-1a13c24d4819,.uuid-7f0fa37b-57d8-48eb-b04c-56d60118ea0e{stroke-width:0px;}.uuid-743c4158-4022-4d8b-b85c-dbe4c32eec3c{fill:#fcede8;}.uuid-dd6ee174-ab6d-463f-a99b-5e3a96cac8d6{fill:#8c634c;opacity:.7;}.uuid-893b56f1-dce9-4ab6-91fa-7ef74dee9075{fill:#e5c9be;}.uuid-5365969d-ff5c-45a9-97cb-e2582a1fd7e3{fill:#fff;}.uuid-f8135748-a34d-4ece-b335-1a13c24d4819{fill:#b4998a;}.uuid-7f0fa37b-57d8-48eb-b04c-56d60118ea0e{fill:#c08a61;}</style></defs><g id="uuid-ad4fe05c-5e33-4d48-a1ff-43471aa60e52"><g id="uuid-e744fa27-bceb-42fd-bd06-1f32fab474da"><path class="uuid-f8135748-a34d-4ece-b335-1a13c24d4819" d="m425.4,213.8c10.3-6.4,19.4-14.3,27-23.5,0-11.2-.9-22.3-2.5-33.3-.6-4.6-1.4-9.2-2.3-13.7-1.1-5.6-2.4-11.1-3.9-16.5,0-.3-.2-.6-.3-1-6.1-20.2-16.9-38.6-31.5-53.7-4.1-4.3-8.6-8.3-13.3-12-1-.8-2-1.6-3.1-2.4-2.8-2.2-5.5-4.3-8.3-6.3-12.9-9.5-26-17.6-39.5-24.1-.6-.3-1.3-.6-1.9-.9-2.6-1.2-5.2-2.4-7.9-3.5-3.3-1.4-6.7-2.7-10.1-3.9-22.2-7.9-46-11.5-72.4-10.2-.9,0-1.7,0-2.6.2-26.5,2-52.8,5.8-78.8,11.5-28.9,5.7-59.6,16.5-80.5,38.3h0c-.2.2-.4.4-.5.5-1.8,1.9-3.5,3.8-5.1,5.8-5.6,6.6-10.6,13.7-15,21.1-2.9,5-5.6,10.1-8,15.3-1.6,3.5-3,7.1-4.4,10.7-.6,1.7-1.2,3.5-1.7,5.2-1.8,5.5-3.3,11.1-4.6,16.7-.6,2.6-1.2,5.3-1.8,7.9-2.6,8.1-5.5,16.1-8.9,23.9-1.1,2.7-2.3,5.3-3.6,8h0c0,.1-.1.2-.2.4-1.4,3.2-2.1,6.7-1.9,10.2,1.7,11.9,19.4,16.9,19.5,29.1-.2,2.7-1,5.3-2.4,7.6-10.4,21.9-23.2,42.7-38.1,61.9-3.5,4.3-10.7,12.8-9.7,18.9.6,4.4,5.8,7.9,9,10.3,6.8,5,20.7,8.5,22.5,17.7.9,4.7.3,9.5-1.6,13.8-4.8,10-10,15.3-6.2,18.3,3.6,3.2,13.7,10.7,13.7,10.7,0,0-9.5,12-4.3,15.8,6.5,4.6,14.8,6.7,17,15.4.7,6.8,0,13.7-2.1,20.3-.6,6.4.2,13,2.5,19,2,6.1,6,11.3,11.4,14.8h0c4.8,2.7,10.5,3.5,15.9,2.2,19.6-4.6,38.9-10.1,57.9-16.7,2.8-1,5.7-2,8.4-2.9.3-.1.7-.2,1-.4,2.2-.8,4.3-1.5,6.4-2.2.1,0,.2,0,.4-.1.1,0,.2,0,.3-.1.6.3,1.2.6,1.8.9.3.1.5.3.8.4,0,0,.1,0,.2,0,.4.2.8.4,1.2.7.4.2.8.5,1.3.8.4.3.8.5,1.2.8.4.3.8.6,1.2.9.2.1.3.2.5.4h0c.2.2.5.4.7.5.3.3.7.6,1,.9.3.3.7.6,1,.9.3.3.7.6,1,.9.3.3.7.6,1,.9.3.3.6.6.9.9,0,0,.2.2.2.2.3.3.5.6.8.8.4.4.8.8,1.2,1.3,1.2,1.3,2.3,2.6,3.3,4,1.3,1.6,2.5,3.3,3.6,5,.4.6.8,1.1,1.1,1.7,0,0,0,.1.1.2.8,1.2,1.5,2.4,2.2,3.6.2.4.5.8.7,1.2.2.4.5.8.7,1.2.2.4.4.8.7,1.2.4.8.9,1.6,1.3,2.4.2.4.4.8.6,1.2.4.8.8,1.6,1.2,2.4.4.8.8,1.6,1.1,2.4.2.4.4.8.5,1.2.2.4.4.8.5,1.2.2.4.3.8.5,1.2.2.4.3.8.5,1.2.2.5.4,1,.6,1.5.2.5.4,1,.6,1.5,2,5.1,3.5,9.6,4.6,13,0,.3.2.5.2.8.3,1,.6,1.9.8,2.7,0,.2.1.4.2.5.2.7.3,1.2.4,1.5,0,0,0,.1,0,.2,0,0,0,.2,0,.2h0c0,0,214.2-.5,214.2-.5-4-8.3-8.6-16.4-13.7-24.2-4.1-8.2-7.5-16.8-10.2-25.6-5-17-8.5-34.4-10.4-52-.4-3.5-.7-7.1-.9-10.7-.1-3.1-.2-6.2-.1-9.4,0-.4,0-.8,0-1.2,0-2.3.2-4.5.3-6.8,0-.7,0-1.3.1-1.9.8-9.7,2.5-19.3,5.1-28.7,0-.2.1-.4.2-.7.8-3,1.7-5.9,2.8-8.8,1-2.9,2.1-5.9,3.4-8.8.3-.8.7-1.6,1-2.5,2.4-5.6,5.3-10.9,8.5-16,7.4-12,16.4-23,24.5-34.5,2.1-2.9,4.1-5.9,6-8.9,7.5-11.6,12.9-24.3,16.1-37.5,1.8-7.2,2.9-14.7,3.3-22.2-8.2,5.9-17.3,10.6-27.2,13.9.2-.9.3-1.9.5-2.8Zm-15.8,59.3c0,9.4-7.6,17.1-17.1,17.1s-3.3-.2-4.8-.7c6.5-8.9,13.3-17.7,19.3-27.1.9-1.4,1.7-2.7,2.6-4.1v14.8Z"/><path class="uuid-5365969d-ff5c-45a9-97cb-e2582a1fd7e3" d="m426.7,196.7c0,5.7-.5,11.5-1.3,17.1-.1.9-.3,1.9-.5,2.8-2.5,14.7-7.7,28.8-15.3,41.6-.8,1.4-1.7,2.8-2.6,4.1-5.9,9.4-12.7,18.1-19.3,27.1-3.5,4.7-6.8,9.5-10,14.4-3.7,5.7-7,11.6-9.7,17.9-10.9,24.9-15,52.3-11.9,79.4,1.9,17.6,5.4,35,10.4,52,2.7,8.8,6.1,17.4,10.2,25.6.6,1,1.3,1.9,1.9,2.9,1.2,2,2.4,3.9,3.6,5.9s2.3,4,3.4,6c.2.3.3.6.4.8,1.5,2.8,2.9,5.6,4.3,8.4l-164.1.4h-24.5s0,0,0-.1c0,0,0-.1,0-.2,0-.3-.2-.9-.4-1.5,0-.2,0-.3-.2-.5-.2-.7-.5-1.6-.8-2.7,0-.3-.2-.5-.2-.8-1-3.4-2.5-7.9-4.6-13-.2-.5-.4-1-.6-1.5-.2-.5-.4-1-.6-1.5-.2-.4-.3-.8-.5-1.2-.2-.4-.3-.8-.5-1.2-.2-.4-.3-.8-.5-1.2-.2-.4-.3-.8-.5-1.2-.4-.8-.7-1.6-1.1-2.4-.4-.8-.8-1.6-1.2-2.4-.2-.4-.4-.8-.6-1.2-.4-.8-.8-1.6-1.3-2.4-.2-.4-.4-.8-.7-1.2-.2-.4-.4-.8-.7-1.2-.2-.4-.5-.8-.7-1.2-.7-1.2-1.4-2.4-2.2-3.6,0,0,0-.1-.1-.2-.4-.6-.8-1.2-1.1-1.7-1.1-1.7-2.3-3.4-3.6-5-1.1-1.4-2.2-2.7-3.3-4-.4-.4-.8-.9-1.2-1.3-.3-.3-.5-.6-.8-.8,0,0-.2-.2-.2-.2-.3-.3-.6-.6-.9-.9-.3-.3-.7-.6-1-.9-.3-.3-.7-.6-1-.9-.3-.3-.7-.6-1-.9-.3-.3-.7-.6-1-.9-.2-.2-.4-.4-.7-.5h0c-.2-.1-.3-.3-.5-.4-.4-.3-.8-.6-1.2-.9-.4-.3-.8-.6-1.2-.8-.4-.3-.8-.5-1.3-.8-.4-.2-.8-.5-1.2-.7,0,0-.1,0-.2,0-.3-.1-.5-.3-.8-.4-.6-.3-1.2-.6-1.8-.9-.1,0-.2,0-.3.1-.1,0-.2,0-.3.1-2.1.7-4.2,1.4-6.4,2.2-.3.1-.7.2-1,.4-2.8,1-5.6,1.9-8.4,2.9-.2,0-.3-.3-.4-.3-2.6-2.1-5.4-3.9-8.4-5.3,0,0-.1,0-.2-.1-1.9.7-3.8,1.3-5.8,2-13,4.5-27.3,9.2-40.5,13.1-6.5,1.9-12.7,3.7-18.4,5.1h0c-5.4-3.4-9.5-8.7-11.4-14.8-2.3-6.1-3.1-12.6-2.5-19,2-6.6,2.7-13.5,2.1-20.3-2.2-8.6-10.5-10.7-17-15.4-5.2-3.8,4.3-15.8,4.3-15.8,0,0-10.1-7.4-13.7-10.7-3.8-3.1,1.5-8.4,6.2-18.3,1.9-4.3,2.5-9.2,1.6-13.8-1.8-9.1-15.7-12.6-22.5-17.7-3.2-2.4-8.4-6-9-10.3-.9-6.1,6.2-14.6,9.7-18.9,14.9-19.2,27.7-39.9,38.1-61.9,1.4-2.3,2.2-4.9,2.4-7.6-.2-12.2-17.8-17.2-19.5-29.1-.2-3.5.5-7,1.9-10.2,0-.1.1-.2.2-.4h0c1.3-2.7,2.4-5.3,3.6-8,3.4-7.8,6.3-15.8,8.9-23.9.5-2.7,1.1-5.3,1.8-7.9,1.3-5.6,2.9-11.2,4.6-16.7.5-1.7,1.1-3.5,1.7-5.2,1.3-3.6,2.8-7.2,4.4-10.7,2.4-5.3,5-10.4,8-15.3,4.4-7.4,9.4-14.5,15-21.1,1.7-2,3.4-3.9,5.1-5.8.2-.2.3-.4.5-.5h0c20.9-21.7,51.5-32.5,80.5-38.3,26-5.7,52.3-9.5,78.8-11.5,3.8.3,7.6.6,11.3,1.1,17.1,2.5,33.8,7,49.6,13.5h0c1.6.7,3.2,1.3,4.7,2,2.9,1.3,5.9,2.7,8.8,4.1,2.8,1.4,5.6,2.9,8.4,4.4,11.3,6.2,22,13.5,32,21.7.7.6,1.5,1.2,2.2,1.8,1,.8,2.1,1.6,3.1,2.4,3.6,2.8,7.1,5.9,10.3,9,16.3,15.8,28.3,35.7,34.7,57.6,2.9,10.7,5.1,21.7,6.5,32.7.4,3.4.8,6.7,1.1,10.1.3,3.2.5,6.4.7,9.5.3,5.9.4,11.8.3,17.7Z"/><path class="uuid-743c4158-4022-4d8b-b85c-dbe4c32eec3c" d="m426.7,196.7c0,5.7-.5,11.5-1.3,17.1-.1.9-.3,1.9-.5,2.8-2.5,14.7-7.7,28.8-15.3,41.6-.8,1.4-1.7,2.8-2.6,4.1-5.9,9.4-12.7,18.1-19.3,27.1-3.5,4.7-6.8,9.5-10,14.4-3.7,5.7-7,11.6-9.7,17.9-10.9,24.9-15,52.3-11.9,79.4,1.9,17.6,5.4,35,10.4,52,2.7,8.8,6.1,17.4,10.2,25.6.6,1,1.3,1.9,1.9,2.9,1.2,2,2.4,3.9,3.6,5.9s2.3,4,3.4,6c.2.3.3.6.4.8,1.5,2.8,2.9,5.6,4.3,8.4l-164.1.4c-.2-.7-1-3.9-2.5-8.4-5-15.2-17.3-46.1-38.4-56.6-.4-.2-.8-.4-1.2-.6-5,1.7-10.2,3.6-15.7,5.5-.3,0-.6.2-.9.3,0,0-.2-.2-.3-.2-2.5-2.1-5.3-3.9-8.3-5.2,0,0,0,0,0,0-.2,0-.2-.2-.4-.2-2,.7-4,1.4-6,2.1-3.2,1.1-6.5,2.2-9.8,3.3-16.6,5.6-34.5,11.2-48.8,14.9h0c-2.2-1.4-4.3-3.1-6-5.1-.4-.5-.8-1-1.2-1.5-1.9-2.5-3.3-5.2-4.3-8.1-2.3-6.1-3.1-12.6-2.5-19,2-6.6,2.7-13.5,2.1-20.3-2.2-8.6-10.5-10.7-17-15.4-5.2-3.8,4.3-15.8,4.3-15.8,0,0-10.1-7.4-13.7-10.7-3.8-3.1,1.5-8.4,6.2-18.3,1.9-4.3,2.5-9.2,1.6-13.8-1.8-9.1-15.7-12.6-22.5-17.7-3.2-2.4-8.4-6-9-10.3-.9-6.1,6.2-14.6,9.7-18.9,14.9-19.2,27.7-39.9,38.1-61.9,1.4-2.3,2.2-4.9,2.4-7.6-.2-12.2-17.8-17.2-19.6-29.1-.2-3.5.5-7,1.9-10.2,2-4.2,3.9-8.5,5.6-12.9,2.6-6.4,4.9-12.8,7-19.4,2.1-10.1,4.8-20.1,8.1-29.9,5.3-14.5,12.7-28.1,21.9-40.3,0,0,0,0,0,0,3.3-4.4,6.8-8.6,10.5-12.6,9.6-10.2,21.4-18,34.1-24t0,0c14.9-7.1,31.2-11.7,46.9-14.8,21.6-4.7,43.5-8.2,65.5-10.4,17.1,2.5,33.8,7,49.6,13.5h0c1.6.7,3.2,1.3,4.7,2,2.9,1.3,5.9,2.7,8.8,4.1,2.8,1.4,5.6,2.9,8.4,4.4,11.3,6.2,22,13.5,32,21.7.7.6,1.5,1.2,2.2,1.8,1,.8,2.1,1.6,3.1,2.4,3.6,2.8,7.1,5.9,10.3,9,16.3,15.8,28.3,35.7,34.7,57.6,2.9,10.7,5.1,21.7,6.5,32.7.4,3.4.8,6.7,1.1,10.1.3,3.2.5,6.4.7,9.5.3,5.9.4,11.8.3,17.7Z"/><path class="uuid-dd6ee174-ab6d-463f-a99b-5e3a96cac8d6" d="m418.1,227.3v45.7c0,9.1-4.9,17.6-12.8,22.2-7.9,4.6-17.7,4.6-25.6,0-1.9-1.1-3.7-2.5-5.3-4.1-4.8-4.8-7.5-11.3-7.5-18.1v-70.1c0-9.7,6-18.5,15.1-22,3.1-1.3,6.5-1.9,9.8-1.8h.7c29.9.4,55.4-21.7,59.1-51.4,2.4-17.1-2.7-34.5-14-47.5-11.3-13.1-27.8-20.6-45.1-20.6-4.3,0-8.6.5-12.8,1.4-21,4.6-37.9,20.1-44.3,40.6-3.3,10.6-13.2,17.8-24.3,17.7-4.5,0-8.9-1.2-12.8-3.5-7.9-4.6-12.8-13.1-12.8-22.3,0-2.7.4-5.4,1.3-7.9,13.3-41.6,49.7-71.5,93.1-76.5,8.4-1,16.9-1,25.3,0,53.6,6.1,95,49.8,98.3,103.6,3.2,53.8-32.8,102.2-85.3,114.5Z"/><path class="uuid-dd6ee174-ab6d-463f-a99b-5e3a96cac8d6" d="m418.2,358.4c0,14.1-11.5,25.6-25.6,25.6s-25.6-11.5-25.6-25.6,11.5-25.6,25.6-25.6,25.6,11.5,25.6,25.6Z"/><path class="uuid-893b56f1-dce9-4ab6-91fa-7ef74dee9075" d="m452.4,190.3c-7.6,9.2-16.7,17.1-27,23.5-3.4,2.1-6.9,4-10.6,5.8-.2,0-.4.2-.7.3-6.8,3.2-14,5.7-21.6,7.5v45.6c0,5.9-2.1,11.6-5.7,16.1-2,2.4-4.4,4.5-7.1,6.1-1.9-1.2-3.7-2.5-5.3-4.1-4.8-4.8-7.5-11.3-7.5-18.1v-70.1c0-9.7,6-18.5,15.1-22,3.1-1.3,6.5-1.9,9.8-1.8h.7c12.2.2,23.6-3.4,33.2-9.7,9.6-6.3,17.3-15.4,21.8-26.2,2-4.8,3.4-10,4.1-15.4,2.4-17.1-2.7-34.5-14-47.5-10-11.5-24-18.7-39-20.3-2-.2-4-.3-6-.3-4.3,0-8.6.5-12.8,1.4-2.2-.5-4.5-.8-6.7-1-2-.2-4-.3-6.1-.3-2.9,0-5.8.2-8.6.6-22.5,3.3-41.6,19.2-48.5,41.4-.9,3-2.4,5.8-4.3,8.2-2,2.4-4.4,4.5-7.2,6-7.9-4.6-12.8-13.1-12.8-22.3,0-2.7.4-5.4,1.3-7.9,7.3-23,21.8-42.4,40.5-56.1.7-.5,1.4-1,2.1-1.5,2.8-1.9,5.6-3.7,8.6-5.4,2.6-1.5,5.3-2.9,8.1-4.1,10.5-4.9,21.9-8.1,33.9-9.5,12.4,1.5,24.1,4.9,34.9,10.1,35.6,17,60.5,52.4,62.9,93.7,1.7,28.9-8,56.2-25.4,77.2Z"/><path class="uuid-ee524d78-c9ae-4b48-a315-f923329ea73d" d="m392.6,358.4c0,9.2-4.9,17.6-12.8,22.2-7.9-4.6-12.8-13-12.8-22.2s4.9-17.6,12.8-22.2c7.9,4.6,12.8,13,12.8,22.2Z"/><path class="uuid-5365969d-ff5c-45a9-97cb-e2582a1fd7e3" d="m33.2,171.3c3.6-9.3,7.9-17.4,10.6-25.3.7-2,1.2-3.9,1.7-5.8l1.6-6.7c1.1-4.5,2.2-9.2,3.5-13.8,5.5-18.8,14.2-36.4,25.9-52.2,3.6-4.9,7.5-9.5,11.7-13.9l12.4,11.7c-3.7,3.9-7.2,8.1-10.4,12.4-10.4,14.1-18.3,29.9-23.2,46.6-1.2,4.3-2.3,8.6-3.3,13.1l-1.6,6.8c-.6,2.6-1.4,5.1-2.2,7.5-3.3,9.6-7.8,17.9-10.8,25.9l-16-6.1Z"/><path class="uuid-7f0fa37b-57d8-48eb-b04c-56d60118ea0e" d="m55.6,134.3c-4.6-1-9.1,1.8-10.2,6.3-3.4,10.5-7.5,20.7-12.2,30.7l16,6.1c5-10.6,9.2-21.6,12.8-32.7.5-2.2.2-4.5-1-6.5-1.2-1.9-3.1-3.3-5.3-3.9Z"/><path class="uuid-7f0fa37b-57d8-48eb-b04c-56d60118ea0e" d="m100.5,65.1l-12.4-11.7c-4.2,4.4-8.1,9.1-11.7,14-1.8,2.4-3.5,4.9-5.2,7.4-1.3,1.9-1.8,4.3-1.3,6.5.5,2.3,1.9,4.2,3.9,5.4,3.9,2.3,9,1.2,11.6-2.6,1.5-2.3,3-4.5,4.6-6.6,3.2-4.3,6.7-8.5,10.4-12.4Z"/><path class="uuid-7f0fa37b-57d8-48eb-b04c-56d60118ea0e" d="m54.9,106.6c-.8,2.2-.8,4.7.1,6.8l.9,1.4c.3.5.8.9,1.2,1.2.4.4.8.7,1.3,1,.5.3,1,.5,1.6.7,2.2.6,4.5.5,6.5-.4,1-.5,1.8-1.1,2.6-1.9,2.2-2.4,2.9-5.9,1.6-8.9-.5-1-1.1-1.9-1.9-2.7-.8-.8-1.7-1.5-2.7-1.9-2.1-.9-4.4-1-6.6-.1-2.1,1-3.8,2.8-4.7,4.9Z"/><path class="uuid-7f0fa37b-57d8-48eb-b04c-56d60118ea0e" d="m169,434.9c-1.5-4.3-6.1-6.6-10.4-5.4h0c-.2,0-.3,0-.4.1-7.9,2.9-15.8,5.6-23.7,8.2-2,.7-4,1.3-6,1.9-13.8,4.3-27.6,8.2-41.7,11.6-.7.2-1.3.3-2,.5-8,1.5-15.7-3.5-17.6-11.4-1.8-4.9-2.5-10.1-2-15.2.2-1.8.6-3.6,1-5.4,1.7-5.9,2-12.1.7-18.2-2.5-7.8-8.2-14.2-15.8-17.5l-1.8-1c.9-1.9,2-3.6,3.3-5.3,1.5-1.8,2.1-4.1,1.8-6.4-.3-2.3-1.5-4.4-3.4-5.8-2-1.5-6.9-5.1-10.4-8,.4-.7.9-1.6,1.3-2.3,1.3-2.3,2.9-5.1,4.4-8.2,2.7-6,3.5-12.6,2.3-19.1-2-10.4-12-15.5-19.3-19.2-2.5-1.2-4.8-2.5-7-4.1-1.8-1.2-3.5-2.6-5.1-4.1,0-1.3,1.4-4.4,7.9-12.4,15.3-19.7,28.4-40.9,39.1-63.4,2-3.5,3.1-7.5,3.3-11.5-.9-8.6-5.4-16.4-12.5-21.3-3.4-3.2-6.7-6.2-7.1-8.9,0-2,.5-4,1.3-5.8,0,0,0,0,0,0,0,0,0,0,0,0,1.1-2.9.7-6.2-1.3-8.6-1.1-1.3-2.5-2.3-4.1-2.7-1.3-.4-2.7-.5-4.1-.3-2.5.5-4.7,2-5.9,4.2,0,0,0,0,0,0-.2.3-.3.6-.4.9,0,.1,0,.2-.1.3,0,0,0,0,0,0,0,0,0,0,0,0,0,0,0,0,0,0h0s0,0,0,0c0,0,0,0,0,0-2,4.5-2.7,9.4-2.3,14.3,1.7,7.6,6.1,14.4,12.4,19.1,4.2,3.8,6.9,6.5,6.9,8.9-.3,1.3-.8,2.5-1.4,3.7-10.2,21.5-22.7,41.9-37.3,60.7-6.2,7.5-12.7,16.3-11.3,25.1,1.8,6.8,6.3,12.6,12.4,16,2.8,1.9,5.8,3.7,8.9,5.1,3.7,1.9,9.9,5,10.3,7.3.5,2.9.2,5.9-1,8.6-1.3,2.7-2.6,5.1-3.8,7.1-3.1,5.5-8.3,14.8-.5,21.2,1.9,1.7,5,4.2,7.9,6.4-2.1,3.7-3.1,8-2.8,12.3.5,3.4,2.3,6.4,5.1,8.4,1.9,1.3,3.9,2.5,5.9,3.6,5,2.9,7,4.2,7.7,6.9.5,3.4.2,6.9-.9,10.2-.5,2.3-1,4.6-1.3,6.8-.8,7.8.1,15.6,2.8,23,3.8,13.5,16.1,23,30.2,23.2,2.4,0,4.7-.3,7-.8,24.4-5.8,48.5-13,72.1-21.5,1.1-.4,2.3-.8,3.4-1.3,1.5-.5,2.8-1.4,3.7-2.5.2-.2.3-.4.4-.6h0c1.5-2.2,2-5,1.1-7.8Zm-131.1-79.2l-.3-.3h0c0,0,.2.2.3.3Z"/><path class="uuid-7f0fa37b-57d8-48eb-b04c-56d60118ea0e" d="m94.3,67.8c-3.4,0-6.5-2-7.8-5.2-1.3-3.1-.7-6.8,1.6-9.2,19.1-20.2,47-33.7,85.5-41.3C200.8,6.1,228.4,2.2,256.2.2c29.1-.9,58.2,4,85.5,14.2,4.2,1.8,6.3,6.6,4.7,10.9-1.6,4.3-6.3,6.6-10.7,5.1-25.1-9.5-51.8-14-78.6-13.2-26.9,1.9-53.7,5.8-80.1,11.6-34.4,6.8-60.2,19.1-76.5,36.3-1.6,1.7-3.9,2.7-6.2,2.7Z"/><path class="uuid-7f0fa37b-57d8-48eb-b04c-56d60118ea0e" d="m203,511.9c-3.9,0-7.4-2.7-8.3-6.5-3.3-13.5-16.5-50.5-37.3-60-3.2-1.4-5.2-4.7-5-8.2.2-3.5,2.5-6.5,5.8-7.7,8.9-3,17-5.8,23.3-8.1,5.9-2.1,10.4-3.6,12.7-4.4,35.5-11.2,42.7-24,42.5-32.8-.1-4.7,3.6-8.6,8.3-8.7,4.7-.1,8.6,3.6,8.7,8.3.5,21.3-17.8,37.9-54.3,49.5-2.2.7-6.5,2.2-12.2,4.2l-7.7,2.7c14.1,15.6,24.4,34.3,30,54.5l193.6-.5-.6-.9c-2.5-3.6-4.7-7.3-6.6-11.2-4.2-8.6-7.8-17.5-10.6-26.7-5.2-17.5-8.8-35.4-10.7-53.5-.7-6.8-1.1-13.7-1.1-20.6,0-4.7,3.8-8.5,8.5-8.5s8.5,3.8,8.5,8.5.4,14.1,1,18.5c1.8,17.1,5.2,34,10.1,50.5,2.5,8.3,5.8,16.5,9.6,24.3,1.6,3.2,3.5,6.3,5.5,9.2,3.6,5,6.5,10.4,8.6,16.2.8,2.6.3,5.4-1.3,7.6-1.6,2.2-4.2,3.5-6.9,3.5l-214.2.6h0Z"/><path class="uuid-dd6ee174-ab6d-463f-a99b-5e3a96cac8d6" d="m87,158.4c-.7,0-1.3,0-1.9-.2-4.6-1.1-7.4-5.7-6.4-10.2l.9-3.7c1.7-7.8,3.8-15.5,6.3-23.1,5.9-16.4,15.1-31.5,27-44.3,13.1-12.6,29.2-21.6,46.8-26.2,2.9-1,6.2-.3,8.4,1.8,2.3,2.1,3.2,5.3,2.5,8.3-.7,3-3,5.4-6,6.2-14.7,3.7-28.3,11.2-39.3,21.6-10.3,11.1-18.3,24.2-23.4,38.4-2.3,6.9-4.2,13.9-5.7,21l-.9,3.8c-.9,3.9-4.3,6.6-8.3,6.6Z"/><path class="uuid-dd6ee174-ab6d-463f-a99b-5e3a96cac8d6" d="m76.8,187.7c4.7,0,8.5-3.8,8.5-8.5s-3.8-8.5-8.5-8.5-8.5,3.8-8.5,8.5,3.8,8.5,8.5,8.5Z"/><path class="uuid-7f0fa37b-57d8-48eb-b04c-56d60118ea0e" d="m444,74.5c-14.3-16.4-35.4-24.8-56.7-23.1-2.9.2-5.9.7-8.8,1.3-3.7.8-7.2,1.9-10.7,3.2.7.6,1.5,1.2,2.2,1.8,1,.8,2.1,1.6,3.1,2.4,3.6,2.8,7.1,5.9,10.3,9,9.8-1.8,19.7-.7,28.6,3,7.3,3,13.9,7.6,19.2,13.7,9.8,11.2,14,25.8,12.3,40,.1.3.2.6.3,1,1.5,5.5,2.8,11,3.9,16.5-4.6,10.8-12.2,19.9-21.8,26.2.3,3.2.5,6.4.7,9.5,9.5-5.3,17.5-12.9,23.5-22.1,5.3-8.2,9-17.7,10.3-28,2.7-19.6-3.2-39.5-16.2-54.4Zm67.5,34.2c-5.1-56.6-49.5-101.7-106-107.9-23.9-2.6-47.3,2-67.5,12.4-3.5,1.8-6.8,3.7-10.1,5.8-2.9,1.9-5.8,3.9-8.6,6.1-.2.2-.5.4-.7.5-18.3,14.4-32.4,34.1-39.9,57.5-3.4,10.5-1.6,22,5,30.9,7.6,10.4,20.3,15.6,33,13.5,12.7-2.1,23.1-11.1,27-23.3,5.5-17.7,20.2-31,38.3-34.9.5-.1.9-.2,1.4-.3,9.8-1.8,19.7-.7,28.6,3,7.3,3,13.9,7.6,19.2,13.7,9.8,11.2,14,25.8,12.3,40-.6,5.2-2.1,10.3-4.3,15.1-3.4,7.4-8.4,13.6-14.4,18.5-9.1,7.3-20.5,11.4-32.6,11.3-9,0-17.6,3.4-24.1,9.6-6.1,6-9.5,14.2-9.5,22.7v70.1c0,13.6,7.9,25.3,19.4,30.8,4.5,2.1,9.5,3.3,14.8,3.3s6.6-.5,9.6-1.4c14.2-4.1,24.5-17.3,24.5-32.8v-39.1c7.8-2.3,15.2-5.4,22.1-9.1,41.6-22.2,67.1-67.6,62.7-116.2Zm-59.4,94c-8.2,5.9-17.3,10.6-27.2,13.9-2.8.9-5.8,1.8-8.7,2.5-.5.1-.9.3-1.4.5-.2,0-.4.2-.7.3-2.7,1.5-4.5,4.3-4.5,7.5v45.6c0,9.4-7.6,17.1-17.1,17.1s-3.3-.2-4.8-.7c-.3,0-.6-.2-.9-.3-6.6-2.3-11.4-8.7-11.4-16.1v-70.1c0-4,1.6-7.8,4.4-10.6,3.3-3.2,7.8-4.9,12.4-4.7h.3c12.2.1,23.8-3,33.9-8.7,9.5-5.3,17.5-12.9,23.5-22.1,5.3-8.2,9-17.7,10.3-28,2.7-19.6-3.2-39.5-16.2-54.4-14.3-16.4-35.4-24.8-56.7-23.1-2.9.2-5.9.7-8.8,1.3-3.7.8-7.2,1.9-10.7,3.2-3.3,1.3-6.4,2.8-9.4,4.5-14.6,8.4-25.9,22.2-31.1,38.8-2,6.1-7.2,10.5-13.5,11.5-2.9.5-5.7.2-8.3-.8-3.2-1.1-6-3.2-8.1-6-3.3-4.5-4.2-10.3-2.5-15.6,7.3-22.9,22-41.7,40.8-54.2,3.8-2.6,7.8-4.8,12-6.9,16.6-8.1,35.6-11.8,55.1-9.8,4.1.4,8.1,1.1,12,1.9,42.5,9.4,74.9,45,79.6,89.1,4,37.7-13.1,73.3-42.3,94.2Zm-8.1-128.2c-14.3-16.4-35.4-24.8-56.7-23.1-2.9.2-5.9.7-8.8,1.3-3.7.8-7.2,1.9-10.7,3.2.7.6,1.5,1.2,2.2,1.8,1,.8,2.1,1.6,3.1,2.4,3.6,2.8,7.1,5.9,10.3,9,9.8-1.8,19.7-.7,28.6,3,7.3,3,13.9,7.6,19.2,13.7,9.8,11.2,14,25.8,12.3,40,.1.3.2.6.3,1,1.5,5.5,2.8,11,3.9,16.5-4.6,10.8-12.2,19.9-21.8,26.2.3,3.2.5,6.4.7,9.5,9.5-5.3,17.5-12.9,23.5-22.1,5.3-8.2,9-17.7,10.3-28,2.7-19.6-3.2-39.5-16.2-54.4Z"/><path class="uuid-7f0fa37b-57d8-48eb-b04c-56d60118ea0e" d="m392.7,324.2h0c-18.9,0-34.1,15.3-34.1,34.1s5.9,22.1,15,28.3c2.3,1.6,4.8,2.9,7.5,3.8,3.1,1.1,6.4,1.8,9.8,2,.6,0,1.2,0,1.8,0,18.9,0,34.1-15.3,34.1-34.1s-15.3-34.1-34.1-34.1Zm0,51.2c-2,0-3.9-.3-5.7-1-.3-.1-.6-.2-.9-.3h0s0,0,0,0c-.4-.1-.7-.3-1.1-.5,0,0,0,0,0,0-1.3-.7-2.5-1.5-3.6-2.4-3.5-3.1-5.8-7.7-5.8-12.8,0-7.2,4.5-13.4,10.8-15.9.2,0,.4-.1.6-.2,1.8-.6,3.7-1,5.7-1,9.4,0,17.1,7.6,17.1,17.1s-7.6,17.1-17.1,17.1Z"/></g></g></svg>