<?xml version="1.0" encoding="UTF-8"?><svg id="uuid-d9f36c06-7994-4bd0-a7f4-e438d29a0ed6" xmlns="http://www.w3.org/2000/svg" width="512" height="512" viewBox="0 0 512 512"><defs><style>.uuid-76fd59a5-a6fb-495d-aff2-b39e761147c6{fill:#b7a097;}.uuid-76fd59a5-a6fb-495d-aff2-b39e761147c6,.uuid-c4e40b05-28ee-4035-a9b8-7a180da23a89,.uuid-c65212da-cf7c-4864-8d1f-c2c440badf31,.uuid-94f286b2-b2c4-48f8-967a-c38ac68f241a,.uuid-fb2f364a-9b01-423c-84b2-41ee4da53422,.uuid-f114ed5a-2dde-49db-ac35-f1e3c9ba0065,.uuid-478bdd5d-28d5-4c2f-9624-5ec8dea831e5{stroke-width:0px;}.uuid-c4e40b05-28ee-4035-a9b8-7a180da23a89{fill:#fcede8;}.uuid-c65212da-cf7c-4864-8d1f-c2c440badf31{fill:#8c634c;opacity:.7;}.uuid-94f286b2-b2c4-48f8-967a-c38ac68f241a{fill:#e5c9be;}.uuid-fb2f364a-9b01-423c-84b2-41ee4da53422{fill:#fff;}.uuid-f114ed5a-2dde-49db-ac35-f1e3c9ba0065{fill:#b4998a;}.uuid-478bdd5d-28d5-4c2f-9624-5ec8dea831e5{fill:#c08a61;}</style></defs><g id="uuid-b949f858-87b2-4cce-8af2-434d4ee7f280"><g id="uuid-8275552a-8461-4a0c-8d0a-db25d52ec1fd"><path class="uuid-c65212da-cf7c-4864-8d1f-c2c440badf31" d="m399.2,321.4c-11,24.9-15.2,52.3-12,79.4,1.9,17.6,5.5,35,10.5,52,2.7,8.8,6.1,17.4,10.3,25.6,5.1,7.8,9.7,15.8,13.8,24.1l-216.3.6h0c-.7-2.6-13.7-52.8-42.5-65.7-5.3,1.9-11,3.8-16.8,5.7-19.1,6.6-38.6,12.2-58.3,16.7-5.4,1.3-11.2.5-16-2.2-5.5-3.4-9.7-8.6-11.6-14.8-2.3-6.1-3.1-12.6-2.4-19,2-6.6,2.7-13.5,2-20.3-2.2-8.6-10.5-10.8-17.1-15.4-5.3-3.8,4.2-15.8,4.2-15.8,0,0-10.2-7.4-13.8-10.7-3.8-3.1,1.6-8.4,6.3-18.3,2-4.3,2.5-9.2,1.6-13.8-1.8-9.1-15.8-12.6-22.7-17.7-3.3-2.4-8.5-6-9.1-10.3-.9-6.1,6.3-14.6,9.8-18.9,15-19.2,27.9-39.9,38.4-61.9,1.4-2.3,2.2-4.9,2.4-7.6-.2-12.2-18-17.2-19.6-29.1-.3-3.5.4-7,1.8-10.2,5-10.5,9.2-21.2,12.8-32.3,2.1-10.1,4.9-20.1,8.2-29.9,7.2-19.6,18.4-37.6,32.7-52.9,21.1-22.1,52.3-33,81.8-38.8,26.2-5.7,52.8-9.5,79.5-11.5.9,0,1.7,0,2.6-.2,55.1-2.7,98.7,15.8,141.5,48.9,23.3,17.2,40.3,41.4,48.5,69,6.2,22.8,9.2,46.4,8.7,70-.2,23.3-7,46.1-19.8,65.7-12.8,20.1-29.6,37.5-39.4,59.4Z"/><path class="uuid-fb2f364a-9b01-423c-84b2-41ee4da53422" d="m372.8,321.8c-11,24.9-15.2,52.3-12,79.4,1.9,17.6,5.5,35,10.5,52,2.7,8.8,6.1,17.4,10.3,25.6,5.1,7.8,9.7,15.8,13.8,24.1l-165.7.4h-24.7c-.6-2.2-11-42.3-33.7-60.2-2.7-2.1-5.6-3.9-8.8-5.4-.3,0-.4.2-.7.3-5.2,1.8-10.6,3.6-16.1,5.5,0,0-.3-.2-.3-.3-2.6-2.2-5.6-4.1-8.7-5.5-14.6,5-31.4,10.6-46.7,15.1-6.5,2-12.8,3.7-18.6,5.1-5.5-3.4-9.7-8.6-11.6-14.8-2.3-6.1-3.1-12.6-2.4-19,2-6.6,2.7-13.5,2-20.3-2.2-8.6-10.5-10.8-17.1-15.4-5.3-3.8,4.2-15.8,4.2-15.8,0,0-10.2-7.4-13.8-10.7-3.8-3.1,1.6-8.4,6.3-18.3,2-4.3,2.5-9.2,1.6-13.8-1.8-9.1-15.8-12.6-22.7-17.7-3.3-2.4-8.5-6-9.1-10.3-.9-6.1,6.3-14.6,9.8-18.9,15-19.2,27.9-39.9,38.4-61.9,1.4-2.3,2.2-4.9,2.4-7.6-.2-12.2-18-17.2-19.6-29.1-.3-3.5.4-7,1.8-10.2,5-10.5,9.2-21.2,12.8-32.3,2.1-10.1,4.9-20.1,8.2-29.9,7.2-19.6,18.4-37.6,32.7-52.9,21.1-22.1,52.3-33,81.8-38.8,26.2-5.7,52.8-9.5,79.5-11.5,3.9.3,7.7.6,11.4,1.1,39.4,5.6,76.4,22.1,106.8,47.6,23.3,17.2,40.3,41.4,48.5,69,6.2,22.8,9.2,46.4,8.7,70-.2,23.3-7,46.1-19.8,65.7-12.8,20.1-29.6,37.5-39.4,59.4Z"/><path class="uuid-c4e40b05-28ee-4035-a9b8-7a180da23a89" d="m372.8,321.8c-11,24.9-15.2,52.3-12,79.4,1.9,17.6,5.5,35,10.5,52,2.7,8.8,6.1,17.4,10.3,25.6,5.1,7.8,9.7,15.8,13.8,24.1l-165.7.4c-.9-3.2-14-52.7-42.5-65.5-5.1,1.8-10.4,3.6-15.9,5.4-.3.2-.6.3-.9.3-2.6-2.2-5.5-4.1-8.6-5.5-.2,0-.3-.2-.4-.3-5.1,1.8-10.5,3.6-16,5.5-16.8,5.5-34.8,11.2-49.3,14.8-2.3-1.3-4.4-3.1-6.1-5.1-2.5-2.8-4.3-6.1-5.5-9.6-2.3-6.1-3.1-12.6-2.4-19,2-6.6,2.7-13.5,2-20.3-2.2-8.6-10.5-10.8-17.1-15.4-5.3-3.8,4.2-15.8,4.2-15.8,0,0-10.2-7.4-13.8-10.7-3.8-3.1,1.6-8.4,6.3-18.3,2-4.3,2.5-9.2,1.6-13.8-1.8-9.1-15.8-12.6-22.7-17.7-3.3-2.4-8.5-6-9.1-10.3-.9-6.1,6.3-14.6,9.8-18.9,15-19.2,27.9-39.9,38.4-61.9,1.4-2.3,2.2-4.9,2.4-7.6-.2-12.2-18-17.2-19.6-29.1-.3-3.5.4-7,1.8-10.2,5-10.5,9.2-21.2,12.8-32.3,2.1-10.1,4.9-20.1,8.2-29.9,7.2-19.6,18.4-37.6,32.7-52.9,21.1-22.1,52.3-33,81.8-38.8,21.8-4.7,43.9-8.1,66.2-10.4,39.4,5.6,76.4,22.1,106.8,47.6,23.3,17.2,40.3,41.4,48.5,69,6.2,22.8,9.2,46.4,8.7,70-.2,23.3-7,46.1-19.8,65.7-12.8,20.1-29.6,37.5-39.4,59.4Z"/><path class="uuid-fb2f364a-9b01-423c-84b2-41ee4da53422" d="m33.5,171.3c3.6-9.3,8-17.4,10.7-25.3.7-2,1.3-3.9,1.7-5.8l1.6-6.7c1.1-4.5,2.2-9.2,3.5-13.8,5.5-18.8,14.4-36.4,26.1-52.2,3.6-4.9,7.6-9.5,11.8-13.9l12.5,11.7c-3.7,3.9-7.2,8.1-10.5,12.4-10.5,14.1-18.4,29.9-23.4,46.6-1.2,4.3-2.3,8.6-3.3,13.1l-1.6,6.7c-.6,2.6-1.4,5.1-2.2,7.5-3.4,9.6-7.8,17.9-10.9,25.9l-16.1-6.1Z"/><g id="uuid-5d9cf7b1-418c-4b42-b5f1-236754f4f6e5"><path class="uuid-478bdd5d-28d5-4c2f-9624-5ec8dea831e5" d="m55.4,106.7c-.8,2.2-.8,4.7.1,6.8l.9,1.4c.4.5.8.9,1.2,1.2.4.4.8.7,1.3,1,.5.3,1,.5,1.6.7,2.2.6,4.5.5,6.6-.4,1-.5,1.8-1.1,2.6-1.9,2.3-2.4,2.9-5.9,1.6-8.9-.5-1-1.1-1.9-1.9-2.7-.8-.8-1.7-1.5-2.7-1.9-2.1-.9-4.5-1-6.6-.1-2.2,1-3.8,2.8-4.7,4.9Z"/><path class="uuid-478bdd5d-28d5-4c2f-9624-5ec8dea831e5" d="m286.6.7c-9.1-.7-18.4-.9-28-.4-28,1.9-55.9,5.9-83.3,11.8-38.9,7.7-67.1,21.2-86.4,41.3,0,0,0,0,0,0-4.2,4.4-8.1,9-11.7,13.9-1.8,2.4-3.6,4.9-5.2,7.4-1.3,1.9-1.8,4.3-1.3,6.5.5,2.3,1.9,4.2,4,5.4,4,2.3,9.1,1.2,11.7-2.6,1.5-2.3,3-4.5,4.7-6.6,3.2-4.3,6.7-8.5,10.5-12.4h0c16.5-17.2,42.5-29.5,77.2-36.3,26.6-5.8,53.6-9.6,80.8-11.5,8.7-.4,17.2-.3,25.6.4,3.8.3,7.4-1.9,8.8-5.5,2-5.3-1.6-11.1-7.3-11.5Z"/><path class="uuid-478bdd5d-28d5-4c2f-9624-5ec8dea831e5" d="m429.4,500.3c-2.1-5.8-5.1-11.2-8.7-16.2-2.1-2.9-3.9-6-5.6-9.2-3.9-7.8-7.2-15.9-9.7-24.3-3.5-11.8-7.2-33-9-44.3-.7-4.3-4.6-7.3-8.9-7.1-5.2.2-8.5,4.8-8.1,9.9.9,13.4,5,33.4,9.6,46.6,3.2,9.1,6.4,18.1,10.7,26.7,2,3.9,4.2,7.6,6.7,11.2l.6.8-195.4.5c-5.7-20.2-16.1-38.9-30.3-54.5l7.8-2.7c5.8-2,10.1-3.5,12.3-4.2,36.9-11.6,55.4-28.2,54.9-49.5-.1-4.6-3.9-8.3-8.6-8.3h-.2c-2.3,0-4.5,1-6.1,2.6-1.6,1.6-2.4,3.8-2.4,6.1.2,8.8-7.1,21.6-42.9,32.8-2.3.7-6.8,2.3-12.8,4.4-6.3,2.2-14.4,5-23.3,8,0,0-.2,0-.3,0-24.2,8.8-49,16.2-74.1,22.2-8,1.5-15.9-3.5-17.7-11.4-1.8-4.9-2.5-10.1-2-15.2.2-1.8.6-3.6,1-5.4,1.8-5.9,2-12.1.7-18.2-2.5-7.8-8.3-14.2-16-17.5l-1.8-1c.9-1.9,2-3.6,3.3-5.3,1.5-1.8,2.1-4.1,1.8-6.4-.3-2.3-1.5-4.4-3.4-5.8-2.1-1.5-6.9-5.1-10.5-8,.4-.7.9-1.6,1.3-2.3,1.4-2.3,2.9-5.1,4.4-8.2,2.7-6,3.5-12.6,2.3-19.1-2.1-10.4-12.1-15.5-19.5-19.2-2.5-1.2-4.9-2.5-7.1-4.1-1.8-1.2-3.6-2.6-5.2-4.1,0-1.3,1.4-4.4,8-12.3,15.4-19.7,28.7-40.9,39.5-63.4,2-3.5,3.2-7.5,3.3-11.5-.9-8.6-5.5-16.4-12.6-21.3-3.5-3.2-6.8-6.2-7.2-8.9,0-2,.5-4,1.3-5.8h0c5-10.6,9.3-21.6,12.9-32.7.5-2.2.2-4.5-1-6.5-1.2-1.9-3.1-3.3-5.4-3.9-4.6-1-9.2,1.8-10.3,6.3-3.3,10-7.3,19.9-11.7,29.5-.2.3-.3.6-.4.9,0,0,0,.2-.1.3h0s0,0,0,0c-2,4.5-2.8,9.4-2.3,14.3,1.7,7.6,6.2,14.4,12.6,19.1,4.2,3.8,7,6.5,7,8.9-.3,1.3-.8,2.5-1.5,3.7-10.3,21.5-23,41.9-37.7,60.7-6.2,7.5-12.8,16.3-11.4,25.1,1.8,6.8,6.3,12.6,12.5,16,2.8,1.9,5.8,3.7,8.9,5.1,3.7,1.9,10,5,10.4,7.3.5,2.9.2,5.9-1,8.6-1.3,2.7-2.6,5.1-3.8,7.1-3.2,5.5-8.4,14.8-.5,21.2,1.9,1.7,5.1,4.2,8,6.4-2.2,3.7-3.1,8-2.8,12.3.5,3.4,2.3,6.4,5.1,8.4,1.9,1.3,4,2.5,6,3.6,5.1,2.9,7.1,4.2,7.8,6.9.5,3.4.2,6.9-.9,10.2-.5,2.3-1,4.6-1.3,6.8-.9,7.8.1,15.6,2.8,23,3.9,13.5,16.2,23,30.4,23.3,2.4,0,4.8-.3,7.1-.8,24.6-5.8,48.9-13,72.7-21.5,19.4,11.3,31.6,45.6,34.8,58.4.9,3.8,4.4,6.5,8.4,6.5h0s216.3-.6,216.3-.6c2.7,0,5.3-1.3,6.9-3.5s2.1-5,1.3-7.6ZM38,355.5h0c0,0,.2.2.3.2l-.3-.2Z"/></g><path class="uuid-c65212da-cf7c-4864-8d1f-c2c440badf31" d="m77.6,187.7c4.8,0,8.6-3.8,8.6-8.5s-3.9-8.5-8.6-8.5-8.6,3.8-8.6,8.5,3.9,8.5,8.6,8.5Z"/><path class="uuid-c65212da-cf7c-4864-8d1f-c2c440badf31" d="m87.8,158.4c-2.6,0-5.1-1.2-6.8-3.2-1.6-2-2.2-4.7-1.6-7.3l.9-3.7c1.7-7.8,3.8-15.5,6.4-23.1,6-16.4,15.3-31.5,27.3-44.3,13.2-12.6,29.5-21.6,47.2-26.2,3-1,6.2-.3,8.5,1.8,2.3,2.1,3.3,5.3,2.5,8.3s-3,5.4-6,6.2c-14.9,3.7-28.5,11.2-39.7,21.6-10.4,11.1-18.4,24.2-23.6,38.4-2.3,6.9-4.3,13.9-5.8,21.1l-.9,3.7c-.9,3.9-4.4,6.6-8.4,6.6Z"/><path class="uuid-94f286b2-b2c4-48f8-967a-c38ac68f241a" d="m404,173.4c0-13.2-10.8-24-24.2-24s-24.2,10.7-24.2,24h0v9h-15.1v-9c0-13.2-10.9-24-24.2-24s-24.2,10.7-24.2,24,9.3,22.4,21.3,23.8v.2c-.1,0,11,0,11,0v99h16.2v-99h15.1v99h16.2v-99h9.1,0c12.9-.5,23.2-11.1,23.2-24Zm-94.2-5.9c3.4-3.4,8.9-3.5,12.3-.1,3.4,3.3,3.4,12.2,1.8,13.8-1.6,1.6-10.6,1.8-14-1.5-3.4-3.3-3.5-8.8-.1-12.2Zm76.2,12.2c-3.4,3.3-12.4,3.1-14,1.5-1.6-1.6-1.7-10.5,1.8-13.8,3.4-3.3,9-3.3,12.3.1,3.4,3.4,3.3,8.9-.1,12.2Z"/><rect class="uuid-94f286b2-b2c4-48f8-967a-c38ac68f241a" x="309" y="295.4" width="74.7" height="46"/><path class="uuid-76fd59a5-a6fb-495d-aff2-b39e761147c6" d="m361.6,287.4v16.5c2.2.2,4,2.2,4,4.5v25.1c0,2.3-1.8,4.3-4,4.5v16.5c.8,0,1.7,0,2.5-.2,10-1.4,17.7-10.2,17.7-20.8v-25.1c0-11.4-9.1-20.8-20.2-21Z"/><ellipse class="uuid-fb2f364a-9b01-423c-84b2-41ee4da53422" cx="346.4" cy="361.4" rx="20.2" ry="20"/><path class="uuid-f114ed5a-2dde-49db-ac35-f1e3c9ba0065" d="m362.6,63.5v16.4c30.9,15.5,57.6,50.5,57.6,89.6s-20.8,61.9-45.3,80.3c0,0,0,0,0,0-3.4,2.4-7.1,5.5-10.7,9.3,0,0-.1.1-.2.2h0c-3,3.3-5.9,7.1-8.5,11.5-5.3,9.1-8.2,19.6-8.6,30.2l16.1.6c.2-5.6,1.5-14.1,6.5-22.8.2-.4.5-.8.7-1.2l1.4,4c39.6-17.4,73.7-63.6,73.7-110.6s-40.4-91.3-82.8-107.4Z"/><path class="uuid-478bdd5d-28d5-4c2f-9624-5ec8dea831e5" d="m376.6,288.4h-58.9c-11.3,0-20.5,9.2-20.5,20.3v24.3c0,10.2,7.7,18.8,17.7,20.1.9.1,1.9.2,2.9.2h58.9c1,0,1.9,0,2.9-.2,10-1.4,17.7-9.9,17.7-20.1v-24.3c0-11.2-9.2-20.3-20.5-20.3Zm4.4,44.6c0,2.4-2,4.3-4.4,4.3h-58.9c-2.4,0-4.4-2-4.4-4.3v-24.3c0-2.4,2-4.3,4.4-4.3h58.9c2.4,0,4.4,2,4.4,4.3v24.3Z"/><path class="uuid-478bdd5d-28d5-4c2f-9624-5ec8dea831e5" d="m379.5,353.2c-.2-5.8-2-11.2-4.9-15.8h-54.8c-2.9,4.6-4.7,10-4.9,15.8,0,.4,0,.8,0,1.2,0,17.7,14.5,32,32.3,32s32.3-14.3,32.3-32,0-.8,0-1.2Zm-32.3,17.2c-8.9,0-16.2-7.2-16.2-16s0-.7,0-1c.5-8.4,7.6-15,16.1-15s15.6,6.6,16.1,15c0,.3,0,.7,0,1,0,8.8-7.2,16-16.2,16Z"/><path class="uuid-478bdd5d-28d5-4c2f-9624-5ec8dea831e5" d="m317.1,304.7c-.2-5.6-1.5-14.1-6.5-22.8-6.8-11.7-16.8-17.7-22.2-20.2l6.9-14.5c7.1,3.3,20.4,11.3,29.3,26.8,5.3,9.1,8.2,19.6,8.6,30.2l-16.1.6Z"/><path class="uuid-478bdd5d-28d5-4c2f-9624-5ec8dea831e5" d="m375.7,304.7l-16.1-.6c.4-10.6,3.4-21.1,8.6-30.2,8.9-15.5,22.2-23.4,29.3-26.8l6.9,14.5c-5.4,2.5-15.4,8.5-22.2,20.2-5,8.7-6.3,17.2-6.5,22.8Z"/><path class="uuid-478bdd5d-28d5-4c2f-9624-5ec8dea831e5" d="m346.4,62.5c-60.2,0-109,48.3-109,108s38.4,96.9,89.1,106.2c-1.1-2.6-2.6-5.3-4.4-8-7.6-11.2-18.1-16.4-23.6-18.6l.3-.7c-27-16.1-45.2-45.4-45.2-78.9,0-50.7,41.7-92,92.9-92s92.9,41.3,92.9,92-18,62.6-44.9,78.7l.3.9c-5.6,2.1-16,7.4-23.6,18.6-1.8,2.7-3.2,5.3-4.4,7.9,50.5-9.4,88.7-53.3,88.7-106.1s-48.8-108-109-108Z"/><path class="uuid-478bdd5d-28d5-4c2f-9624-5ec8dea831e5" d="m463.5,48.5h0c-3.4-3.3-8.8-3.3-12.1,0l-17.1,17c-3.4,3.3-3.4,8.7,0,12h0c3.4,3.3,8.8,3.3,12.1,0l17.1-17c3.4-3.3,3.4-8.7,0-12Z"/><path class="uuid-478bdd5d-28d5-4c2f-9624-5ec8dea831e5" d="m231.3,48.5h0c3.4-3.3,8.8-3.3,12.1,0l17.1,17c3.4,3.3,3.4,8.7,0,12h0c-3.4,3.3-8.8,3.3-12.1,0l-17.1-17c-3.4-3.3-3.4-8.7,0-12Z"/><rect class="uuid-478bdd5d-28d5-4c2f-9624-5ec8dea831e5" x="337.3" y=".5" width="17.2" height="41" rx="8.5" ry="8.5"/><rect class="uuid-478bdd5d-28d5-4c2f-9624-5ec8dea831e5" x="193" y="142.3" width="17" height="41.4" rx="8.5" ry="8.5" transform="translate(38.6 364.5) rotate(-90)"/><rect class="uuid-478bdd5d-28d5-4c2f-9624-5ec8dea831e5" x="482.8" y="142.3" width="17" height="41.4" rx="8.5" ry="8.5" transform="translate(328.4 654.3) rotate(-90)"/></g></g></svg>