<?xml version="1.0" encoding="UTF-8"?><svg id="uuid-568721d6-7d10-4278-bcc8-160919b15537" xmlns="http://www.w3.org/2000/svg" width="512" height="512" viewBox="0 0 512 512"><defs><style>.uuid-8bcfcf0d-2c6a-42a6-996a-a805d517f522{fill:#b7a097;}.uuid-8bcfcf0d-2c6a-42a6-996a-a805d517f522,.uuid-18d7d6a5-2ad1-45a6-b701-fc2e6b2bb026,.uuid-26289f59-9f0f-472c-b3c2-96e87a2d1ca4,.uuid-0c45b2a1-3dd8-4c50-abb5-1e47592d6398,.uuid-77958693-0112-4afa-b810-07d80291f014,.uuid-4f73571a-0532-44c3-98bd-532d80932f87{stroke-width:0px;}.uuid-18d7d6a5-2ad1-45a6-b701-fc2e6b2bb026{fill:#fcede8;}.uuid-26289f59-9f0f-472c-b3c2-96e87a2d1ca4{fill:#e5c9be;}.uuid-0c45b2a1-3dd8-4c50-abb5-1e47592d6398{fill:#fff;}.uuid-77958693-0112-4afa-b810-07d80291f014{fill:#c08a61;}.uuid-4f73571a-0532-44c3-98bd-532d80932f87{fill:#a38b7f;opacity:.7;}</style></defs><g id="uuid-c1cdaa11-d561-4cb8-ab00-8094d278a499"><g id="uuid-54203f51-9d3f-41bb-bc81-81b19f05aa10"><g id="uuid-6ce213c1-4d15-4454-8102-e38650a6b984"><path class="uuid-8bcfcf0d-2c6a-42a6-996a-a805d517f522" d="m402.7,321.4c-11.1,24.9-15.3,52.3-12.1,79.4,2,17.6,5.5,35,10.6,52,2.7,8.8,6.2,17.4,10.3,25.6,5.1,7.8,9.8,15.8,13.9,24.1l-218.1.6h0c-.7-2.6-13.8-52.8-42.8-65.7-5.4,1.9-11.1,3.8-16.9,5.7-19.3,6.6-38.9,12.2-58.8,16.7-5.5,1.3-11.3.5-16.2-2.2-5.6-3.4-9.8-8.6-11.7-14.8-2.3-6.1-3.1-12.6-2.4-19,2-6.6,2.7-13.5,2-20.3-2.3-8.6-10.6-10.8-17.2-15.4-5.4-3.8,4.3-15.8,4.3-15.8,0,0-10.3-7.4-13.9-10.7-3.8-3.1,1.6-8.4,6.3-18.3,2-4.3,2.5-9.2,1.7-13.8-1.8-9.1-15.9-12.6-22.9-17.7-3.3-2.4-8.6-6-9.2-10.3-1-6.1,6.3-14.6,9.9-18.9,15.2-19.2,28.2-39.9,38.8-61.9,1.4-2.3,2.2-4.9,2.4-7.6-.2-12.2-18.2-17.2-19.8-29.1-.3-3.5.4-7,1.8-10.2,5-10.5,9.3-21.2,12.9-32.3,2.1-10.1,4.9-20.1,8.3-29.9,7.3-19.6,18.5-37.6,33-52.9,21.3-22.1,52.8-33,82.5-38.8,26.4-5.7,53.2-9.5,80.2-11.5.9,0,1.7,0,2.6-.2,55.6-2.7,99.6,15.8,142.7,48.9,23.5,17.2,40.7,41.4,48.9,69,6.3,22.8,9.3,46.4,8.8,70-.2,23.3-7.1,46.1-20,65.7-12.9,20.1-29.9,37.5-39.7,59.4Z"/><path class="uuid-0c45b2a1-3dd8-4c50-abb5-1e47592d6398" d="m376,321.8c-11.1,24.9-15.3,52.3-12.1,79.4,2,17.6,5.5,35,10.6,52,2.7,8.8,6.2,17.4,10.3,25.6,5.1,7.8,9.8,15.8,13.9,24.1l-167.1.4h-24.9c-.6-2.2-11.1-42.3-34-60.2-2.7-2.1-5.7-3.9-8.9-5.4-.3,0-.4.2-.7.3-5.2,1.8-10.7,3.6-16.3,5.5,0,0-.3-.2-.3-.3-2.6-2.2-5.6-4.1-8.8-5.5-14.7,5-31.6,10.6-47.1,15.1-6.6,2-12.9,3.7-18.8,5.1-5.6-3.4-9.8-8.6-11.7-14.8-2.3-6.1-3.1-12.6-2.4-19,2-6.6,2.7-13.5,2-20.3-2.3-8.6-10.6-10.8-17.2-15.4-5.4-3.8,4.3-15.8,4.3-15.8,0,0-10.3-7.4-13.9-10.7-3.8-3.1,1.6-8.4,6.3-18.3,2-4.3,2.5-9.2,1.7-13.8-1.8-9.1-15.9-12.6-22.9-17.7-3.3-2.4-8.6-6-9.2-10.3-1-6.1,6.3-14.6,9.9-18.9,15.2-19.2,28.2-39.9,38.8-61.9,1.4-2.3,2.2-4.9,2.4-7.6-.2-12.2-18.2-17.2-19.8-29.1-.3-3.5.4-7,1.8-10.2,5-10.5,9.3-21.2,12.9-32.3,2.1-10.1,4.9-20.1,8.3-29.9,7.3-19.6,18.5-37.6,33-52.9,21.3-22.1,52.8-33,82.5-38.8,26.4-5.7,53.2-9.5,80.2-11.5,3.9.3,7.7.6,11.5,1.1,39.8,5.6,77.1,22.1,107.8,47.6,23.5,17.2,40.7,41.4,48.9,69,6.3,22.8,9.3,46.4,8.8,70-.2,23.3-7.1,46.1-20,65.7-12.9,20.1-29.9,37.5-39.7,59.4Z"/><path class="uuid-18d7d6a5-2ad1-45a6-b701-fc2e6b2bb026" d="m376,321.8c-11.1,24.9-15.3,52.3-12.1,79.4,2,17.6,5.5,35,10.6,52,2.7,8.8,6.2,17.4,10.3,25.6,5.1,7.8,9.8,15.8,13.9,24.1l-167.1.4c-.9-3.2-14.1-52.7-42.8-65.5-5.1,1.8-10.5,3.6-16.1,5.4-.3.2-.6.3-.9.3-2.6-2.2-5.5-4.1-8.7-5.5-.2,0-.3-.2-.4-.3-5.1,1.8-10.6,3.6-16.2,5.5-16.9,5.5-35.1,11.2-49.7,14.8-2.4-1.3-4.5-3.1-6.2-5.1-2.5-2.8-4.4-6.1-5.6-9.6-2.3-6.1-3.1-12.6-2.4-19,2-6.6,2.7-13.5,2-20.3-2.3-8.6-10.6-10.8-17.2-15.4-5.4-3.8,4.3-15.8,4.3-15.8,0,0-10.3-7.4-13.9-10.7-3.8-3.1,1.6-8.4,6.3-18.3,2-4.3,2.5-9.2,1.7-13.8-1.8-9.1-15.9-12.6-22.9-17.7-3.3-2.4-8.6-6-9.2-10.3-1-6.1,6.3-14.6,9.9-18.9,15.2-19.2,28.2-39.9,38.8-61.9,1.4-2.3,2.2-4.9,2.4-7.6-.2-12.2-18.2-17.2-19.8-29.1-.3-3.5.4-7,1.8-10.2,5-10.5,9.3-21.2,12.9-32.3,2.1-10.1,4.9-20.1,8.3-29.9,7.3-19.6,18.5-37.6,33-52.9,21.3-22.1,52.8-33,82.5-38.8,22-4.7,44.3-8.1,66.7-10.4,39.8,5.6,77.1,22.1,107.8,47.6,23.5,17.2,40.7,41.4,48.9,69,6.3,22.8,9.3,46.4,8.8,70-.2,23.3-7.1,46.1-20,65.7-12.9,20.1-29.9,37.5-39.7,59.4Z"/><path class="uuid-0c45b2a1-3dd8-4c50-abb5-1e47592d6398" d="m33.8,171.3c3.7-9.3,8-17.4,10.8-25.3.7-2,1.3-3.9,1.7-5.8l1.6-6.7c1.1-4.5,2.2-9.2,3.6-13.8,5.6-18.8,14.5-36.4,26.4-52.2,3.7-4.9,7.6-9.5,11.9-13.9l12.6,11.7c-3.8,3.9-7.3,8.1-10.6,12.4-10.6,14.1-18.6,29.9-23.6,46.7-1.2,4.3-2.3,8.6-3.4,13.1l-1.6,6.7c-.6,2.6-1.4,5.1-2.2,7.5-3.4,9.6-7.9,17.9-11,25.9l-16.3-6.1Z"/><g id="uuid-1ebe89ae-7416-4cfe-aa00-4cfa356b6d05"><path class="uuid-77958693-0112-4afa-b810-07d80291f014" d="m55.9,106.7c-.9,2.2-.8,4.7.1,6.8l.9,1.4c.4.5.8.9,1.2,1.2.4.4.8.7,1.3,1,.5.3,1.1.5,1.6.7,2.2.6,4.5.5,6.6-.4,1-.5,1.9-1.1,2.6-1.9,2.3-2.4,2.9-5.9,1.7-8.9-.5-1-1.1-1.9-1.9-2.7-.8-.8-1.7-1.5-2.7-1.9-2.1-.9-4.5-1-6.7-.1-2.2,1-3.9,2.8-4.8,4.9Z"/><path class="uuid-77958693-0112-4afa-b810-07d80291f014" d="m318.8,1.1c-9.2-.7-48.3-1.3-57.9-.9-28.3,1.9-56.4,5.9-84.1,11.8-39.2,7.7-67.7,21.2-87.1,41.3,0,0,0,0,0,0-4.2,4.4-8.1,9-11.8,13.9-1.8,2.4-3.6,4.9-5.3,7.4-1.3,1.9-1.8,4.3-1.3,6.5.5,2.3,2,4.2,4,5.4,4,2.3,9.2,1.2,11.8-2.6,1.5-2.3,3.1-4.5,4.7-6.6,3.3-4.3,6.8-8.5,10.6-12.4h0c16.6-17.2,42.8-29.5,77.9-36.3,26.9-5.8,54.1-9.6,81.5-11.5,8.8-.4,41.5-2,49.9-1.3,3.9.3,12.3-2.4,13.7-5.9,2-5.3-.8-8.5-6.5-8.9Z"/><path class="uuid-77958693-0112-4afa-b810-07d80291f014" d="m433.1,500.3c-2.1-5.8-5.1-11.2-8.8-16.2-2.1-2.9-4-6-5.6-9.2-3.9-7.8-7.2-15.9-9.8-24.3-3.6-11.8-7.7-33-9.6-44.3-.7-4.3-4.1-7.3-8.5-7.1-5.2.2-9.1,4.8-8.7,9.9,1,13.4,5.5,33.4,10.2,46.6,3.2,9.1,6.5,18.1,10.8,26.7,2,3.9,4.2,7.6,6.7,11.2l.6.9-197.1.5c-5.8-20.2-16.2-38.9-30.5-54.5l7.8-2.7c5.8-2,10.2-3.5,12.5-4.2,37.2-11.6,55.9-28.2,55.3-49.5-.1-4.6-4-8.3-8.7-8.3h-.2c-2.3,0-4.5,1-6.1,2.6-1.6,1.6-2.5,3.8-2.4,6.1.2,8.8-7.1,21.6-43.2,32.8-2.4.7-6.9,2.3-12.9,4.4-6.4,2.2-14.5,5-23.5,8,0,0-.2,0-.3,0-24.5,8.8-49.4,16.2-74.7,22.2-8.1,1.5-16-3.5-17.9-11.4-1.9-4.9-2.6-10.1-2-15.2.2-1.8.6-3.6,1-5.4,1.8-5.9,2-12.1.8-18.2-2.5-7.8-8.4-14.2-16.1-17.5l-1.8-1c.9-1.9,2.1-3.6,3.3-5.3,1.5-1.8,2.1-4.1,1.8-6.4-.3-2.3-1.6-4.4-3.5-5.8-2.1-1.5-7-5.1-10.6-8,.4-.7.9-1.6,1.3-2.3,1.4-2.3,2.9-5.1,4.4-8.2,2.8-6,3.6-12.6,2.3-19.1-2.1-10.4-12.2-15.5-19.7-19.2-2.5-1.2-4.9-2.5-7.2-4.1-1.9-1.2-3.6-2.6-5.2-4.1,0-1.3,1.4-4.4,8-12.3,15.6-19.7,28.9-40.9,39.8-63.4,2-3.5,3.2-7.5,3.3-11.5-.9-8.6-5.5-16.4-12.7-21.3-3.5-3.2-6.8-6.2-7.2-8.9,0-2,.5-4,1.3-5.8h0c5.1-10.6,9.4-21.6,13-32.7.6-2.2.2-4.5-1-6.5-1.2-1.9-3.2-3.3-5.4-3.9-4.6-1-9.3,1.8-10.4,6.3-3.4,10-7.3,19.9-11.8,29.5-.2.3-.3.6-.4.9,0,0,0,.2-.1.3h0s0,0,0,0c-2,4.5-2.8,9.4-2.3,14.3,1.7,7.6,6.2,14.4,12.7,19.1,4.2,3.8,7.1,6.5,7.1,8.9-.3,1.3-.8,2.5-1.5,3.7-10.4,21.5-23.2,41.9-38,60.7-6.3,7.5-12.9,16.3-11.5,25.1,1.8,6.8,6.4,12.6,12.6,16,2.9,1.9,5.9,3.7,9,5.1,3.8,1.9,10.1,5,10.5,7.3.6,2.9.2,5.9-1,8.6-1.3,2.7-2.7,5.1-3.8,7.1-3.2,5.5-8.5,14.8-.5,21.2,1.9,1.7,5.1,4.2,8.1,6.4-2.2,3.7-3.2,8-2.8,12.3.5,3.4,2.3,6.4,5.2,8.4,1.9,1.3,4,2.5,6,3.6,5.1,2.9,7.1,4.2,7.8,6.9.5,3.4.2,6.9-.9,10.2-.5,2.3-1,4.6-1.3,6.8-.9,7.8.1,15.6,2.9,23,3.9,13.5,16.4,23,30.7,23.3,2.4,0,4.8-.3,7.2-.8,24.8-5.8,49.3-13,73.3-21.5,19.5,11.3,31.9,45.6,35.1,58.4.9,3.8,4.4,6.5,8.4,6.5h0s218.1-.6,218.1-.6c2.8,0,5.4-1.3,7-3.5s2.1-5,1.3-7.6ZM38.3,355.5h0c0,0,.2.2.3.2l-.3-.2Z"/></g><path class="uuid-8bcfcf0d-2c6a-42a6-996a-a805d517f522" d="m78.2,187.7c4.8,0,8.7-3.8,8.7-8.5s-3.9-8.5-8.7-8.5-8.7,3.8-8.7,8.5,3.9,8.5,8.7,8.5Z"/><path class="uuid-8bcfcf0d-2c6a-42a6-996a-a805d517f522" d="m88.6,158.4c-2.7,0-5.2-1.2-6.8-3.2-1.6-2-2.3-4.7-1.6-7.3l.9-3.7c1.7-7.8,3.8-15.5,6.4-23.1,6-16.4,15.4-31.5,27.5-44.3,13.3-12.6,29.7-21.6,47.6-26.2,3-1,6.3-.3,8.6,1.8,2.3,2.1,3.3,5.3,2.6,8.3s-3.1,5.4-6.1,6.2c-15,3.7-28.8,11.2-40.1,21.6-10.5,11.1-18.6,24.2-23.8,38.4-2.3,6.9-4.3,13.9-5.8,21.1l-.9,3.7c-.9,3.9-4.4,6.6-8.5,6.6Z"/></g><path class="uuid-26289f59-9f0f-472c-b3c2-96e87a2d1ca4" d="m493,218.8c.3,22-18.6,40.3-41.6,40.3-6.1,0-11.9-1.3-17.1-3.5-4-1.7-8.7-.7-11.4,2.6-3.8,4.6-2.2,11.4,3.4,13.9,4.9,2.1,10.1,3.6,15.6,4.4-.3,19.1-16.7,34.5-36.7,34.5s-30.9-13.2-30.9-30.4c-.2-8.7-3.2-11.4-8.8-11.4s-7.7,3.1-7.9,13.1c0,15.4-17.6,28.8-35.1,28.8s-35.4-15.4-35.7-34.5c5.3-.8,10.4-2.3,15.1-4.4,5.4-2.4,7-9.3,3.3-13.9-1.8-2.2-4.5-3.4-7.2-3.4s-2.6.3-3.8.8c-5.1,2.3-10.7,3.5-16.6,3.5-22.4,0-40.7-18.3-40.4-40.3.2-17.1,11.6-31.6,27.2-37,4.1-1.4,6.7-6,5.8-10.2-.2-.9-.5-1.7-.9-2.4-.5-.9-1.2-1.8-2-2.5t0,0c-4.2-5.4-5.5-8.4-5.6-14.9v-.4c2.3,1.5,4.8,2.8,7.4,3.9,4.3,1.8,9.2-.3,10.8-4.5.4-.9.5-1.9.5-2.9,0-3.1-1.8-6-4.8-7.2-2.8-1.2-5.4-2.7-7.8-4.6h0s-2.5-2.2-2.5-2.2c-7.1-6.6-11.5-15.9-11.2-26.3.4-18.4,15.8-33.6,34.6-34.2,4.3-.1,8.4.5,12.3,1.7,4.1,1.3,8.5-.9,10-4.8.4-.9.5-1.9.5-2.8,0-3.3-2.1-6.5-5.6-7.6-6.1-2-12.8-2.8-19.6-2.4-.6,0-1.3,0-1.9.2-.4-2.2-.7-4.4-.7-6.7,0-19.3,16-35,35.7-35s36.6,13,36.6,32.3v1.4c0,4.4,2.6,7.7,7.6,7.8,6.2.2,7.6-5,7.6-8.5,0,0,0-1.1,0-1.5,0-19.3,16.7-31.8,37-31.8s36.7,15.7,36.7,35-.2,4.5-.7,6.7c-.6,0-1.3-.1-1.9-.2-7.1-.4-13.9.4-20.2,2.4-4.5,1.4-6.9,6.2-5.2,10.4,1.3,3.2,4.4,5.2,7.8,5.2s1.7-.1,2.5-.4c4-1.2,8.2-1.9,12.6-1.7,19.3.5,35.1,15.7,35.6,34.2.2,10.2-4.1,19.5-11.3,26.1h-.1c0,.1-2.8,2.4-2.8,2.4h0c-2.5,1.8-5.2,3.4-8.1,4.6-4.1,1.7-5.9,6.2-4.4,10.1,1.3,3.2,4.5,5.2,7.8,5.2s2.2-.2,3.3-.7c2.7-1.1,5.2-2.4,7.6-3.9v.3c0,6.5-1.4,9.5-5.7,14.9h0c-.8.7-1.5,1.5-2,2.5-.4.7-.8,1.6-.9,2.4-.1.6-.2,1.1-.2,1.7,0,3.6,2.5,7.3,6.1,8.5,16.1,5.3,27.8,19.9,28,37Z"/><path class="uuid-4f73571a-0532-44c3-98bd-532d80932f87" d="m409.2,15.6c1.7-.4,16.2-3.5,28.3,6.2,14.1,11.4,11.4,29.3,11.3,30.1l-2,13.6c3.9.7,20.8,3.9,30.9,18.7,5.4,7.8,6.5,15.4,6.9,19,2.4,18-6.2,32-9.5,36.8,1,2.8,2.5,8.1,1.7,14.7-.7,6.4-3.1,11.1-4.6,13.6,3.2,1.7,24.9,13.8,29.7,39.1.8,4.2,4.3,22.6-7.8,39.1-15.3,20.9-41.9,20.2-44.2,20.1,1.4,3.8,3.5,11.5,1.7,20.7-3.2,16.7-16.8,25.3-19.3,26.9l-25.1-3.7c2.9-1.8,12.8-8.3,17.3-21.3,4-11.4,1.6-21.2.6-24.7,4.6.9,17.1,2.6,29.4-4,21.1-11.2,22.7-36.4,22.8-40,.7-15.4-6.2-26.9-9.8-32-8.3-11.6-19-16.8-23.7-18.7,1.3-1.3,9.2-9.4,8.1-21-.5-5.4-2.8-9.4-4.3-11.6,11.1-10,16-24.8,12.7-38.8-3.8-16-17.7-28.4-34.9-30.8,1.2-4.9,3.3-16.9-1.7-30.8-4-11-10.7-18.1-14.4-21.5Z"/><path class="uuid-4f73571a-0532-44c3-98bd-532d80932f87" d="m365.2,132.9h.3c4.1,0,7.5,3.4,7.5,7.5v145h-15.3v-145c0-4.1,3.4-7.5,7.5-7.5Z"/><path class="uuid-4f73571a-0532-44c3-98bd-532d80932f87" d="m356.1,27.5h15.3v48.4c0,4.1-3.4,7.5-7.6,7.5h0c-4.2,0-7.6-3.4-7.6-7.5V27.5Z"/><path class="uuid-77958693-0112-4afa-b810-07d80291f014" d="m480.1,168.4c2.6-5,4-10.6,4-16.7s-.9-8.4-2.4-12.7c7.3-9.3,11.3-20.9,10.6-33.6-1.2-19.4-13.9-36-31.6-43.6.8-3.5,1.2-7.2,1.2-10.9,0-28.3-23.8-50.9-53.5-50.9s-35.6,9.4-45.1,23.6c0,0,0,0,0,0C354,9.5,337.8.2,319.5.2c-28.8,0-51.9,22.6-52,50.9,0,3.7.4,7.4,1.2,10.9-17.3,7.6-29.6,24.2-30.7,43.6-.7,12.6,3.2,24.3,10.2,33.6-1.4,4.2-2.3,8.7-2.3,12.7,0,6,1.4,11.7,3.9,16.7-18.5,9.8-31,28.9-31,50.9s22.6,54,51.8,57.4c.5,27.8,23.5,50.2,52,50.2s33.3-8.6,42.6-21.9c8.1,13.1,21.9,21.7,40,21.7,29.2,0,53-22.4,53.5-50.2,30-3.4,53.3-27.8,53.3-57.4s-12.9-41.2-31.9-50.9Zm-28.7,90.7c-6.1,0-11.9-1.3-17.1-3.5-4-1.7-8.7-.7-11.4,2.6-3.8,4.6-2.2,11.4,3.4,13.9,4.9,2.1,10.1,3.6,15.6,4.4-.3,19.1-16.7,34.5-36.7,34.5s-30.9-13.2-30.9-30.4c-.2-8.7-3.2-11.4-8.8-11.4s-7.7,3.1-7.9,13.1c0,15.4-17.6,28.8-35.1,28.8s-35.4-15.4-35.7-34.5c5.3-.8,10.4-2.3,15.1-4.4,5.4-2.4,7-9.3,3.3-13.9-1.8-2.2-4.5-3.4-7.2-3.4s-2.6.3-3.8.8c-5.1,2.3-10.7,3.5-16.6,3.5-22.4,0-40.7-18.3-40.4-40.3.2-17.1,11.6-31.6,27.2-37,4.1-1.4,6.7-6,5.8-10.2-.2-.9-.5-1.7-.9-2.4-.5-.9-1.2-1.8-2-2.5t0,0c-4.2-5.4-5.5-8.4-5.6-14.9v-.4c2.3,1.5,4.8,2.8,7.4,3.9,4.3,1.8,9.2-.3,10.8-4.5.4-.9.5-1.9.5-2.9,0-3.1-1.8-6-4.8-7.2-2.8-1.2-5.4-2.7-7.8-4.6h0s-2.5-2.2-2.5-2.2c-7.1-6.6-11.5-15.9-11.2-26.3.4-18.4,15.8-33.6,34.6-34.2,4.3-.1,8.4.5,12.3,1.7,4.1,1.3,8.5-.9,10-4.8.4-.9.5-1.9.5-2.8,0-3.3-2.1-6.5-5.6-7.6-6.1-2-12.8-2.8-19.6-2.4-.6,0-1.3,0-1.9.2-.4-2.2-.7-4.4-.7-6.7,0-19.3,16-35,35.7-35s36.6,13,36.6,32.3v1.4c0,4.4,2.6,7.7,7.6,7.8,6.2.2,7.6-5,7.6-8.5,0,0,0-1.1,0-1.5,0-19.3,16.7-31.8,37-31.8s36.7,15.7,36.7,35-.2,4.5-.7,6.7c-.6,0-1.3-.1-1.9-.2-7.1-.4-13.9.4-20.2,2.4-4.5,1.4-6.9,6.2-5.2,10.4,1.3,3.2,4.4,5.2,7.8,5.2s1.7-.1,2.5-.4c4-1.2,8.2-1.9,12.6-1.7,19.3.5,35.1,15.7,35.6,34.2.2,10.2-4.1,19.5-11.3,26.1h-.1c0,.1-2.8,2.4-2.8,2.4h0c-2.5,1.8-5.2,3.4-8.1,4.6-4.1,1.7-5.9,6.2-4.4,10.1,1.3,3.2,4.5,5.2,7.8,5.2s2.2-.2,3.3-.7c2.7-1.1,5.2-2.4,7.6-3.9v.3c0,6.5-1.4,9.5-5.7,14.9h0c-.8.7-1.5,1.5-2,2.5-.4.7-.8,1.6-.9,2.4-.1.6-.2,1.1-.2,1.7,0,3.6,2.5,7.3,6.1,8.5,16.1,5.3,27.8,19.9,28,37,.3,22-18.6,40.3-41.6,40.3Z"/><path class="uuid-77958693-0112-4afa-b810-07d80291f014" d="m383.1,417.8c-4.1-19.3-3.4-39.2-.3-58.7,2.6-16.9,7.9-33.2,15.7-48.6l15.5,7.6c-7,13.8-11.7,28.4-14.1,43.5-2.7,17.4-2.9,37.4,1.3,55l-18.1,1.2Z"/></g></g></svg>