<?xml version="1.0" encoding="UTF-8"?><svg id="uuid-41371f9a-4904-4148-8133-272fe40b38bc" xmlns="http://www.w3.org/2000/svg" width="509.2" height="512" viewBox="0 0 509.2 512"><defs><style>.uuid-a3ecc7d8-5ed6-4d6e-aee4-915a6a32f897{fill:#fcede8;}.uuid-a3ecc7d8-5ed6-4d6e-aee4-915a6a32f897,.uuid-c0e8be90-61dd-4932-b8de-e94dfd7a2d83,.uuid-6951a2b3-ffdb-4c9d-b9ac-bc1f9a39ab05,.uuid-e4c1f3fc-f0ad-4457-aa30-0bbae7d29751,.uuid-30216fee-f09d-4a04-975c-d5072f3a28ae,.uuid-367fb422-6fd4-4c16-85cb-776494e9d365,.uuid-4adff41c-2c3a-4ff5-9da4-e55e1a665d00{stroke-width:0px;}.uuid-c0e8be90-61dd-4932-b8de-e94dfd7a2d83{fill:#8c634c;}.uuid-c0e8be90-61dd-4932-b8de-e94dfd7a2d83,.uuid-367fb422-6fd4-4c16-85cb-776494e9d365{opacity:.7;}.uuid-6951a2b3-ffdb-4c9d-b9ac-bc1f9a39ab05{fill:#e5c9be;}.uuid-e4c1f3fc-f0ad-4457-aa30-0bbae7d29751{fill:#fff;}.uuid-30216fee-f09d-4a04-975c-d5072f3a28ae{fill:#c08a61;}.uuid-367fb422-6fd4-4c16-85cb-776494e9d365{fill:#a38b7f;}.uuid-4adff41c-2c3a-4ff5-9da4-e55e1a665d00{fill:#b29890;}</style></defs><g id="uuid-7e1f9e21-8330-45cd-b4fc-07d01fe904c3"><g id="uuid-22e3ecb0-62fc-4006-9fa5-e0100d094722"><g id="uuid-3aa1d197-831a-4695-8579-db79f38113ef"><path class="uuid-c0e8be90-61dd-4932-b8de-e94dfd7a2d83" d="m454,196.3c-.2,23.3-7,46.1-19.6,65.7-12.7,20-29.3,37.5-39,59.4-10.7,24.5-14.8,51.3-12,77.8,0,.5.1,1,.2,1.5,1.9,17.6,5.4,35,10.4,52,2.7,8.8,6.1,17.3,10.2,25.6,5,7.8,9.6,15.8,13.6,24.1h-26.4c0,0-164,.5-164,.5h-23.8c0,0,0,0,0,0-.6-2.3-10.9-42.2-33.2-60.1-2.8-2.2-5.7-4.1-8.9-5.5-.5.2-1,.4-1.5.5-4.8,1.7-10,3.4-15.1,5.2-.3,0-.5.2-.8.3-11.8,4.1-23.8,7.8-35.9,11.1,0,0-.2,0-.2,0-4.3,1.2-8.6,2.3-13,3.4-2.6.6-5.2,1.3-7.9,1.9-5.3,1.2-10.8.5-15.6-2-.1,0-.2-.1-.3-.2-5.5-3.4-9.6-8.6-11.5-14.8-2.2-6.1-3.1-12.6-2.4-19,2-6.6,2.6-13.5,2-20.3-2.2-8.6-10.4-10.8-16.9-15.4-5.3-3.8,4.2-15.8,4.2-15.8,0,0-10.1-7.4-13.7-10.7-3.8-3.1,1.5-8.4,6.2-18.3,1.9-4.3,2.5-9.2,1.6-13.8-1.8-9.1-15.6-12.6-22.4-17.7-3.2-2.4-8.5-6-9-10.3-.9-6,6.2-14.6,9.7-18.8,14.9-19.2,27.6-39.9,38.1-61.9,1.4-2.3,2.2-4.9,2.4-7.6-.2-12.2-17.8-17.2-19.5-29.1-.2-3.3.3-6.6,1.5-9.6,0-.2.2-.4.2-.6,4.9-10.5,9.1-21.2,12.6-32.2.5-2.4,1-4.8,1.6-7.2,1.3-5.5,2.8-11.1,4.5-16.5.6-2.1,1.3-4.1,2-6.1,1.2-3.3,2.5-6.5,3.9-9.8,2.3-5.2,4.9-10.2,7.7-15.1,5.7-9.8,12.5-19,20.2-27.5.2-.2.3-.4.5-.6,5.8-6.1,12.3-11.3,19.3-15.9,18.5-11.9,40.5-18.8,61.6-23,26-5.7,52.3-9.5,78.8-11.5.8,0,1.7,0,2.6-.2,12-.6,23.4-.2,34.4,1.2,39.1,4.9,72.7,21.8,105.8,47.7,22.2,16.6,38.7,39.6,47.1,66,.3,1,.7,2,1,3.1,3.5,12.9,6,26.1,7.3,39.4,1,10.2,1.5,20.4,1.3,30.6Z"/><path class="uuid-e4c1f3fc-f0ad-4457-aa30-0bbae7d29751" d="m369.2,321.8c-10.9,24.9-15,52.3-11.9,79.4,1.9,17.6,5.4,35,10.4,52,2.7,8.8,6.1,17.4,10.2,25.6,5.1,7.8,9.6,15.8,13.7,24.1l-164.1.4h-24.5c-.6-2.2-10.9-42.3-33.4-60.2-2.7-2.1-5.6-3.9-8.7-5.4-.3,0-.4.2-.7.3-5.1,1.8-10.5,3.6-16,5.5,0,0-.3-.2-.3-.3-2.6-2.2-5.5-4.1-8.6-5.5-14.4,5-31.1,10.6-46.3,15.1-6.5,2-12.7,3.7-18.4,5.1-5.5-3.4-9.6-8.6-11.5-14.8-2.2-6.1-3.1-12.6-2.4-19,2-6.6,2.6-13.5,2-20.3-2.2-8.6-10.4-10.8-16.9-15.4-5.3-3.8,4.2-15.8,4.2-15.8,0,0-10.1-7.4-13.7-10.7-3.8-3.1,1.5-8.4,6.2-18.3,1.9-4.3,2.5-9.2,1.6-13.8-1.8-9.1-15.6-12.6-22.4-17.7-3.2-2.4-8.4-6-9-10.3-.9-6.1,6.2-14.6,9.7-18.9,14.9-19.2,27.6-39.9,38.1-61.9,1.4-2.3,2.2-4.9,2.4-7.6-.2-12.2-17.8-17.2-19.5-29.1-.3-3.5.4-7,1.8-10.2,4.9-10.5,9.1-21.2,12.6-32.3,2.1-10.1,4.8-20.1,8.1-29.9,7.2-19.6,18.2-37.6,32.4-52.9,20.9-22.1,51.8-33,81-38.8,26-5.7,52.3-9.5,78.8-11.5,3.8.3,7.6.6,11.3,1.1,39,5.6,75.7,22.1,105.8,47.6,23.1,17.2,39.9,41.4,48,69,6.2,22.8,9.1,46.4,8.6,70-.2,23.3-7,46.1-19.6,65.7-12.7,20.1-29.4,37.5-39,59.4Z"/><path class="uuid-a3ecc7d8-5ed6-4d6e-aee4-915a6a32f897" d="m369.2,321.8c-10.9,24.9-15,52.3-11.9,79.4,1.9,17.6,5.4,35,10.4,52,2.7,8.8,6.1,17.4,10.2,25.6,5.1,7.8,9.6,15.8,13.7,24.1l-164.1.4c-.9-3.2-13.8-52.7-42.1-65.5-5,1.8-10.3,3.6-15.8,5.4-.3.2-.6.3-.9.3-2.6-2.2-5.4-4.1-8.5-5.5-.2,0-.3-.2-.4-.3-5,1.8-10.4,3.6-15.9,5.5-16.6,5.5-34.5,11.2-48.8,14.8-2.3-1.3-4.4-3.1-6.1-5.1-2.4-2.8-4.3-6.1-5.5-9.6-2.2-6.1-3.1-12.6-2.4-19,2-6.6,2.6-13.5,2-20.3-2.2-8.6-10.4-10.8-16.9-15.4-5.3-3.8,4.2-15.8,4.2-15.8,0,0-10.1-7.4-13.7-10.7-3.8-3.1,1.5-8.4,6.2-18.3,1.9-4.3,2.5-9.2,1.6-13.8-1.8-9.1-15.6-12.6-22.4-17.7-3.2-2.4-8.4-6-9-10.3-.9-6.1,6.2-14.6,9.7-18.9,14.9-19.2,27.6-39.9,38.1-61.9,1.4-2.3,2.2-4.9,2.4-7.6-.2-12.2-17.8-17.2-19.5-29.1-.3-3.5.4-7,1.8-10.2,4.9-10.5,9.1-21.2,12.6-32.3,2.1-10.1,4.8-20.1,8.1-29.9,7.2-19.6,18.2-37.6,32.4-52.9,20.9-22.1,51.8-33,81-38.8,21.6-4.7,43.5-8.1,65.5-10.4,39,5.6,75.7,22.1,105.8,47.6,23.1,17.2,39.9,41.4,48,69,6.2,22.8,9.1,46.4,8.6,70-.2,23.3-7,46.1-19.6,65.7-12.7,20.1-29.4,37.5-39,59.4Z"/><path class="uuid-e4c1f3fc-f0ad-4457-aa30-0bbae7d29751" d="m33.2,171.3c3.6-9.3,7.9-17.4,10.6-25.3.7-2,1.2-3.9,1.7-5.8l1.6-6.8c1.1-4.5,2.2-9.2,3.5-13.8,5.5-18.8,14.2-36.4,25.9-52.2,3.6-4.9,7.5-9.5,11.7-13.9l12.4,11.7c-3.7,3.9-7.2,8.1-10.4,12.4-10.4,14.1-18.3,29.9-23.2,46.7-1.2,4.3-2.3,8.6-3.3,13.1l-1.6,6.8c-.6,2.6-1.4,5.1-2.2,7.5-3.3,9.6-7.8,17.9-10.8,25.9l-16-6.1Z"/><g id="uuid-7e5f3658-739b-4670-8787-4723ff2adf09"><path class="uuid-30216fee-f09d-4a04-975c-d5072f3a28ae" d="m54.9,106.7c-.8,2.2-.8,4.7.1,6.8l.9,1.4c.3.5.8.9,1.2,1.2.4.4.8.7,1.3,1,.5.3,1,.5,1.6.7,2.2.6,4.5.5,6.5-.4,1-.5,1.8-1.1,2.6-1.9,2.2-2.4,2.9-5.9,1.6-8.9-.5-1-1.1-1.9-1.9-2.7-.8-.8-1.7-1.5-2.7-1.9-2.1-.9-4.4-1-6.6-.1-2.1,1-3.8,2.8-4.7,4.9Z"/><path class="uuid-30216fee-f09d-4a04-975c-d5072f3a28ae" d="m283.9.7c-9-.7-18.2-.9-27.7-.4-27.8,1.9-55.4,5.9-82.5,11.8-38.5,7.7-66.4,21.2-85.5,41.3,0,0,0,0,0,0-4.1,4.4-8,9-11.6,13.9-1.8,2.4-3.5,4.9-5.2,7.4-1.3,1.9-1.8,4.3-1.3,6.5.5,2.3,1.9,4.2,3.9,5.4,3.9,2.3,9,1.2,11.6-2.6,1.5-2.3,3-4.5,4.6-6.6,3.2-4.3,6.7-8.5,10.4-12.4h0c16.3-17.2,42-29.5,76.5-36.3,26.4-5.8,53.1-9.7,80-11.5,8.6-.4,17.1-.3,25.3.4,3.8.3,7.4-1.9,8.7-5.5,2-5.3-1.6-11.1-7.2-11.5Z"/><path class="uuid-30216fee-f09d-4a04-975c-d5072f3a28ae" d="m425.3,500.3c-2.1-5.8-5-11.2-8.7-16.2-2-3-3.9-6-5.5-9.2-3.9-7.8-7.1-15.9-9.6-24.3-3.5-11.8-7.1-33-8.9-44.3-.7-4.3-4.5-7.4-8.8-7.1-5.1.2-8.4,4.8-8.1,9.9.9,13.4,4.9,33.4,9.5,46.6,3.1,9.1,6.3,18.1,10.6,26.7,2,3.9,4.2,7.6,6.6,11.2l.6.9-193.6.5c-5.6-20.2-15.9-38.9-30-54.5l7.7-2.7c5.7-2,10-3.5,12.2-4.2,36.6-11.6,54.8-28.2,54.3-49.5-.1-4.6-3.9-8.3-8.5-8.3h-.2c-2.3,0-4.4,1-6,2.6-1.6,1.6-2.4,3.8-2.4,6.1.2,8.8-7,21.6-42.5,32.8-2.3.7-6.8,2.3-12.7,4.4-6.3,2.2-14.3,5-23,8,0,0-.2,0-.3,0-24,8.8-48.5,16.2-73.4,22.2-8,1.5-15.7-3.5-17.6-11.4-1.8-4.9-2.5-10.1-2-15.2.2-1.8.6-3.6,1-5.4,1.7-5.9,2-12.1.7-18.2-2.5-7.8-8.2-14.2-15.8-17.5l-1.8-1c.9-1.9,2-3.6,3.3-5.3,1.4-1.8,2.1-4.1,1.8-6.4-.3-2.3-1.5-4.4-3.4-5.8-2-1.5-6.9-5.1-10.4-8,.4-.7.9-1.6,1.3-2.3,1.3-2.3,2.9-5.1,4.4-8.2,2.7-6,3.5-12.6,2.3-19.1-2-10.4-12-15.5-19.3-19.2-2.5-1.2-4.8-2.5-7-4.1-1.8-1.2-3.5-2.6-5.1-4.1,0-1.3,1.4-4.4,7.9-12.3,15.3-19.7,28.4-40.9,39.1-63.4,2-3.5,3.1-7.5,3.3-11.5-.9-8.6-5.4-16.4-12.5-21.3-3.4-3.2-6.7-6.2-7.1-8.9,0-2,.5-4,1.3-5.8h0c5-10.6,9.2-21.6,12.8-32.7.5-2.2.2-4.5-1-6.5-1.2-1.9-3.1-3.3-5.3-3.9-4.6-1-9.1,1.8-10.2,6.3-3.3,10-7.2,19.9-11.6,29.5-.2.3-.3.6-.4.9,0,0,0,.2-.1.3h0s0,0,0,0c-2,4.5-2.7,9.4-2.3,14.3,1.7,7.6,6.1,14.4,12.4,19.1,4.2,3.8,6.9,6.5,6.9,8.9-.3,1.3-.8,2.5-1.5,3.7-10.2,21.5-22.7,41.9-37.3,60.7-6.2,7.5-12.7,16.3-11.3,25.1,1.8,6.8,6.3,12.6,12.4,16,2.8,1.9,5.8,3.7,8.9,5.1,3.7,1.9,9.9,5,10.3,7.3.5,2.9.2,5.9-1,8.6-1.3,2.7-2.6,5.1-3.8,7.1-3.1,5.5-8.4,14.8-.5,21.2,1.8,1.7,5,4.2,7.9,6.4-2.1,3.7-3.1,8-2.8,12.3.5,3.4,2.3,6.4,5.1,8.4,1.9,1.3,3.9,2.5,5.9,3.6,5,2.9,7,4.2,7.7,6.9.5,3.4.2,6.9-.9,10.2-.5,2.3-1,4.6-1.3,6.8-.8,7.8.1,15.6,2.8,23,3.8,13.5,16.1,23,30.2,23.3,2.4,0,4.7-.3,7-.8,24.4-5.8,48.4-13,72-21.5,19.2,11.3,31.3,45.6,34.4,58.4.9,3.8,4.3,6.5,8.3,6.5h0s214.2-.6,214.2-.6c2.7,0,5.3-1.3,6.9-3.5s2.1-5,1.3-7.6ZM37.7,355.5h0c0,0,.2.2.3.2l-.3-.2Z"/></g><path class="uuid-c0e8be90-61dd-4932-b8de-e94dfd7a2d83" d="m76.8,187.7c4.7,0,8.5-3.8,8.5-8.5s-3.8-8.5-8.5-8.5-8.5,3.8-8.5,8.5,3.8,8.5,8.5,8.5Z"/><path class="uuid-c0e8be90-61dd-4932-b8de-e94dfd7a2d83" d="m87,158.4c-2.6,0-5.1-1.2-6.7-3.2-1.6-2-2.2-4.7-1.6-7.3l.9-3.7c1.6-7.8,3.8-15.5,6.3-23.1,5.9-16.4,15.1-31.5,27-44.3,13.1-12.6,29.2-21.6,46.8-26.2,2.9-1,6.2-.3,8.4,1.8,2.3,2.1,3.2,5.3,2.5,8.3s-3,5.4-6,6.2c-14.7,3.7-28.3,11.2-39.3,21.6-10.3,11.1-18.3,24.2-23.4,38.4-2.3,6.9-4.2,13.9-5.7,21.1l-.9,3.7c-.9,3.9-4.3,6.6-8.3,6.6Z"/><path class="uuid-30216fee-f09d-4a04-975c-d5072f3a28ae" d="m334.4,22.7c-1.8,4.2-6.6,6.1-10.8,4.4s-11.1-4-16.8-5.5c-11.8-3.1-24-4.6-36.2-4.5V.3c13.5,0,27,1.6,40.1,5,6.5,1.7,12.9,3.8,19.2,6.4s6.3,6.7,4.5,11h0Z"/><path class="uuid-30216fee-f09d-4a04-975c-d5072f3a28ae" d="m375.9,412.5c-2-13.7-2.6-28.5-1.2-42.2,1.1-10.9,3.2-21.6,6.3-32.1,1.3-4.4,6.2-6.9,10.8-5.4h0c4.3,1.3,6.7,5.6,5.5,9.7-2.8,9.6-4.8,19.4-5.7,29.3-1.2,12.5-.7,25,1.4,37.5l-17.1,3.2Z"/></g><path class="uuid-6951a2b3-ffdb-4c9d-b9ac-bc1f9a39ab05" d="m214.3,163.6h74.1v16c0,15.8-12.9,28.7-28.7,28.7h-16.7c-15.8,0-28.7-12.9-28.7-28.7v-16h0Z"/><rect class="uuid-6951a2b3-ffdb-4c9d-b9ac-bc1f9a39ab05" x="293.9" y="261" width="116.9" height="49.5" rx="11.2" ry="11.2"/><circle class="uuid-6951a2b3-ffdb-4c9d-b9ac-bc1f9a39ab05" cx="353.8" cy="65.1" r="24"/><path class="uuid-6951a2b3-ffdb-4c9d-b9ac-bc1f9a39ab05" d="m421.6,128.6h74.1v16c0,15.8-12.9,28.7-28.7,28.7h-16.7c-15.8,0-28.7-12.9-28.7-28.7v-16h0Z"/><path class="uuid-367fb422-6fd4-4c16-85cb-776494e9d365" d="m470.6,173.7c2.1-.7,14.7-5,20.9-18.6,5.9-12.9,1.6-24.7.8-26.8-5.9,2.1-11.8,4.2-17.7,6.3,1.3,4,2.8,10.4,2.2,18.4-.7,9.7-4,16.9-6.2,20.8Z"/><path class="uuid-4adff41c-2c3a-4ff5-9da4-e55e1a665d00" d="m369.5,262.7c2.4,0,17.3,0,28.7,10.8,10.9,10.3,10.6,22.8,10.5,25.1-7,0-17.8,0-24.8,0-.1-4.2.1-11.2-3.3-18.5-4.2-8.9-7.4-14.5-11.1-17.4Z"/><path class="uuid-30216fee-f09d-4a04-975c-d5072f3a28ae" d="m373.2,247.1h-38.7c-26.9,0-48.7,21.8-48.7,48.7v17.3h136v-17.3c0-26.9-21.8-48.7-48.7-48.7Zm32.7,50h-104v-1.3c0-18,14.7-32.7,32.7-32.7h38.7c18,0,32.7,14.6,32.7,32.7v1.3Z"/><path class="uuid-30216fee-f09d-4a04-975c-d5072f3a28ae" d="m385.2,51.9c-5.2-12.2-17.2-20.8-31.3-20.8s-32.4,13.7-33.9,31.1c0,1-.1,1.9-.1,2.9,0,4.9,1,9.6,3,13.9,5.3,11.9,17.2,20.1,31,20.1s32-13.3,33.8-30.4c.1-1.2.2-2.4.2-3.6,0-4.7-1-9.2-2.7-13.2Zm-31.3,31.2c-5.7,0-10.8-2.7-14.1-6.8-2.4-3.1-3.9-7-3.9-11.2s.3-3.8.9-5.6c2.3-7.2,9.1-12.4,17.1-12.4s11.3,2.9,14.5,7.4c2.2,3,3.5,6.6,3.5,10.6s-.4,4.3-1.1,6.3c-2.6,6.8-9.2,11.7-16.9,11.7Z"/><rect class="uuid-30216fee-f09d-4a04-975c-d5072f3a28ae" x="328.8" y="83.1" width="16" height="176"/><rect class="uuid-30216fee-f09d-4a04-975c-d5072f3a28ae" x="363.8" y="83.1" width="16" height="176"/><path class="uuid-30216fee-f09d-4a04-975c-d5072f3a28ae" d="m335.8,65.1c0,4.2,1.5,8.1,3.9,11.2l-17,2.7-69.9,11.1-2.1-16.9,69.1-10.9,16.8-2.7c-.6,1.8-.9,3.6-.9,5.6Z"/><path class="uuid-30216fee-f09d-4a04-975c-d5072f3a28ae" d="m200.8,152.1v26.7c0,22.8,18.5,41.3,41.3,41.3h18.5c22.8,0,41.3-18.5,41.3-41.3v-26.7h-101Zm85,26.7c0,13.9-11.3,25.3-25.3,25.3h-18.5c-13.9,0-25.3-11.3-25.3-25.3v-10.7h69v10.7Z"/><polygon class="uuid-30216fee-f09d-4a04-975c-d5072f3a28ae" points="287.7 161.7 251.1 104.1 215 161.6 200.8 152.1 250.8 73.1 301.8 152.1 287.7 161.7"/><path class="uuid-30216fee-f09d-4a04-975c-d5072f3a28ae" d="m408.2,118.3v26.7c0,22.8,18.5,41.3,41.3,41.3h18.5c22.8,0,41.3-18.5,41.3-41.3v-26.7h-101Zm85,26.7c0,13.9-11.3,25.3-25.3,25.3h-18.5c-13.9,0-25.3-11.3-25.3-25.3v-10.7h69v10.7Z"/><polygon class="uuid-30216fee-f09d-4a04-975c-d5072f3a28ae" points="495 127.9 458.4 70.3 422.4 127.8 408.2 118.3 458.2 40.3 509.2 118.3 495 127.9"/><path class="uuid-30216fee-f09d-4a04-975c-d5072f3a28ae" d="m460.8,57.1l-73.2,11.6-16.9,2.7c.7-2,1.1-4.1,1.1-6.3,0-4-1.3-7.6-3.5-10.6l16.8-2.6,73-11.5,2.7,16.8Z"/></g></g></svg>