<?xml version="1.0" encoding="UTF-8"?><svg id="uuid-bddf7709-25e3-4c3a-ab65-5b9bae58bc9d" xmlns="http://www.w3.org/2000/svg" width="475.8" height="512.4" viewBox="0 0 475.8 512.4"><defs><style>.uuid-99637af0-4657-470d-858f-1b512384706b{fill:#b7a097;}.uuid-99637af0-4657-470d-858f-1b512384706b,.uuid-eefc50c4-faaf-42bf-9393-1fb9e679a5c4,.uuid-a8b643cb-f841-48ae-8814-f7dd85f9e592,.uuid-9ac6a19b-ce10-4156-a870-2205c6666546,.uuid-a353207f-22b1-4042-9651-b22acbc3dd06{stroke-width:0px;}.uuid-eefc50c4-faaf-42bf-9393-1fb9e679a5c4{fill:#fcede8;}.uuid-a8b643cb-f841-48ae-8814-f7dd85f9e592{fill:#e5c9be;}.uuid-9ac6a19b-ce10-4156-a870-2205c6666546{fill:#fff;}.uuid-a353207f-22b1-4042-9651-b22acbc3dd06{fill:#c08a61;}</style></defs><g id="uuid-a29eaf4e-b2e9-4b70-a3a4-f3502b8ff266"><g id="uuid-da3b6429-800f-42ce-a3cc-1505a25de34b"><g id="uuid-d225bda5-8046-45fa-b069-4e38b513df95"><path class="uuid-99637af0-4657-470d-858f-1b512384706b" d="m405.6,321.7c-11.2,24.9-15.4,52.3-12.2,79.4,2,17.6,5.5,35,10.7,52,2.8,8.8,6.2,17.4,10.4,25.6,5.2,7.8,9.9,15.8,14,24.1l-219.7.6h0c-.7-2.6-13.9-52.8-43.1-65.7-5.4,1.9-11.2,3.8-17.1,5.7-19.4,6.6-39.2,12.2-59.3,16.7-5.5,1.3-11.3.5-16.3-2.2-5.6-3.4-9.8-8.6-11.8-14.8-2.3-6.1-3.1-12.6-2.5-19,2-6.6,2.7-13.5,2-20.3-2.3-8.6-10.7-10.8-17.3-15.4-5.4-3.8,4.3-15.8,4.3-15.8,0,0-10.3-7.4-14-10.7-3.9-3.1,1.6-8.4,6.4-18.3,2-4.3,2.6-9.2,1.7-13.8-1.8-9.1-16-12.6-23-17.7-3.3-2.4-8.7-6-9.3-10.3-1-6.1,6.4-14.6,10-18.9,15.3-19.2,28.4-39.9,39-61.9,1.4-2.3,2.2-4.9,2.5-7.6-.2-12.2-18.3-17.2-20-29.1-.3-3.5.4-7,1.8-10.2,5-10.5,9.4-21.2,13-32.3,2.2-10.1,4.9-20.1,8.3-29.9,7.3-19.6,18.6-37.6,33.3-52.9,21.4-22.1,53.1-33,83.1-38.8,26.6-5.7,53.6-9.5,80.8-11.5.9,0,1.8,0,2.6-.2,56-2.7,100.3,15.8,143.7,48.9,23.7,17.2,40.9,41.4,49.3,69,6.3,22.8,9.3,46.4,8.8,70-.2,23.3-7.2,46.1-20.1,65.7-13,20.1-30.1,37.5-40,59.4Z"/><path class="uuid-9ac6a19b-ce10-4156-a870-2205c6666546" d="m378.6,322.2c-11.2,24.9-15.4,52.3-12.2,79.4,2,17.6,5.5,35,10.7,52,2.8,8.8,6.2,17.4,10.4,25.6,5.2,7.8,9.9,15.8,14,24.1l-168.3.4h-25.1c-.6-2.2-11.2-42.3-34.2-60.2-2.7-2.1-5.7-3.9-8.9-5.4-.3,0-.4.2-.7.3-5.3,1.8-10.8,3.6-16.4,5.5,0,0-.3-.2-.3-.3-2.7-2.2-5.6-4.1-8.8-5.5-14.8,5-31.9,10.6-47.4,15.1-6.7,2-13,3.7-18.9,5.1-5.6-3.4-9.8-8.6-11.8-14.8-2.3-6.1-3.1-12.6-2.5-19,2-6.6,2.7-13.5,2-20.3-2.3-8.6-10.7-10.8-17.3-15.4-5.4-3.8,4.3-15.8,4.3-15.8,0,0-10.3-7.4-14-10.7-3.9-3.1,1.6-8.4,6.4-18.3,2-4.3,2.6-9.2,1.7-13.8-1.8-9.1-16-12.6-23-17.7-3.3-2.4-8.7-6-9.3-10.3-1-6.1,6.4-14.6,10-18.9,15.3-19.2,28.4-39.9,39-61.9,1.4-2.3,2.2-4.9,2.5-7.6-.2-12.2-18.3-17.2-20-29.1-.3-3.5.4-7,1.8-10.2,5-10.5,9.4-21.2,13-32.3,2.2-10.1,4.9-20.1,8.3-29.9,7.3-19.6,18.6-37.6,33.3-52.9,21.4-22.1,53.1-33,83.1-38.8,26.6-5.7,53.6-9.5,80.8-11.5,3.9.3,7.8.6,11.6,1.1,40,5.6,77.6,22.1,108.5,47.6,23.7,17.2,40.9,41.4,49.3,69,6.3,22.8,9.3,46.4,8.8,70-.2,23.3-7.2,46.1-20.1,65.7-13,20.1-30.1,37.5-40,59.4Z"/><path class="uuid-eefc50c4-faaf-42bf-9393-1fb9e679a5c4" d="m378.6,322.2c-11.2,24.9-15.4,52.3-12.2,79.4,2,17.6,5.5,35,10.7,52,2.8,8.8,6.2,17.4,10.4,25.6,5.2,7.8,9.9,15.8,14,24.1l-168.3.4c-.9-3.2-14.2-52.7-43.1-65.5-5.2,1.8-10.6,3.6-16.2,5.4-.3.2-.6.3-.9.3-2.6-2.2-5.6-4.1-8.8-5.5-.2,0-.3-.2-.4-.3-5.2,1.8-10.7,3.6-16.3,5.5-17.1,5.5-35.4,11.2-50.1,14.8-2.4-1.3-4.5-3.1-6.2-5.1-2.5-2.8-4.4-6.1-5.6-9.6-2.3-6.1-3.1-12.6-2.5-19,2-6.6,2.7-13.5,2-20.3-2.3-8.6-10.7-10.8-17.3-15.4-5.4-3.8,4.3-15.8,4.3-15.8,0,0-10.3-7.4-14-10.7-3.9-3.1,1.6-8.4,6.4-18.3,2-4.3,2.6-9.2,1.7-13.8-1.8-9.1-16-12.6-23-17.7-3.3-2.4-8.7-6-9.3-10.3-1-6.1,6.4-14.6,10-18.9,15.3-19.2,28.4-39.9,39-61.9,1.4-2.3,2.2-4.9,2.5-7.6-.2-12.2-18.3-17.2-20-29.1-.3-3.5.4-7,1.8-10.2,5-10.5,9.4-21.2,13-32.3,2.2-10.1,4.9-20.1,8.3-29.9,7.3-19.6,18.7-37.6,33.3-52.9,21.4-22.1,53.1-33,83.1-38.8,22.2-4.7,44.6-8.1,67.2-10.4,40,5.6,77.6,22.1,108.5,47.6,23.7,17.2,40.9,41.4,49.3,69,6.3,22.8,9.3,46.4,8.8,70-.2,23.3-7.2,46.1-20.1,65.7-13,20.1-30.1,37.5-40,59.4Z"/><path class="uuid-9ac6a19b-ce10-4156-a870-2205c6666546" d="m34,171.7c3.7-9.3,8.1-17.4,10.9-25.3.7-2,1.3-3.9,1.8-5.8l1.6-6.7c1.1-4.5,2.2-9.2,3.6-13.8,5.6-18.8,14.6-36.4,26.5-52.2,3.7-4.9,7.7-9.5,12-13.9l12.7,11.7c-3.8,3.9-7.3,8.1-10.6,12.4-10.7,14.1-18.7,29.9-23.8,46.6-1.2,4.3-2.3,8.6-3.4,13.1l-1.6,6.7c-.6,2.6-1.4,5.1-2.2,7.5-3.4,9.6-8,17.9-11.1,25.9l-16.4-6.1Z"/><g id="uuid-10f22965-c82e-4f1c-bf5f-0fe3e40d9b88"><path class="uuid-a353207f-22b1-4042-9651-b22acbc3dd06" d="m56.3,107c-.9,2.2-.8,4.7.1,6.8l.9,1.4c.4.5.8.9,1.3,1.2.4.4.8.7,1.3,1,.5.3,1.1.5,1.6.7,2.2.6,4.6.5,6.7-.4,1-.5,1.9-1.1,2.6-1.9,2.3-2.4,2.9-5.9,1.7-8.9-.5-1-1.1-1.9-1.9-2.7-.8-.8-1.7-1.5-2.8-1.9-2.1-.9-4.6-1-6.7-.1-2.2,1-3.9,2.8-4.8,4.9Z"/><path class="uuid-a353207f-22b1-4042-9651-b22acbc3dd06" d="m291.2,1.1c-9.3-.7-18.7-.9-28.4-.4-28.5,1.9-56.8,5.9-84.7,11.8-39.5,7.7-68.1,21.2-87.7,41.3,0,0,0,0,0,0-4.2,4.4-8.2,9-11.9,13.9-1.8,2.4-3.6,4.9-5.3,7.4-1.3,1.9-1.8,4.3-1.3,6.5.5,2.3,2,4.2,4,5.4,4.1,2.3,9.2,1.2,11.9-2.6,1.5-2.3,3.1-4.5,4.7-6.6,3.3-4.3,6.8-8.5,10.6-12.4h0c16.7-17.2,43.1-29.5,78.4-36.3,27-5.8,54.5-9.6,82.1-11.5,8.9-.4,17.5-.3,26,.4,3.9.3,7.6-1.9,8.9-5.5,2.1-5.3-1.6-11.1-7.4-11.5Z"/><path class="uuid-a353207f-22b1-4042-9651-b22acbc3dd06" d="m436.2,500.7c-2.2-5.8-5.1-11.2-8.9-16.2-2.1-2.9-4-6-5.7-9.2-4-7.8-7.3-15.9-9.9-24.3-3.6-11.8-7.3-33-9.2-44.3-.7-4.3-4.6-7.3-9.1-7.1-5.2.2-8.6,4.8-8.3,9.9,1,13.4,5.1,33.4,9.8,46.6,3.2,9.1,6.5,18.1,10.9,26.7,2,3.9,4.3,7.6,6.8,11.2l.6.8-198.5.5c-5.8-20.2-16.3-38.9-30.7-54.5l7.9-2.7c5.9-2,10.3-3.5,12.5-4.2,37.5-11.6,56.2-28.2,55.7-49.5-.1-4.6-4-8.3-8.7-8.3h-.2c-2.3,0-4.5,1-6.2,2.6-1.6,1.6-2.5,3.8-2.4,6.1.2,8.8-7.2,21.6-43.5,32.8-2.4.7-6.9,2.3-13,4.4-6.4,2.2-14.6,5-23.6,8,0,0-.2,0-.3,0-24.6,8.8-49.8,16.2-75.3,22.2-8.2,1.5-16.1-3.5-18-11.4-1.9-4.9-2.6-10.1-2.1-15.2.2-1.8.6-3.6,1.1-5.4,1.8-5.9,2-12.1.8-18.2-2.5-7.8-8.5-14.2-16.2-17.5l-1.8-1c.9-1.9,2.1-3.6,3.4-5.3,1.5-1.8,2.1-4.1,1.8-6.4-.3-2.3-1.6-4.4-3.5-5.8-2.1-1.5-7.1-5.1-10.7-8,.4-.7.9-1.6,1.3-2.3,1.4-2.3,2.9-5.1,4.5-8.2,2.8-6,3.6-12.6,2.3-19.1-2.1-10.4-12.3-15.5-19.8-19.2-2.5-1.2-4.9-2.5-7.2-4.1-1.9-1.2-3.6-2.6-5.3-4.1,0-1.3,1.4-4.4,8.1-12.3,15.7-19.7,29.1-40.9,40.1-63.4,2.1-3.5,3.2-7.5,3.4-11.5-.9-8.6-5.6-16.4-12.8-21.3-3.5-3.2-6.9-6.2-7.3-8.9,0-2,.5-4,1.4-5.8h0c5.1-10.6,9.5-21.6,13.1-32.7.6-2.2.2-4.5-1-6.5-1.2-1.9-3.2-3.3-5.5-3.9-4.7-1-9.3,1.8-10.5,6.3-3.4,10-7.4,19.9-11.9,29.5-.2.3-.3.6-.4.9,0,0,0,.2-.1.3h0s0,0,0,0c-2,4.5-2.8,9.4-2.3,14.3,1.8,7.6,6.3,14.4,12.8,19.1,4.3,3.8,7.1,6.5,7.1,8.9-.3,1.3-.8,2.5-1.5,3.7-10.5,21.5-23.3,41.9-38.3,60.7-6.3,7.5-13,16.3-11.6,25.1,1.8,6.8,6.4,12.6,12.7,16,2.9,1.9,5.9,3.7,9.1,5.1,3.8,1.9,10.1,5,10.6,7.3.6,2.9.2,5.9-1,8.6-1.3,2.7-2.7,5.1-3.9,7.1-3.2,5.5-8.6,14.8-.5,21.2,1.9,1.7,5.2,4.2,8.1,6.4-2.2,3.7-3.2,8-2.8,12.3.5,3.4,2.3,6.4,5.2,8.4,1.9,1.3,4,2.5,6.1,3.6,5.1,2.9,7.2,4.2,7.9,6.9.5,3.4.2,6.9-.9,10.2-.5,2.3-1,4.6-1.3,6.8-.9,7.8.1,15.6,2.9,23,3.9,13.5,16.5,23,30.9,23.3,2.4,0,4.8-.3,7.2-.8,25-5.8,49.7-13,73.9-21.5,19.7,11.3,32.1,45.6,35.3,58.4,1,3.8,4.5,6.5,8.5,6.5h0s219.7-.6,219.7-.6c2.8,0,5.4-1.3,7-3.5s2.1-5,1.3-7.6ZM38.6,355.9h0c0,0,.2.2.3.2l-.3-.2Z"/></g><path class="uuid-a353207f-22b1-4042-9651-b22acbc3dd06" d="m389.1,428.4c-4.3-16.9-6.1-34.3-5.1-51.7,1.2-22.8,6.7-40.5,9.9-49,6.3-16.7,13-25.7,20.8-36,4.3-5.7,9.2-12.3,14.7-21.1,5.6-9,20.4-33,26.4-60.5,11.3-51.5-12.1-96-16.9-104.4-20.9-36.5-51.2-53.2-69.4-63.2-27.8-15.3-59.6-24.1-91.9-25.5l.7-17c34.9,1.5,69.3,11,99.4,27.6,18.4,10.1,52.7,29,75.9,69.7,5.3,9.4,31.4,58.9,18.8,116.5-6.6,30.4-22.6,56.1-28.6,65.8-5.9,9.5-11,16.3-15.6,22.4-7.3,9.7-13,17.3-18.4,31.8-2.8,7.6-7.8,23.4-8.9,43.9-.8,15.7.7,31.3,4.6,46.5l-16.5,4.2Z"/></g><path class="uuid-99637af0-4657-470d-858f-1b512384706b" d="m389.8,135.4c0,40-18.9,75.7-48.3,98.4-5.1,3.9-10.5,7.5-16.2,10.6-4.3,2.4-8.7,4.5-13.3,6.3-6.1,2.5-12.5,4.5-19.1,5.9-4.9-4.2-8.1-7.7-9.4-9.1-15.2-18.9-30.6-26.1-39.8-29.3-13.6-4.6-26.7-4.8-41.9-3.2-5.1.5-10.5,1.3-16.2,2.1-2.2.3-4.5.7-6.9,1-1.5.2-3,.5-4.4.7-4.1-4.5-7.9-9.3-11.3-14.4-13.2-19.8-21-43.5-21-69.1s9.1-53.5,24.5-74.1c6.1-8.2,13.2-15.6,21.1-22.1,10-1.9,20.7-3.5,32.2-5.1,22.7-3.3,48.6-6.8,81.6,0,24.9,5.1,45.2,14.3,60.6,23.3,8.7,10.8,15.7,23.1,20.4,36.4,4.6,13,7.2,27.1,7.2,41.7Z"/><path class="uuid-a8b643cb-f841-48ae-8814-f7dd85f9e592" d="m404,243.3c-16.9,17.9-41.1,19.9-50.8,19.9h-.8c-4.9,0-9.5-.6-13.8-1.5-5.6-1.1-10.8-2.9-15.4-4.9-4.1-1.9-7.9-3.9-11.2-6.1-8.1-5.2-13.6-10.8-16.2-13.7-13.4-16.6-29.2-28-46.9-34.1-9.8-3.3-20.1-5-31.5-5s-10.3.3-15.7.9c-5.2.5-10.6,1.2-16.2,2-3,.4-6.1.9-9.3,1.4-5.1.8-9.4,1.6-13.2,2.3-4.9,1-8.8,1.9-12.3,2.7-6.6,1.6-9.9,2.3-13.7,2.3s-3.6-.2-5.7-.5c-5.1-.8-20.6-3.1-29.3-13.9-10.6-13.2-6.3-34.2-2.8-51.1,2-9.9,8.3-40,34.5-63.5,10.2-9.2,20.9-15.1,32.9-19.2,15.6-5.4,33.5-8,55.6-11.2,11.5-1.7,25.7-3.7,41.2-3.7s23.2,1.2,34.8,3.6c26.8,5.5,52.8,17.4,75.2,34.4,2.7,2.6,5.8,5.7,9.1,9.4,13.7,15.4,30.3,40.1,35.2,72.7,2.8,18.7,8,53.6-13.8,76.9Z"/><ellipse class="uuid-9ac6a19b-ce10-4156-a870-2205c6666546" cx="261.6" cy="107.5" rx="30.2" ry="30.2"/><path class="uuid-a353207f-22b1-4042-9651-b22acbc3dd06" d="m261.6,64c-23.9,0-43.4,19.5-43.4,43.5s19.4,43.5,43.4,43.5,43.4-19.5,43.4-43.5-19.4-43.5-43.4-43.5Zm0,70.7c-15,0-27.2-12.2-27.2-27.3s12.2-27.3,27.2-27.3,27.2,12.2,27.2,27.3-12.2,27.3-27.2,27.3Z"/><path class="uuid-9ac6a19b-ce10-4156-a870-2205c6666546" d="m325.3,186.2v58.6c0,4-.6,7.9-1.9,11.6,0,.1,0,.3-.1.4-.7-.3-1.3-.6-2-.9-6.4-3-12.4-6.9-17.9-11.6-2.8-2.3-5.3-4.7-7.5-7.2-13.4-16.6-29.2-28.1-46.9-34.1-9.8-3.3-20.1-5-31.5-5s-9.9.3-15.7.9v-12.6c0-19.4,15.8-35.2,35.1-35.2h53.3c19.4,0,35.1,15.8,35.1,35.2Z"/><path class="uuid-a353207f-22b1-4042-9651-b22acbc3dd06" d="m289.6,134.8h-53.3c-28.3,0-51.3,23-51.3,51.4v31c5.7-.8,11-1.6,16.2-2.1,15.2-1.6,28.4-1.5,41.9,3.2,9.2,3.1,24.6,10.4,39.8,29.3,1.3,1.4,4.4,4.9,9.4,9.1,5.2,4.4,12.4,9.5,21.3,13.8,4.9,2.4,10.4,4.5,16.3,6,3.4-4.4,6.2-9.4,8-14.7,1.8-5.3,2.8-11,2.8-16.9v-58.6c0-28.4-23-51.4-51.3-51.4Zm35.1,110c0,4-.6,7.9-1.9,11.6,0,.1,0,.3-.1.4-.7-.3-1.3-.6-2-.9-6.4-3-12.4-6.9-17.9-11.6-2.8-2.3-5.3-4.7-7.5-7.2-13.4-16.6-29.2-28.1-46.9-34.1-9.8-3.3-20.1-5-31.5-5s-9.9.3-15.7.9v-12.6c0-19.4,15.8-35.2,35.1-35.2h53.3c19.4,0,35.1,15.8,35.1,35.2v58.6Z"/><path class="uuid-a353207f-22b1-4042-9651-b22acbc3dd06" d="m228,184.5h1.3c4.1,0,7.4,3.3,7.4,7.4v17.8h-16.2v-17.8c0-4.1,3.3-7.4,7.4-7.4Z"/><path class="uuid-a353207f-22b1-4042-9651-b22acbc3dd06" d="m296.3,184.5h1.3c4.1,0,7.4,3.3,7.4,7.4v54.1h-16.2v-54.1c0-4.1,3.3-7.4,7.4-7.4Z"/><path class="uuid-99637af0-4657-470d-858f-1b512384706b" d="m433.8,164c-7.3-48.5-36.8-79.9-49.8-92.1-5.5-4.2-12.8-9.4-21.8-14.6-15.4-9-35.8-18.2-60.6-23.3-33-6.8-58.9-3.3-81.6,0-11.5,1.7-22.2,3.2-32.2,5.1-24.8,4.8-45.6,12-64.8,29.3-29.5,26.6-37,60.3-39.5,72.3-4,19.1-9.4,45.4,6,64.5,12.6,15.7,32.9,18.8,39.5,19.8,15.6,2.4,20.7-2.1,45.4-6.2,1.4-.2,2.8-.5,4.4-.7,2.3-.4,4.6-.7,6.9-1,5.7-.8,11-1.6,16.2-2.1,15.2-1.6,28.4-1.5,41.9,3.2,9.2,3.1,24.6,10.4,39.8,29.3,1.3,1.4,4.4,4.9,9.4,9.1,5.2,4.4,12.4,9.5,21.3,13.8,4.9,2.4,10.4,4.5,16.3,6,6.6,1.7,13.8,2.8,21.6,2.9,8.5.1,40.7-.7,63.5-24.9,27.2-28.9,21.1-70.1,18-90.4Zm-29.8,79.3c-16.9,17.9-41.1,19.9-50.8,19.9h-.8c-4.9,0-9.5-.6-13.8-1.5-5.6-1.1-10.8-2.9-15.4-4.9-4.1-1.9-7.9-3.9-11.2-6.1-8.1-5.2-13.6-10.8-16.2-13.7-13.4-16.6-29.2-28-46.9-34.1-9.8-3.3-20.1-5-31.5-5s-10.3.3-15.7.9c-5.2.5-10.6,1.2-16.2,2-3,.4-6.1.9-9.3,1.4-5.1.8-9.4,1.6-13.2,2.3-4.9,1-8.8,1.9-12.3,2.7-6.6,1.6-9.9,2.3-13.7,2.3s-3.6-.2-5.7-.5c-5.1-.8-20.6-3.1-29.3-13.9-10.6-13.2-6.3-34.2-2.8-51.1,2-9.9,8.3-40,34.5-63.5,10.2-9.2,20.9-15.1,32.9-19.2,15.6-5.4,33.5-8,55.6-11.2,11.5-1.7,25.7-3.7,41.2-3.7s23.2,1.2,34.8,3.6c26.8,5.5,52.8,17.4,75.2,34.4,2.7,2.6,5.8,5.7,9.1,9.4,13.7,15.4,30.3,40.1,35.2,72.7,2.8,18.7,8,53.6-13.8,76.9Z"/></g></g></svg>