<?xml version="1.0" encoding="UTF-8"?><svg id="uuid-62a284ae-041e-47a1-98e3-8c133d98fcd2" xmlns="http://www.w3.org/2000/svg" width="512" height="512" viewBox="0 0 512 512"><defs><style>.uuid-977a3e95-b64d-45c1-af33-50ec4a7792db{fill:#b7a097;}.uuid-977a3e95-b64d-45c1-af33-50ec4a7792db,.uuid-d66d7065-ac0a-4ffa-b743-84f4a2c06b70,.uuid-4c85e9c2-1ac3-49af-a5cf-913e71cdefd9,.uuid-2c8bb970-3f1d-4c5d-9aa9-37d0d747fa4c,.uuid-9b8ac3e5-4c7a-4134-911e-288b3865f8c2,.uuid-51a49f71-9286-49b5-b150-3bf7797689f8{stroke-width:0px;}.uuid-d66d7065-ac0a-4ffa-b743-84f4a2c06b70{fill:#fcede8;}.uuid-4c85e9c2-1ac3-49af-a5cf-913e71cdefd9{fill:#e5c9be;}.uuid-2c8bb970-3f1d-4c5d-9aa9-37d0d747fa4c{fill:#fff;}.uuid-9b8ac3e5-4c7a-4134-911e-288b3865f8c2{fill:#c08a61;}.uuid-51a49f71-9286-49b5-b150-3bf7797689f8{fill:#a38b7f;opacity:.7;}</style></defs><g id="uuid-78c28bde-55b4-4c1f-9f7c-eb0af4048a6f"><g id="uuid-f326e49c-966d-4405-a71c-7cb0e041e7a2"><g id="uuid-ad3869b3-b2d0-40aa-8abf-196c8c5c1ee7"><path class="uuid-977a3e95-b64d-45c1-af33-50ec4a7792db" d="m398,321.4c-11,24.9-15.1,52.3-11.9,79.4,1.9,17.6,5.4,35,10.5,52,2.7,8.8,6.1,17.4,10.2,25.6,5.1,7.8,9.7,15.8,13.7,24.1l-215.6.6h0c-.7-2.6-13.7-52.8-42.3-65.7-5.3,1.9-11,3.8-16.7,5.7-19.1,6.6-38.5,12.2-58.2,16.7-5.4,1.3-11.1.5-16-2.2-5.5-3.4-9.6-8.6-11.6-14.8-2.2-6.1-3.1-12.6-2.4-19,2-6.6,2.6-13.5,2-20.3-2.2-8.6-10.5-10.8-17-15.4-5.3-3.8,4.2-15.8,4.2-15.8,0,0-10.1-7.4-13.7-10.7-3.8-3.1,1.5-8.4,6.3-18.3,1.9-4.3,2.5-9.2,1.6-13.8-1.8-9.1-15.7-12.6-22.6-17.7-3.3-2.4-8.5-6-9.1-10.3-.9-6.1,6.3-14.6,9.8-18.9,15-19.2,27.8-39.9,38.3-61.9,1.4-2.3,2.2-4.9,2.4-7.6-.2-12.2-18-17.2-19.6-29.1-.3-3.5.4-7,1.8-10.2,5-10.5,9.2-21.2,12.7-32.3,2.1-10.1,4.8-20.1,8.2-29.9,7.2-19.6,18.3-37.6,32.6-52.9,21-22.1,52.1-33,81.5-38.8,26.1-5.7,52.6-9.5,79.3-11.5.9,0,1.7,0,2.6-.2,55-2.7,98.4,15.8,141,48.9,23.2,17.2,40.2,41.4,48.4,69,6.2,22.8,9.2,46.4,8.7,70-.2,23.3-7,46.1-19.8,65.7-12.8,20.1-29.5,37.5-39.3,59.4Z"/><path class="uuid-2c8bb970-3f1d-4c5d-9aa9-37d0d747fa4c" d="m371.6,321.8c-11,24.9-15.1,52.3-11.9,79.4,1.9,17.6,5.4,35,10.5,52,2.7,8.8,6.1,17.4,10.2,25.6,5.1,7.8,9.7,15.8,13.7,24.1l-165.2.4h-24.7c-.6-2.2-11-42.3-33.6-60.2-2.7-2.1-5.6-3.9-8.8-5.4-.3,0-.4.2-.7.3-5.2,1.8-10.6,3.6-16.1,5.5,0,0-.3-.2-.3-.3-2.6-2.2-5.5-4.1-8.7-5.5-14.5,5-31.3,10.6-46.6,15.1-6.5,2-12.8,3.7-18.6,5.1-5.5-3.4-9.6-8.6-11.6-14.8-2.2-6.1-3.1-12.6-2.4-19,2-6.6,2.6-13.5,2-20.3-2.2-8.6-10.5-10.8-17-15.4-5.3-3.8,4.2-15.8,4.2-15.8,0,0-10.1-7.4-13.7-10.7-3.8-3.1,1.5-8.4,6.3-18.3,1.9-4.3,2.5-9.2,1.6-13.8-1.8-9.1-15.7-12.6-22.6-17.7-3.3-2.4-8.5-6-9.1-10.3-.9-6.1,6.3-14.6,9.8-18.9,15-19.2,27.8-39.9,38.3-61.9,1.4-2.3,2.2-4.9,2.4-7.6-.2-12.2-18-17.2-19.6-29.1-.3-3.5.4-7,1.8-10.2,5-10.5,9.2-21.2,12.7-32.3,2.1-10.1,4.8-20.1,8.2-29.9,7.2-19.6,18.3-37.6,32.6-52.9,21-22.1,52.1-33,81.5-38.8,26.1-5.7,52.6-9.5,79.3-11.5,3.9.3,7.6.6,11.3,1.1,39.3,5.6,76.2,22.1,106.5,47.6,23.2,17.2,40.2,41.4,48.4,69,6.2,22.8,9.2,46.4,8.7,70-.2,23.3-7,46.1-19.8,65.7-12.8,20.1-29.5,37.5-39.3,59.4Z"/><path class="uuid-d66d7065-ac0a-4ffa-b743-84f4a2c06b70" d="m371.6,321.8c-11,24.9-15.1,52.3-11.9,79.4,1.9,17.6,5.4,35,10.5,52,2.7,8.8,6.1,17.4,10.2,25.6,5.1,7.8,9.7,15.8,13.7,24.1l-165.2.4c-.9-3.2-13.9-52.7-42.3-65.5-5.1,1.8-10.4,3.6-15.9,5.4-.3.2-.6.3-.9.3-2.6-2.2-5.5-4.1-8.6-5.5-.2,0-.3-.2-.4-.3-5.1,1.8-10.5,3.6-16,5.5-16.7,5.5-34.7,11.2-49.1,14.8-2.3-1.3-4.4-3.1-6.1-5.1-2.4-2.8-4.3-6.1-5.5-9.6-2.2-6.1-3.1-12.6-2.4-19,2-6.6,2.6-13.5,2-20.3-2.2-8.6-10.5-10.8-17-15.4-5.3-3.8,4.2-15.8,4.2-15.8,0,0-10.1-7.4-13.7-10.7-3.8-3.1,1.5-8.4,6.3-18.3,1.9-4.3,2.5-9.2,1.6-13.8-1.8-9.1-15.7-12.6-22.6-17.7-3.3-2.4-8.5-6-9.1-10.3-.9-6.1,6.3-14.6,9.8-18.9,15-19.2,27.8-39.9,38.3-61.9,1.4-2.3,2.2-4.9,2.4-7.6-.2-12.2-18-17.2-19.6-29.1-.3-3.5.4-7,1.8-10.2,5-10.5,9.2-21.2,12.7-32.3,2.1-10.1,4.8-20.1,8.2-29.9,7.2-19.6,18.3-37.6,32.6-52.9,21-22.1,52.1-33,81.5-38.8,21.8-4.7,43.8-8.1,66-10.4,39.3,5.6,76.2,22.1,106.5,47.6,23.2,17.2,40.2,41.4,48.4,69,6.2,22.8,9.2,46.4,8.7,70-.2,23.3-7,46.1-19.8,65.7-12.8,20.1-29.5,37.5-39.3,59.4Z"/><path class="uuid-2c8bb970-3f1d-4c5d-9aa9-37d0d747fa4c" d="m33.4,171.3c3.6-9.3,8-17.4,10.7-25.3.7-2,1.3-3.9,1.7-5.8l1.6-6.7c1.1-4.5,2.2-9.2,3.5-13.8,5.5-18.8,14.3-36.4,26.1-52.2,3.6-4.9,7.6-9.5,11.7-13.9l12.5,11.7c-3.7,3.9-7.2,8.1-10.4,12.4-10.5,14.1-18.4,29.9-23.3,46.6-1.2,4.3-2.3,8.6-3.3,13.1l-1.6,6.7c-.6,2.6-1.4,5.1-2.2,7.5-3.4,9.6-7.8,17.9-10.8,25.9l-16.1-6.1Z"/><g id="uuid-b7621171-fe36-48c9-b3d9-07157ec8bce9"><path class="uuid-9b8ac3e5-4c7a-4134-911e-288b3865f8c2" d="m55.2,106.7c-.8,2.2-.8,4.7.1,6.8l.9,1.4c.3.5.8.9,1.2,1.2.4.4.8.7,1.3,1,.5.3,1,.5,1.6.7,2.2.6,4.5.5,6.6-.4,1-.5,1.8-1.1,2.6-1.9,2.3-2.4,2.9-5.9,1.6-8.9-.5-1-1.1-1.9-1.9-2.7-.8-.8-1.7-1.5-2.7-1.9-2.1-.9-4.5-1-6.6-.1-2.2,1-3.8,2.8-4.7,4.9Z"/><path class="uuid-9b8ac3e5-4c7a-4134-911e-288b3865f8c2" d="m285.7.7c-9.1-.7-18.4-.9-27.9-.4-27.9,1.9-55.7,5.9-83.1,11.8-38.7,7.7-66.9,21.2-86.1,41.3,0,0,0,0,0,0-4.2,4.4-8,9-11.7,13.9-1.8,2.4-3.6,4.9-5.2,7.4-1.3,1.9-1.8,4.3-1.3,6.5.5,2.3,1.9,4.2,3.9,5.4,4,2.3,9.1,1.2,11.7-2.6,1.5-2.3,3-4.5,4.6-6.6,3.2-4.3,6.7-8.5,10.4-12.4h0c16.4-17.2,42.3-29.5,77-36.3,26.5-5.8,53.5-9.6,80.6-11.5,8.7-.4,17.2-.3,25.5.4,3.8.3,7.4-1.9,8.8-5.5,2-5.3-1.6-11.1-7.2-11.5Z"/><path class="uuid-9b8ac3e5-4c7a-4134-911e-288b3865f8c2" d="m428.1,500.3c-2.1-5.8-5.1-11.2-8.7-16.2-2.1-2.9-3.9-6-5.6-9.2-3.9-7.8-7.1-15.9-9.7-24.3-3.5-11.8-7.1-33-9-44.3-.7-4.3-4.5-7.3-8.9-7.1-5.1.2-8.5,4.8-8.1,9.9.9,13.4,5,33.4,9.6,46.6,3.2,9.1,6.4,18.1,10.7,26.7,2,3.9,4.2,7.6,6.7,11.2l.6.8-194.8.5c-5.7-20.2-16-38.9-30.2-54.5l7.7-2.7c5.7-2,10.1-3.5,12.3-4.2,36.8-11.6,55.2-28.2,54.7-49.5-.1-4.6-3.9-8.3-8.6-8.3h-.2c-2.3,0-4.5,1-6,2.6-1.6,1.6-2.4,3.8-2.4,6.1.2,8.8-7,21.6-42.7,32.8-2.3.7-6.8,2.3-12.8,4.4-6.3,2.2-14.3,5-23.2,8,0,0-.2,0-.3,0-24.2,8.8-48.8,16.2-73.9,22.2-8,1.5-15.8-3.5-17.7-11.4-1.8-4.9-2.5-10.1-2-15.2.2-1.8.6-3.6,1-5.4,1.8-5.9,2-12.1.7-18.2-2.5-7.8-8.3-14.2-15.9-17.5l-1.8-1c.9-1.9,2-3.6,3.3-5.3,1.5-1.8,2.1-4.1,1.8-6.4-.3-2.3-1.5-4.4-3.4-5.8-2.1-1.5-6.9-5.1-10.5-8,.4-.7.9-1.6,1.3-2.3,1.3-2.3,2.9-5.1,4.4-8.2,2.7-6,3.5-12.6,2.3-19.1-2.1-10.4-12.1-15.5-19.4-19.2-2.5-1.2-4.8-2.5-7.1-4.1-1.8-1.2-3.6-2.6-5.2-4.1,0-1.3,1.4-4.4,7.9-12.3,15.4-19.7,28.6-40.9,39.3-63.4,2-3.5,3.1-7.5,3.3-11.5-.9-8.6-5.5-16.4-12.5-21.3-3.5-3.2-6.7-6.2-7.1-8.9,0-2,.5-4,1.3-5.8h0c5-10.6,9.3-21.6,12.9-32.7.5-2.2.2-4.5-1-6.5-1.2-1.9-3.1-3.3-5.4-3.9-4.6-1-9.2,1.8-10.3,6.3-3.3,10-7.2,19.9-11.7,29.5-.2.3-.3.6-.4.9,0,0,0,.2-.1.3h0s0,0,0,0c-2,4.5-2.8,9.4-2.3,14.3,1.7,7.6,6.2,14.4,12.5,19.1,4.2,3.8,7,6.5,7,8.9-.3,1.3-.8,2.5-1.5,3.7-10.3,21.5-22.9,41.9-37.6,60.7-6.2,7.5-12.8,16.3-11.4,25.1,1.8,6.8,6.3,12.6,12.5,16,2.8,1.9,5.8,3.7,8.9,5.1,3.7,1.9,9.9,5,10.4,7.3.5,2.9.2,5.9-1,8.6-1.3,2.7-2.6,5.1-3.8,7.1-3.1,5.5-8.4,14.8-.5,21.2,1.9,1.7,5.1,4.2,8,6.4-2.1,3.7-3.1,8-2.8,12.3.5,3.4,2.3,6.4,5.1,8.4,1.9,1.3,3.9,2.5,5.9,3.6,5.1,2.9,7,4.2,7.7,6.9.5,3.4.2,6.9-.9,10.2-.5,2.3-1,4.6-1.3,6.8-.9,7.8.1,15.6,2.8,23,3.9,13.5,16.2,23,30.4,23.3,2.4,0,4.8-.3,7.1-.8,24.5-5.8,48.7-13,72.5-21.5,19.3,11.3,31.5,45.6,34.7,58.4.9,3.8,4.4,6.5,8.3,6.5h0s215.6-.6,215.6-.6c2.7,0,5.3-1.3,6.9-3.5s2.1-5,1.3-7.6ZM37.9,355.5h0c0,0,.2.2.3.2l-.3-.2Z"/></g><path class="uuid-977a3e95-b64d-45c1-af33-50ec4a7792db" d="m77.3,187.7c4.7,0,8.6-3.8,8.6-8.5s-3.8-8.5-8.6-8.5-8.6,3.8-8.6,8.5,3.8,8.5,8.6,8.5Z"/><path class="uuid-977a3e95-b64d-45c1-af33-50ec4a7792db" d="m87.6,158.4c-2.6,0-5.1-1.2-6.7-3.2-1.6-2-2.2-4.7-1.6-7.3l.9-3.7c1.7-7.8,3.8-15.5,6.4-23.1,6-16.4,15.2-31.5,27.2-44.3,13.2-12.6,29.4-21.6,47.1-26.2,3-1,6.2-.3,8.5,1.8,2.3,2.1,3.3,5.3,2.5,8.3s-3,5.4-6,6.2c-14.8,3.7-28.5,11.2-39.6,21.6-10.4,11.1-18.4,24.2-23.6,38.4-2.3,6.9-4.2,13.9-5.7,21.1l-.9,3.7c-.9,3.9-4.4,6.6-8.4,6.6Z"/></g><path class="uuid-4c85e9c2-1ac3-49af-a5cf-913e71cdefd9" d="m495.9,176.9v8.5c0,22.4-18.4,40.7-41,40.7h-40v-.4c0,0,8.2-38.4,8.2-38.4,1-4.6-.2-9.2-3.1-12.9-2.9-3.6-7.3-5.7-12-5.7l-88.5-.4c-8.1,0-14.8,6-15.5,14l-4.1,43.4v.4h-49.3c-22.6,0-41-18.3-41-40.7v-8.5c0-22.4,18.4-40.7,41-40.7h3.8c2.3.9,4.6.8,6.5,0,4.3-1.9,6.5-7.5,2.3-12.4,0,0-.1-.1-.2-.2-1-1.1-1.9-2.2-2.7-3.4-5.7-7.8-8.9-17.4-8.6-27.9.9-22.4,18.8-41,41.3-42.6,8.5-.6,16.6,1.1,23.6,4.7.6.3,1.1.6,1.7.9.5.3,1.1.6,1.6.9,1.1.6,2.1,1.3,3.1,2.1,3,2.2,7.2,1.7,9.5-1,.2-.2.4-.5.5-.7.2-.3.4-.6.5-.9,0,0,0,0,0,0,.3-.7.6-1.3,1-2s.7-1.3,1-1.9c0,0,0,0,0,0,.5-.9,1-1.7,1.5-2.6,11.9-19.7,33.6-32.9,58.4-33,36.9,0,66.9,28.4,68.3,65.1.6,14.4-3.4,27.8-10.6,39-.3.5-.7,1-1,1.5-.7,1-1.6,2.1-2.5,3.2-3.8,4.4-.6,11.2,5.3,11.2s1,0,1.6,0c.5,0,1,0,1.6,0h0c.4,0,.9,0,1.3.1l1.7.2c19.7,3,34.8,19.9,34.8,40.2Z"/><path class="uuid-51a49f71-9286-49b5-b150-3bf7797689f8" d="m395.8,175.8h15.2l-15.2,69.2,15.2,19.2-26.3-12.2c-4.7-2.2-7.2-7.5-5.9-12.6l17-63.7Z"/><path class="uuid-51a49f71-9286-49b5-b150-3bf7797689f8" d="m401.9,16.3c12-1.3,24.6.7,42.1,14.4,4.8,3.7,19.9,16.6,24.4,39,5.8,29-10.9,50.8-13.6,54.1,6,1.1,17.8,4.3,28.5,14,1.4,1.3,23.7,22.1,18.3,48.9-4.5,22.6-26.9,40.5-54.5,41.5,2.2-1.1,25.7-12.9,30.2-40,.4-2.2,3.9-26.6-14.2-45.6-12.5-13.1-27.9-15.9-32.8-16.5,3.6-5.1,16.9-25.3,13.4-52.3-4.9-38-38.7-55.9-41.9-57.5Z"/><path class="uuid-9b8ac3e5-4c7a-4134-911e-288b3865f8c2" d="m250.6,226.1c-22.6,0-41-18.3-41-40.7v-8.5c0-22.4,18.4-40.7,41-40.7h10.3c4.3-1.9,6.5-7.5,2.3-12.4,0,0-.1-.1-.2-.2-1-1.1-1.9-2.2-2.7-3.4h-9.7c-3,0-5.9.2-8.8.7-27.4,4.2-48.3,27.7-48.3,56v8.5c0,21.5,12,40.2,29.7,49.8,8.1,4.4,17.4,6.9,27.3,6.9h64.1l.7-6.9.9-9.1h-65.6Zm219.9-103.7h0c-5-1.4-10.2-2.1-15.6-2.1h-1.7c-.3.5-.7,1-1,1.5-.7,1-1.6,2.1-2.5,3.2-3.8,4.4-.6,11.2,5.3,11.2s1,0,1.6,0c.5,0,1,0,1.6,0h0c.4,0,.9,0,1.3.1l1.7.2c19.7,3,34.8,19.9,34.8,40.2v8.5c0,22.4-18.4,40.7-41,40.7h-56.2l-1.9,9.1-1.5,6.9h59.6c9.9,0,19.2-2.5,27.3-6.9,17.7-9.6,29.7-28.3,29.7-49.8v-8.5c0-25.9-17.5-47.8-41.4-54.5Z"/><path class="uuid-9b8ac3e5-4c7a-4134-911e-288b3865f8c2" d="m479.9,79.4c-1.5-28-17-52.4-39.5-66.5-12.3-7.7-26.6-12.3-41.9-12.7-17.5-.5-33.9,4.2-47.6,12.7-11,6.9-20.3,16.2-27.1,27.1-2.8,4.5-5.2,9.3-7.1,14.4.6.3,1.1.6,1.7.9.5.3,1.1.6,1.6.9,1.1.6,2.1,1.3,3.1,2.1,3,2.2,7.2,1.6,9.5-1,.2-.2.4-.5.5-.7.2-.3.4-.6.5-.9,0,0,0,0,0,0,.3-.7.6-1.3,1-2s.6-1.3,1-1.9c0,0,0,0,0,0,.5-.9,1-1.7,1.5-2.6,11.9-19.7,33.6-32.9,58.4-33,36.9,0,66.9,28.4,68.3,65.1.6,14.4-3.4,27.8-10.6,39-.3.5-.7,1-1,1.5-.7,1-1.6,2.1-2.5,3.2-3.8,4.4-.6,11.2,5.3,11.2s1,0,1.6,0c.5,0,1,0,1.6,0h0c.4,0,.9,0,1.3.1l1.7.2c3.6-4.4,6.8-9.2,9.4-14.3h0c6.7-12.8,10.1-27.4,9.3-43Z"/><path class="uuid-9b8ac3e5-4c7a-4134-911e-288b3865f8c2" d="m334.7,47c-3.4-2.7-7-5.1-11-7-9-4.5-19.2-6.8-30-6.3-31.5,1.4-56.9,26.9-58.1,58.1-.4,11,1.7,20.6,6.2,29.1,2.5,4.8,5.9,9.3,9.9,13.4l1,1c.2.2.5.4.8.6.3.1.5.2.8.3,2.3.9,4.6.8,6.5,0,4.3-1.9,6.5-7.5,2.3-12.4,0,0-.1-.1-.2-.2-1-1.1-1.9-2.2-2.7-3.4-5.7-7.8-8.9-17.4-8.6-27.9.9-22.4,18.8-41,41.3-42.6,8.5-.6,16.6,1.1,23.6,4.7.6.3,1.1.6,1.7.9.5.3,1.1.6,1.6.9,1.1.6,2.1,1.3,3.1,2.1,3,2.2,7.2,1.7,9.5-1,.2-.2.4-.5.5-.7.2-.3.4-.6.5-.9,0,0,0,0,0,0,.3-.7.6-1.3,1-2s.7-1.3,1-1.9c0,0,0,0,0,0,.8-1.5.5-3.5-.9-4.6Z"/><path class="uuid-9b8ac3e5-4c7a-4134-911e-288b3865f8c2" d="m439.8,265.8c-1.2-4.2-4.3-7.7-8.3-9.6l-20.9-9.8.9-4.4v-.4c0,0,1.5-6.5,1.5-6.5l1.9-9.1v-.4c0,0,8.2-38.4,8.2-38.4,1-4.6-.2-9.2-3.1-12.9-2.9-3.6-7.3-5.7-12-5.7l-88.5-.4c-8.1,0-14.8,6-15.5,14l-4.1,43.4v.4s-.9,9.1-.9,9.1l-.6,6.5v.4s-1.9,19.6-1.9,19.6c-.6,6.7,3.3,13.2,9.7,15.7l55.9,22.4,5,49.2c.6,7.4.3,17.6,10.9,19.5,9.3,1.7,14.5-8,17.7-13.7l42.4-76.6c2.3-3.7,2.9-8.3,1.7-12.5Zm-56.4,79.7l-5.4-48.4c-.8-5.4-4.5-10-9.6-12l-55.8-22.3,2-20.7v-.4s.7-6.5.7-6.5l.9-9.1v-.4s3.9-41.4,3.9-41.4l87.3.4-8.7,41-2,9.5-1.4,6.5-.4,2c-1.5,7,2,14.1,8.6,17.1l20.7,9.7-40.7,75.1Z"/></g></g></svg>