<?xml version="1.0" encoding="UTF-8"?><svg id="uuid-2bb5f99f-0a9c-40ca-86cf-128ffb897d1a" xmlns="http://www.w3.org/2000/svg" width="512" height="512" viewBox="0 0 512 512"><defs><style>.uuid-03ebca48-81dd-4e8e-92c5-e412d0ff296f{fill:#a38b7f;}.uuid-03ebca48-81dd-4e8e-92c5-e412d0ff296f,.uuid-6c535471-b6e1-4bf4-929d-30d22846d7a1,.uuid-397f8120-a91e-4fb9-af18-2765391d6b28,.uuid-eeb604fc-6e0d-4e0e-9035-8f167f1681fb,.uuid-8a0b5a8a-538f-463f-b60e-7ed9448bb2ca,.uuid-d40526b2-cc5f-40a2-b478-569afca48c5f{stroke-width:0px;}.uuid-6c535471-b6e1-4bf4-929d-30d22846d7a1{fill:#b7a097;}.uuid-397f8120-a91e-4fb9-af18-2765391d6b28{fill:#fcede8;}.uuid-eeb604fc-6e0d-4e0e-9035-8f167f1681fb{fill:#e5c9be;}.uuid-8a0b5a8a-538f-463f-b60e-7ed9448bb2ca{fill:#fff;}.uuid-d40526b2-cc5f-40a2-b478-569afca48c5f{fill:#c08a61;}</style></defs><g id="uuid-d07dbcc5-2d3f-4db2-bd19-91d25a82c5a1"><g id="uuid-9ff9ec00-46e1-43a1-a839-3264aaacce24"><g id="uuid-b5934f7e-d4e6-49ba-b9c7-4bb07d8ae52e"><path class="uuid-6c535471-b6e1-4bf4-929d-30d22846d7a1" d="m401.2,321c-11.1,25-15.2,52.4-12,79.5,1.9,17.6,5.5,35.1,10.6,52.1,2.7,8.8,6.2,17.4,10.3,25.6,5.1,7.8,9.8,15.9,13.9,24.2l-217.3.6h0c-.7-2.7-13.8-52.9-42.7-65.8-5.4,1.9-11.1,3.8-16.9,5.7-19.2,6.6-38.8,12.2-58.6,16.8-5.5,1.3-11.2.5-16.1-2.2-5.6-3.4-9.7-8.6-11.7-14.8-2.3-6.1-3.1-12.6-2.4-19.1,2-6.6,2.7-13.5,2-20.3-2.3-8.6-10.6-10.8-17.1-15.4-5.4-3.8,4.2-15.8,4.2-15.8,0,0-10.2-7.4-13.9-10.7-3.8-3.1,1.6-8.4,6.3-18.4,2-4.3,2.5-9.2,1.6-13.8-1.8-9.1-15.8-12.7-22.8-17.7-3.3-2.4-8.6-6-9.2-10.3-1-6.1,6.3-14.6,9.9-18.9,15.1-19.2,28.1-40,38.6-62,1.4-2.3,2.2-4.9,2.4-7.6-.2-12.2-18.1-17.3-19.7-29.2-.3-3.5.4-7,1.8-10.2,5-10.5,9.3-21.3,12.8-32.3,2.1-10.1,4.9-20.1,8.2-29.9,7.3-19.7,18.5-37.7,32.9-53,21.2-22.1,52.6-33.1,82.2-38.9,26.3-5.7,53-9.5,79.9-11.5.9,0,1.7,0,2.6-.2,55.4-2.7,98.8,13,141.8,46.2,23.4,17.2,40.9,44.3,49.1,71.9,6.3,22.8,9.2,46.4,8.7,70.1-.2,23.4-7.1,46.2-19.9,65.8-12.9,20.1-29.8,37.5-39.6,59.5Z"/><path class="uuid-8a0b5a8a-538f-463f-b60e-7ed9448bb2ca" d="m370.1,319.5c-11.1,25-10.8,54.3-7.6,81.4,1.9,17.6,5.5,35.1,10.6,52.1,2.7,8.8,6.2,17.4,10.3,25.6,5.1,7.8,9.8,15.9,13.9,24.2l-166.5.4h-24.9c-.6-2.2-11.1-42.4-33.9-60.3-2.7-2.1-5.7-4-8.8-5.4-.3,0-.4.2-.7.3-5.2,1.8-10.7,3.6-16.2,5.5,0,0-.3-.2-.3-.3-2.6-2.2-5.6-4.1-8.7-5.5-14.6,5-31.5,10.6-46.9,15.1-6.6,2-12.9,3.7-18.7,5.1-5.6-3.4-9.7-8.6-11.7-14.8-2.3-6.1-3.1-12.6-2.4-19.1,2-6.6,2.7-13.5,2-20.3-2.3-8.6-10.6-10.8-17.1-15.4-5.4-3.8,4.2-15.8,4.2-15.8,0,0-10.2-7.4-13.9-10.7-3.8-3.1,1.6-8.4,6.3-18.4,2-4.3,2.5-9.2,1.6-13.9-1.8-9.1-15.8-12.7-22.8-17.7-3.3-2.4-8.6-6-9.2-10.3-1-6.1,6.3-14.6,9.9-18.9,15.1-19.2,28.1-40,38.6-62,1.4-2.3,2.2-4.9,2.4-7.6-.2-12.2-18.1-17.3-19.7-29.2-.3-3.5.4-7,1.8-10.2,5-10.5,9.3-21.3,12.8-32.3,2.1-10.1,4.9-20.1,8.2-29.9,7.3-19.7,18.5-37.7,32.9-53,21.2-22.1,52.6-33.1,82.2-38.9,26.3-5.7,53-9.5,79.9-11.5,3.9.3,7.7.6,11.4,1.1,39.6,5.7,73.6,29.2,104.1,54.7,23.4,17.2,43.8,34.5,52,62.2,6.3,22.8,9.2,46.4,8.7,70.1-.2,23.4-15.5,43.6-28.4,63.2-12.9,20.1-25.8,38.2-35.6,60.2Z"/><path class="uuid-397f8120-a91e-4fb9-af18-2765391d6b28" d="m370.1,319.5c-11.1,25-10.8,54.3-7.6,81.4,1.9,17.6,5.5,35.1,10.6,52.1,2.7,8.8,6.2,17.4,10.3,25.6,5.1,7.8,9.8,15.9,13.9,24.2l-166.5.4c-.9-3.2-14-52.8-42.7-65.7-5.1,1.8-10.5,3.6-16,5.4-.3.2-.6.3-.9.3-2.6-2.2-5.5-4.1-8.7-5.5-.2,0-.3-.2-.4-.3-5.1,1.8-10.6,3.6-16.1,5.5-16.9,5.6-35,11.2-49.5,14.8-2.4-1.3-4.4-3.1-6.1-5.1-2.5-2.8-4.3-6.1-5.5-9.7-2.3-6.1-3.1-12.6-2.4-19.1,2-6.6,2.7-13.5,2-20.3-2.3-8.6-10.6-10.8-17.1-15.4-5.4-3.8,4.2-15.8,4.2-15.8,0,0-10.2-7.4-13.9-10.7-3.8-3.1,1.6-8.4,6.3-18.4,2-4.3,2.5-9.2,1.6-13.9-1.8-9.1-15.8-12.7-22.8-17.7-3.3-2.4-8.6-6-9.2-10.3-1-6.1,6.3-14.6,9.9-18.9,15.1-19.2,28.1-40,38.6-62,1.4-2.3,2.2-4.9,2.4-7.6-.2-12.2-18.1-17.3-19.7-29.2-.3-3.5.4-7,1.8-10.2,5-10.5,9.3-21.3,12.8-32.3,2.1-10.1,4.9-20.1,8.2-29.9,7.3-19.7,18.5-37.7,32.9-53,21.2-22.1,52.6-33.1,82.2-38.9,22-4.7,44.2-8.2,66.5-10.4,39.6,5.7,73.6,29.2,104.1,54.7,23.4,17.2,43.8,34.5,52,62.2,6.3,22.8,9.2,46.4,8.7,70.1-.2,23.4-18,46-30.9,65.7-15,19.9-25.3,34.9-33.1,57.7Z"/><path class="uuid-8a0b5a8a-538f-463f-b60e-7ed9448bb2ca" d="m33.7,170.6c3.6-9.3,8-17.5,10.7-25.4.7-2,1.3-3.9,1.7-5.8l1.6-6.8c1.1-4.5,2.2-9.2,3.6-13.9,5.5-18.8,14.4-36.5,26.3-52.3,3.7-4.9,7.6-9.5,11.8-14l12.6,11.7c-3.7,3.9-7.3,8.1-10.5,12.4-10.6,14.1-18.5,29.9-23.5,46.7-1.2,4.3-2.3,8.6-3.4,13.1l-1.6,6.8c-.6,2.6-1.4,5.1-2.2,7.5-3.4,9.6-7.9,18-10.9,25.9l-16.2-6.1Z"/><g id="uuid-f3b7f7f6-6f88-44ff-b49e-3155de977790"><path class="uuid-d40526b2-cc5f-40a2-b478-569afca48c5f" d="m55.7,105.9c-.9,2.2-.8,4.7.1,6.8l.9,1.4c.4.5.8.9,1.2,1.2.4.4.8.7,1.3,1,.5.3,1.1.5,1.6.7,2.2.6,4.5.5,6.6-.4,1-.5,1.9-1.1,2.6-1.9,2.3-2.4,2.9-5.9,1.6-8.9-.5-1-1.1-1.9-1.9-2.7-.8-.8-1.7-1.5-2.7-1.9-2.1-.9-4.5-1-6.7-.1-2.2,1-3.9,2.8-4.7,5Z"/><path class="uuid-d40526b2-cc5f-40a2-b478-569afca48c5f" d="m288.7,4c-8.9-2.2-19.2-3.2-28.8-2.7-28.2,1.9-56.2,3.9-83.8,9.9-39,7.7-67.4,21.2-86.8,41.4,0,0,0,0,0,0-4.2,4.4-8.1,9-11.8,13.9-1.8,2.4-3.6,4.9-5.2,7.4-1.3,1.9-1.8,4.3-1.3,6.6.5,2.3,1.9,4.2,4,5.4,4,2.3,9.1,1.2,11.8-2.6,1.5-2.3,3.1-4.5,4.7-6.6,3.3-4.4,6.8-8.5,10.5-12.5h0c16.6-17.3,42.7-29.6,77.6-36.4,26.8-5.8,53.9-9.7,81.2-11.6,8.8-.4,17.3,2.7,25.7,3.4,3.9.3,7.5-1.9,8.8-5.5,2-5.3-1.1-8.9-6.6-10.2Z"/></g><path class="uuid-6c535471-b6e1-4bf4-929d-30d22846d7a1" d="m77.9,187.1c4.8,0,8.7-3.8,8.7-8.5s-3.9-8.5-8.7-8.5-8.7,3.8-8.7,8.5,3.9,8.5,8.7,8.5Z"/><path class="uuid-6c535471-b6e1-4bf4-929d-30d22846d7a1" d="m88.3,157.7c-2.6,0-5.1-1.2-6.8-3.2-1.6-2-2.2-4.7-1.6-7.3l.9-3.7c1.7-7.8,3.8-15.6,6.4-23.1,6-16.5,15.4-31.5,27.4-44.3,13.3-12.6,29.6-21.7,47.5-26.3,3-1,6.3-.3,8.6,1.8,2.3,2.1,3.3,5.3,2.6,8.3s-3.1,5.4-6.1,6.2c-14.9,3.7-28.7,11.2-39.9,21.6-10.5,11.1-18.5,24.2-23.8,38.5-2.3,6.9-4.3,14-5.8,21.1l-.9,3.7c-.9,3.9-4.4,6.6-8.4,6.6Z"/><path class="uuid-d40526b2-cc5f-40a2-b478-569afca48c5f" d="m462.9,187.9c-4,1.1-6.6,5-5.9,9.1,1.9,10.8,1.4,10.3-1.5,20.1-4.2,14.2-12.2,22.4-23.3,33.7-5.9,6.1-12.7,13-20,22-4.7,5.8-29.7,37.2-35.3,77.7-1.4,10.6-3.6,39.4,8.9,87.4h0c1.5,6.3,3.2,12.5,5,17.6,3.2,9.1,6.4,18.1,10.7,26.8,2,3.9,4.2,7.6,6.7,11.2l.6.9-196.4.5c-5.7-20.3-16.1-39-30.4-54.6l7.8-2.7c5.8-2,10.2-3.5,12.4-4.2,37.1-11.6,55.6-28.3,55.1-49.6-.1-4.6-4-8.3-8.7-8.3h-.2c-2.3,0-4.5,1-6.1,2.6-1.6,1.6-2.5,3.8-2.4,6.1.2,8.8-7.1,21.6-43.1,32.9-2.3.7-6.9,2.3-12.9,4.4-6.4,2.2-14.5,5-23.4,8,0,0-.2,0-.3,0-24.4,8.8-49.2,16.2-74.5,22.2-8.1,1.5-15.9-3.5-17.8-11.4-1.8-4.9-2.5-10.1-2-15.3.2-1.8.6-3.6,1-5.4,1.8-5.9,2-12.2.8-18.2-2.5-7.9-8.4-14.2-16-17.5l-1.8-1c.9-1.9,2.1-3.6,3.3-5.3,1.5-1.8,2.1-4.1,1.8-6.4-.3-2.3-1.5-4.4-3.4-5.8-2.1-1.5-7-5.1-10.6-8,.4-.7.9-1.6,1.3-2.3,1.4-2.4,2.9-5.1,4.4-8.3,2.7-6,3.5-12.7,2.3-19.1-2.1-10.4-12.2-15.5-19.6-19.3-2.5-1.2-4.9-2.5-7.1-4.1-1.9-1.2-3.6-2.6-5.2-4.1,0-1.3,1.4-4.4,8-12.4,15.5-19.7,28.8-41,39.7-63.5,2-3.5,3.2-7.5,3.3-11.6-.9-8.6-5.5-16.4-12.7-21.4-3.5-3.2-6.8-6.2-7.2-9,0-2,.5-4,1.3-5.8h0c5-10.6,9.4-21.6,13-32.8.6-2.2.2-4.6-1-6.5-1.2-1.9-3.2-3.3-5.4-3.9-4.6-1-9.2,1.8-10.4,6.3-3.4,10.1-7.3,19.9-11.8,29.6-.2.3-.3.6-.4.9,0,0,0,.2-.1.3h0s0,0,0,0c-2,4.5-2.8,9.4-2.3,14.3,1.7,7.7,6.2,14.4,12.6,19.1,4.2,3.8,7,6.5,7,8.9-.3,1.3-.8,2.5-1.5,3.7-10.4,21.6-23.1,41.9-37.9,60.8-6.3,7.5-12.9,16.3-11.5,25.2,1.8,6.8,6.4,12.6,12.6,16.1,2.8,2,5.9,3.7,9,5.1,3.7,1.9,10,5.1,10.5,7.3.5,2.9.2,5.9-1,8.6-1.3,2.7-2.6,5.1-3.8,7.1-3.2,5.5-8.5,14.8-.5,21.3,1.9,1.7,5.1,4.2,8,6.4-2.2,3.7-3.1,8-2.8,12.3.5,3.4,2.3,6.4,5.1,8.4,1.9,1.3,4,2.5,6,3.6,5.1,2.9,7.1,4.2,7.8,6.9.5,3.4.2,6.9-.9,10.3-.5,2.3-1,4.6-1.3,6.8-.9,7.8.1,15.7,2.8,23,3.9,13.6,16.3,23,30.6,23.3,2.4,0,4.8-.3,7.1-.8,24.7-5.8,49.1-13,73.1-21.5,19.5,11.3,31.7,45.7,34.9,58.6.9,3.8,4.4,6.5,8.4,6.5h0s217.3-.6,217.3-.6c2.8,0,5.3-1.3,7-3.5s2.1-5,1.3-7.6c-2.1-5.8-5.1-11.3-8.8-16.2-2.1-3-3.9-6.1-5.6-9.3-3.9-7.8-7.4-15.9-9.8-24.3-24.9-89-14.5-123.4,17.5-167.6s13.3-15.1,19-21c11.7-12,21.8-22.4,27.1-40.3,3.7-12.3,4.3-14.1,2-27.4s-10.1-6.4-10.1-6.4ZM38.2,355.2h0c0,0,.2.2.3.2l-.3-.2Z"/></g><path class="uuid-eeb604fc-6e0d-4e0e-9035-8f167f1681fb" d="m495.8,98.6c-.6,44.1-24,76.1-45.9,102.7-25.1,30.4-57.3,54.2-98.5,72.6-2,.9-4.3.9-6.3-.1-28.6-14.2-65.6-35.5-98.4-74-28.2-33.2-47-63-47-101.1,0-28.2,7.9-51.5,22.3-65.7,10.7-10.5,24.6-15.8,41.3-15.8h.6c30.9.2,57.5,1.5,75.4,26.8,2.3,3.3,6.4,0,10.5,0l5.6-2.9c2,0-2.5,3.9-.7,2.9,1.8-.9,2.4,5.3,3.5,3.6,20-28.6,51.8-36.1,79.1-30.6,42,8.4,58.8,57.2,58.5,81.5Z"/><path class="uuid-03ebca48-81dd-4e8e-92c5-e412d0ff296f" d="m444.9,18.1c7.7-.6,23.1-.7,36.8,8.5,21.9,14.8,23.8,42.8,24.7,57.4,2.6,38.6-19.5,66.2-28.2,87.8-5.6,13.9-14.3,40-42,52.8-17.5,8.1-30.8,22.1-41.3,25.7,24.2-20.9,67.5-41.9,80.4-140.4,5.7-43.7-21.2-83.9-30.5-91.7Z"/><path class="uuid-03ebca48-81dd-4e8e-92c5-e412d0ff296f" d="m343.5,215.7h0c-4.5,0-8.1-3.6-8.1-8v-21.9l-18-21.2c-2.1-2.4-2.8-5.5-2.1-8.6.8-3.1,3-5.7,6.2-7l22.9-9.7-21.1-8.9c-4-1.7-6.4-5.2-6.4-9.3,0-4,2.4-7.6,6.4-9.3l21.1-9-22.6-9.3c-3.2-1.3-5.5-3.9-6.3-7.1-.7-3.1,0-6.2,2.2-8.7l27.5-31.7,12.3,10.4-22,25.3,28.1,11.5c4,1.6,6.5,5.2,6.6,9.3,0,4.1-2.4,7.6-6.4,9.3l-21.3,9.1,21.2,9c4,1.7,6.4,5.2,6.4,9.3,0,4.1-2.5,7.6-6.4,9.3l-28.5,12,14.1,16.6c1.5,1.8,2.4,4,2.4,6.3v24.2c0,4.4-3.6,8-8.1,8Z"/><path class="uuid-d40526b2-cc5f-40a2-b478-569afca48c5f" d="m495.5,42.5c-9.4-15.6-26.6-35.3-55-41-17-3.4-35.2-.7-52.6,7.8-15.3,7.5-29.1,18.9-40.1,33.3C327,15.4,298.8,1.5,264,1.3h-.7c-20.9,0-39.1,7.1-52.8,20.4-17.5,17.1-27.1,44.5-27.1,77,0,45.4,24.4,80.4,50.8,111.4,34.6,40.7,73.5,63.1,103.5,78,3.3,1.7,7,2.5,10.6,2.5s6.6-.7,9.8-2.1c43.6-19.5,77.7-44.7,104.4-77.1,25.4-30.8,48.9-65.7,49.6-112.6.2-17.5-6.1-39.2-16.5-56.4Zm-45.7,158.9c-25.1,30.4-57.3,54.2-98.5,72.6-2,.9-4.3.9-6.3-.1-28.6-14.2-65.6-35.5-98.4-74-28.2-33.2-47-63-47-101.1,0-28.2,7.9-51.5,22.3-65.7,10.7-10.5,24.6-15.8,41.3-15.8h.6c30.9.2,55.7,13.2,73.7,38.6,2.3,3.3,6.2,5.3,10.2,5.3h0c2,0,4-.5,5.8-1.4,1.8-.9,3.3-2.2,4.5-3.9,20-28.6,51.8-44.1,79.1-38.7,42,8.4,58.8,57.2,58.5,81.5-.6,44.1-24,76.1-45.9,102.7Z"/></g></g></svg>