<?xml version="1.0" encoding="UTF-8"?><svg id="uuid-d2e188d2-cd08-477f-9b21-00fa3ebcfd7b" xmlns="http://www.w3.org/2000/svg" width="512" height="512" viewBox="0 0 512 512"><defs><style>.uuid-3bb99af2-0076-42b6-8ced-7ee422d10041{fill:#b7a097;}.uuid-3bb99af2-0076-42b6-8ced-7ee422d10041,.uuid-66e6c1d4-b24f-4670-adee-5fe24283f5fb,.uuid-5f2603aa-eae4-4653-babc-686378149c85,.uuid-d9c8d277-4d9a-4621-a89f-baf05570e082,.uuid-bb045d77-d904-48ee-b8ec-370f980e6808{stroke-width:0px;}.uuid-66e6c1d4-b24f-4670-adee-5fe24283f5fb{fill:#fcede8;}.uuid-5f2603aa-eae4-4653-babc-686378149c85{fill:#e5c9be;}.uuid-d9c8d277-4d9a-4621-a89f-baf05570e082{fill:#fff;}.uuid-bb045d77-d904-48ee-b8ec-370f980e6808{fill:#c08a61;}</style></defs><g id="uuid-bbf931d6-aaa6-4155-8a41-5f41161b1217"><g id="uuid-6e74f616-7304-410e-ae44-1dfea544328d"><path class="uuid-3bb99af2-0076-42b6-8ced-7ee422d10041" d="m402.1,321.4c-11.1,24.9-15.3,52.3-12.1,79.4,2,17.6,5.5,35,10.6,52,2.7,8.8,6.2,17.4,10.3,25.6,5.1,7.8,9.8,15.8,13.9,24.1l-217.8.6h0c-.7-2.6-13.8-52.8-42.8-65.7-5.4,1.9-11.1,3.8-16.9,5.7-19.3,6.6-38.9,12.2-58.7,16.7-5.5,1.3-11.2.5-16.1-2.2-5.6-3.4-9.7-8.6-11.7-14.8-2.3-6.1-3.1-12.6-2.4-19,2-6.6,2.7-13.5,2-20.3-2.3-8.6-10.6-10.8-17.2-15.4-5.4-3.8,4.3-15.8,4.3-15.8,0,0-10.2-7.4-13.9-10.7-3.8-3.1,1.6-8.4,6.3-18.3,2-4.3,2.5-9.2,1.6-13.8-1.8-9.1-15.9-12.6-22.8-17.7-3.3-2.4-8.6-6-9.2-10.3-1-6.1,6.3-14.6,9.9-18.9,15.1-19.2,28.1-39.9,38.7-61.9,1.4-2.3,2.2-4.9,2.4-7.6-.2-12.2-18.1-17.2-19.8-29.1-.3-3.5.4-7,1.8-10.2,5-10.5,9.3-21.2,12.8-32.3,2.1-10.1,4.9-20.1,8.2-29.9,7.3-19.6,18.5-37.6,33-52.9,21.3-22.1,52.7-33,82.3-38.8,26.4-5.7,53.2-9.5,80.1-11.5.9,0,1.7,0,2.6-.2,55.5-2.7,99.4,15.8,142.5,48.9,23.5,17.2,40.6,41.4,48.9,69,6.3,22.8,9.2,46.4,8.8,70-.2,23.3-7.1,46.1-20,65.7-12.9,20.1-29.8,37.5-39.7,59.4Z"/><path class="uuid-d9c8d277-4d9a-4621-a89f-baf05570e082" d="m375.4,321.8c-11.1,24.9-15.3,52.3-12.1,79.4,2,17.6,5.5,35,10.6,52,2.7,8.8,6.2,17.4,10.3,25.6,5.1,7.8,9.8,15.8,13.9,24.1l-166.9.4h-24.9c-.6-2.2-11.1-42.3-33.9-60.2-2.7-2.1-5.7-3.9-8.9-5.4-.3,0-.4.2-.7.3-5.2,1.8-10.7,3.6-16.2,5.5,0,0-.3-.2-.3-.3-2.6-2.2-5.6-4.1-8.8-5.5-14.7,5-31.6,10.6-47,15.1-6.6,2-12.9,3.7-18.7,5.1-5.6-3.4-9.7-8.6-11.7-14.8-2.3-6.1-3.1-12.6-2.4-19,2-6.6,2.7-13.5,2-20.3-2.3-8.6-10.6-10.8-17.2-15.4-5.4-3.8,4.3-15.8,4.3-15.8,0,0-10.2-7.4-13.9-10.7-3.8-3.1,1.6-8.4,6.3-18.3,2-4.3,2.5-9.2,1.6-13.8-1.8-9.1-15.9-12.6-22.8-17.7-3.3-2.4-8.6-6-9.2-10.3-1-6.1,6.3-14.6,9.9-18.9,15.1-19.2,28.1-39.9,38.7-61.9,1.4-2.3,2.2-4.9,2.4-7.6-.2-12.2-18.1-17.2-19.8-29.1-.3-3.5.4-7,1.8-10.2,5-10.5,9.3-21.2,12.8-32.3,2.1-10.1,4.9-20.1,8.2-29.9,7.3-19.6,18.5-37.6,33-52.9,21.3-22.1,52.7-33,82.3-38.8,26.4-5.7,53.2-9.5,80.1-11.5,3.9.3,7.7.6,11.5,1.1,39.7,5.6,77,22.1,107.6,47.6,23.5,17.2,40.6,41.4,48.9,69,6.3,22.8,9.2,46.4,8.8,70-.2,23.3-7.1,46.1-20,65.7-12.9,20.1-29.8,37.5-39.7,59.4Z"/><path class="uuid-66e6c1d4-b24f-4670-adee-5fe24283f5fb" d="m375.4,321.8c-11.1,24.9-15.3,52.3-12.1,79.4,2,17.6,5.5,35,10.6,52,2.7,8.8,6.2,17.4,10.3,25.6,5.1,7.8,9.8,15.8,13.9,24.1l-166.9.4c-.9-3.2-14.1-52.7-42.8-65.5-5.1,1.8-10.5,3.6-16.1,5.4-.3.2-.6.3-.9.3-2.6-2.2-5.5-4.1-8.7-5.5-.2,0-.3-.2-.4-.3-5.1,1.8-10.6,3.6-16.1,5.5-16.9,5.5-35.1,11.2-49.6,14.8-2.4-1.3-4.4-3.1-6.2-5.1-2.5-2.8-4.4-6.1-5.6-9.6-2.3-6.1-3.1-12.6-2.4-19,2-6.6,2.7-13.5,2-20.3-2.3-8.6-10.6-10.8-17.2-15.4-5.4-3.8,4.3-15.8,4.3-15.8,0,0-10.2-7.4-13.9-10.7-3.8-3.1,1.6-8.4,6.3-18.3,2-4.3,2.5-9.2,1.6-13.8-1.8-9.1-15.9-12.6-22.8-17.7-3.3-2.4-8.6-6-9.2-10.3-1-6.1,6.3-14.6,9.9-18.9,15.1-19.2,28.1-39.9,38.7-61.9,1.4-2.3,2.2-4.9,2.4-7.6-.2-12.2-18.1-17.2-19.8-29.1-.3-3.5.4-7,1.8-10.2,5-10.5,9.3-21.2,12.8-32.3,2.1-10.1,4.9-20.1,8.2-29.9,7.3-19.6,18.5-37.6,33-52.9,21.3-22.1,52.7-33,82.3-38.8,22-4.7,44.2-8.1,66.6-10.4,39.7,5.6,77,22.1,107.6,47.6,23.5,17.2,40.6,41.4,48.9,69,6.3,22.8,9.2,46.4,8.8,70-.2,23.3-7.1,46.1-20,65.7-12.9,20.1-29.8,37.5-39.7,59.4Z"/><path class="uuid-d9c8d277-4d9a-4621-a89f-baf05570e082" d="m33.7,171.3c3.6-9.3,8-17.4,10.8-25.3.7-2,1.3-3.9,1.7-5.8l1.6-6.7c1.1-4.5,2.2-9.2,3.6-13.8,5.6-18.8,14.5-36.4,26.3-52.2,3.7-4.9,7.6-9.5,11.9-13.9l12.6,11.7c-3.8,3.9-7.3,8.1-10.5,12.4-10.6,14.1-18.6,29.9-23.6,46.6-1.2,4.3-2.3,8.6-3.4,13.1l-1.6,6.7c-.6,2.6-1.4,5.1-2.2,7.5-3.4,9.6-7.9,17.9-11,25.9l-16.2-6.1Z"/><g id="uuid-8c888bee-6d93-44b0-a7eb-da97386bb94c"><path class="uuid-bb045d77-d904-48ee-b8ec-370f980e6808" d="m55.8,106.7c-.9,2.2-.8,4.7.1,6.8l.9,1.4c.4.5.8.9,1.2,1.2.4.4.8.7,1.3,1,.5.3,1.1.5,1.6.7,2.2.6,4.5.5,6.6-.4,1-.5,1.9-1.1,2.6-1.9,2.3-2.4,2.9-5.9,1.6-8.9-.5-1-1.1-1.9-1.9-2.7-.8-.8-1.7-1.5-2.7-1.9-2.1-.9-4.5-1-6.7-.1-2.2,1-3.9,2.8-4.7,4.9Z"/><path class="uuid-bb045d77-d904-48ee-b8ec-370f980e6808" d="m288.7.7c-9.2-.7-18.6-.9-28.2-.4-28.2,1.9-56.3,5.9-83.9,11.8-39.1,7.7-67.6,21.2-87,41.3,0,0,0,0,0,0-4.2,4.4-8.1,9-11.8,13.9-1.8,2.4-3.6,4.9-5.3,7.4-1.3,1.9-1.8,4.3-1.3,6.5.5,2.3,2,4.2,4,5.4,4,2.3,9.2,1.2,11.8-2.6,1.5-2.3,3.1-4.5,4.7-6.6,3.3-4.3,6.8-8.5,10.5-12.4h0c16.6-17.2,42.8-29.5,77.8-36.3,26.8-5.8,54-9.6,81.4-11.5,8.8-.4,17.4-.3,25.7.4,3.9.3,7.5-1.9,8.9-5.5,2-5.3-1.6-11.1-7.3-11.5Z"/><path class="uuid-bb045d77-d904-48ee-b8ec-370f980e6808" d="m432.5,500.3c-2.1-5.8-5.1-11.2-8.8-16.2-2.1-2.9-4-6-5.6-9.2-3.9-7.8-7.2-15.9-9.8-24.3-3.6-11.8-7.2-33-9.1-44.3-.7-4.3-4.6-7.3-9-7.1-5.2.2-8.6,4.8-8.2,9.9,1,13.4,5,33.4,9.7,46.6,3.2,9.1,6.5,18.1,10.8,26.7,2,3.9,4.2,7.6,6.7,11.2l.6.8-196.8.5c-5.7-20.2-16.2-38.9-30.5-54.5l7.8-2.7c5.8-2,10.2-3.5,12.4-4.2,37.2-11.6,55.8-28.2,55.3-49.5-.1-4.6-4-8.3-8.7-8.3h-.2c-2.3,0-4.5,1-6.1,2.6-1.6,1.6-2.5,3.8-2.4,6.1.2,8.8-7.1,21.6-43.2,32.8-2.3.7-6.9,2.3-12.9,4.4-6.4,2.2-14.5,5-23.4,8,0,0-.2,0-.3,0-24.4,8.8-49.3,16.2-74.6,22.2-8.1,1.5-16-3.5-17.9-11.4-1.8-4.9-2.5-10.1-2-15.2.2-1.8.6-3.6,1-5.4,1.8-5.9,2-12.1.8-18.2-2.5-7.8-8.4-14.2-16.1-17.5l-1.8-1c.9-1.9,2.1-3.6,3.3-5.3,1.5-1.8,2.1-4.1,1.8-6.4-.3-2.3-1.5-4.4-3.4-5.8-2.1-1.5-7-5.1-10.6-8,.4-.7.9-1.6,1.3-2.3,1.4-2.3,2.9-5.1,4.4-8.2,2.7-6,3.6-12.6,2.3-19.1-2.1-10.4-12.2-15.5-19.6-19.2-2.5-1.2-4.9-2.5-7.2-4.1-1.9-1.2-3.6-2.6-5.2-4.1,0-1.3,1.4-4.4,8-12.3,15.5-19.7,28.9-40.9,39.7-63.4,2-3.5,3.2-7.5,3.3-11.5-.9-8.6-5.5-16.4-12.7-21.3-3.5-3.2-6.8-6.2-7.2-8.9,0-2,.5-4,1.3-5.8h0c5.1-10.6,9.4-21.6,13-32.7.6-2.2.2-4.5-1-6.5-1.2-1.9-3.2-3.3-5.4-3.9-4.6-1-9.3,1.8-10.4,6.3-3.4,10-7.3,19.9-11.8,29.5-.2.3-.3.6-.4.9,0,0,0,.2-.1.3h0s0,0,0,0c-2,4.5-2.8,9.4-2.3,14.3,1.7,7.6,6.2,14.4,12.6,19.1,4.2,3.8,7.1,6.5,7.1,8.9-.3,1.3-.8,2.5-1.5,3.7-10.4,21.5-23.1,41.9-38,60.7-6.3,7.5-12.9,16.3-11.5,25.1,1.8,6.8,6.4,12.6,12.6,16,2.9,1.9,5.9,3.7,9,5.1,3.7,1.9,10,5,10.5,7.3.5,2.9.2,5.9-1,8.6-1.3,2.7-2.6,5.1-3.8,7.1-3.2,5.5-8.5,14.8-.5,21.2,1.9,1.7,5.1,4.2,8.1,6.4-2.2,3.7-3.2,8-2.8,12.3.5,3.4,2.3,6.4,5.1,8.4,1.9,1.3,4,2.5,6,3.6,5.1,2.9,7.1,4.2,7.8,6.9.5,3.4.2,6.9-.9,10.2-.5,2.3-1,4.6-1.3,6.8-.9,7.8.1,15.6,2.9,23,3.9,13.5,16.4,23,30.7,23.3,2.4,0,4.8-.3,7.2-.8,24.8-5.8,49.2-13,73.2-21.5,19.5,11.3,31.8,45.6,35,58.4.9,3.8,4.4,6.5,8.4,6.5h0s217.8-.6,217.8-.6c2.8,0,5.4-1.3,7-3.5s2.1-5,1.3-7.6ZM38.3,355.5h0c0,0,.2.2.3.2l-.3-.2Z"/></g><path class="uuid-3bb99af2-0076-42b6-8ced-7ee422d10041" d="m78.1,187.7c4.8,0,8.7-3.8,8.7-8.5s-3.9-8.5-8.7-8.5-8.7,3.8-8.7,8.5,3.9,8.5,8.7,8.5Z"/><path class="uuid-3bb99af2-0076-42b6-8ced-7ee422d10041" d="m88.5,158.4c-2.7,0-5.2-1.2-6.8-3.2-1.6-2-2.3-4.7-1.6-7.3l.9-3.7c1.7-7.8,3.8-15.5,6.4-23.1,6-16.4,15.4-31.5,27.5-44.3,13.3-12.6,29.7-21.6,47.6-26.2,3-1,6.3-.3,8.6,1.8,2.3,2.1,3.3,5.3,2.6,8.3s-3.1,5.4-6.1,6.2c-15,3.7-28.7,11.2-40,21.6-10.5,11.1-18.6,24.2-23.8,38.4-2.3,6.9-4.3,13.9-5.8,21.1l-.9,3.7c-.9,3.9-4.4,6.6-8.5,6.6Z"/><path class="uuid-bb045d77-d904-48ee-b8ec-370f980e6808" d="m234.9,201.6h0c0,1.2-.4,2.5-1,3.6-1,1.9-2.7,3.1-4.5,3.8-1,.3-1.8.5-2.7.5h-51.6v-16h56c.5,1.2,1.2,2.4,2.1,3.4,1.1,1.4,1.8,3,1.8,4.8Z"/><path class="uuid-bb045d77-d904-48ee-b8ec-370f980e6808" d="m311.9,193.5v16h-51.5c-.5,0-1,0-1.4-.1-.5,0-.9-.2-1.4-.4h0c0,0-.1,0-.2,0-1.8-.6-3.3-1.9-4.3-3.7-.6-1.1-1-2.4-1-3.6h0c0-1.4.5-2.8,1.3-4,.2-.3.3-.5.5-.7.5-.6,1-1.3,1.4-2.1,0-.1.2-.2.2-.4.2-.3.3-.6.4-.9h56Z"/><path class="uuid-bb045d77-d904-48ee-b8ec-370f980e6808" d="m241.6,158.6c-14.9.9-27,12.9-27.8,27.5-.1,2.3,0,4.6.4,6.8,0,.2,0,.3,0,.5,1,4.9,3.2,9.4,6.3,13.1,1,1.1,2.2,1.9,3.5,2.4.9.3,1.7.5,2.5.5s1.8-.2,2.7-.5c1.9-.6,3.5-1.9,4.5-3.8.6-1.1,1-2.4,1-3.6h0c0,0,0-.2,0-.3,0-1.8-.6-3.6-1.8-5-.8-1-1.5-2.1-2.1-3.4-.8-2-1.2-4.3-.9-6.6.7-6.1,5.7-11,11.9-11.7,8.2-.9,15.1,5.4,15.1,13.3s-.4,3.5-1,5.1c0,.2-.1.3-.2.5-.1.3-.3.6-.5.9,0,.1-.1.3-.2.4-.3.5-.7,1-1,1.5-.4.4-.7.9-.9,1.4-.7,1.3-1.1,2.8-1,4.3,0,1.2.4,2.3.9,3.4h0c1,1.8,2.4,3,4.1,3.6,0,0,.1,0,.2,0h0c.5.2.9.3,1.4.4.5,0,1,.1,1.4.1,1,0,1.9-.2,2.8-.5,1.3-.4,2.4-1.2,3.4-2.3,3.1-3.7,5.4-8.2,6.3-13.1,0-.2,0-.3,0-.5.3-1.6.4-3.3.4-5.1,0-16.8-14.4-30.4-31.8-29.3Z"/><path class="uuid-bb045d77-d904-48ee-b8ec-370f980e6808" d="m315.7,280.4v50.7h-16.3v-55.1c1.3-.5,2.4-1.2,3.4-2,1.4-1.1,3.1-1.7,4.8-1.8h0c1.3,0,2.5.4,3.7,1,1.9,1,3.2,2.6,3.8,4.5.3.9.5,1.8.5,2.7Z"/><path class="uuid-bb045d77-d904-48ee-b8ec-370f980e6808" d="m315.7,196.6v50.6c0,.5,0,.9-.1,1.4,0,.4-.2.9-.4,1.4h0c0,0,0,.2,0,.2-.7,1.7-1.9,3.3-3.7,4.2-1.1.6-2.4.9-3.7,1h0c-1.4,0-2.8-.4-4.1-1.2-.3-.2-.5-.3-.8-.5-.7-.5-1.4-1-2.2-1.4-.1,0-.3-.1-.4-.2-.3-.1-.6-.3-.9-.4v-55.1h16.3Z"/><path class="uuid-bb045d77-d904-48ee-b8ec-370f980e6808" d="m311.4,273.3c-1.1-.6-2.4-.9-3.7-1h0c0,0-.2,0-.3,0-1.8,0-3.6.6-5.1,1.8-1,.8-2.2,1.5-3.4,2-2,.8-4.3,1.2-6.7.9-6.2-.7-11.2-5.6-11.9-11.7-.9-8,5.5-14.8,13.5-14.8s3.6.4,5.2,1c.2,0,.3.1.5.2.3.1.6.3.9.4.1,0,.3.1.4.2.5.3,1.1.7,1.6,1.1.4.3.9.6,1.4.9,1.4.7,2.8,1.1,4.3,1,1.2,0,2.3-.4,3.4-.9h0c1.8-1,3-2.4,3.7-4.1,0,0,0-.1,0-.2h0c.2-.5.3-.9.4-1.4,0-.5.1-.9.1-1.4,0-.9-.2-1.9-.5-2.8-.5-1.2-1.3-2.4-2.4-3.3-3.8-3.1-8.3-5.3-13.4-6.2-.2,0-.3,0-.5,0-1.7-.3-3.4-.4-5.2-.4-17.1,0-30.9,14.2-29.8,31.3.9,14.6,13.1,26.5,28,27.4,2.4.1,4.7,0,6.9-.4.2,0,.3,0,.5,0,5-1,9.6-3.1,13.4-6.2,1.2-.9,1.9-2.2,2.4-3.4.3-.9.5-1.7.5-2.5s-.2-1.7-.5-2.7c-.6-1.8-1.9-3.4-3.8-4.5Z"/><path class="uuid-bb045d77-d904-48ee-b8ec-370f980e6808" d="m315.7,151.3v55.1h-16.3v-50.7c0-.9.2-1.7.5-2.7.6-1.8,1.9-3.4,3.8-4.5,1.1-.6,2.4-.9,3.7-1h0c1.7,0,3.4.6,4.8,1.8,1,.8,2.2,1.5,3.4,2Z"/><path class="uuid-bb045d77-d904-48ee-b8ec-370f980e6808" d="m315.7,74.6v52c-1.3.5-2.4,1.3-3.4,2.2-.5.4-1,.7-1.5,1-1,.6-2.2.9-3.3.9h0c-1.3,0-2.5-.4-3.7-1.1-.4-.2-.7-.5-1-.7-1.3-1.1-2.3-2.5-2.8-4.1-.3-.9-.5-1.8-.5-2.6,0,0,0-.2,0-.3v-54.9h8.5c4.3,0,7.7,3.4,7.7,7.6Z"/><path class="uuid-bb045d77-d904-48ee-b8ec-370f980e6808" d="m321.4,109.6c-1.8,0-3.5.2-5.2.4-.2,0-.3,0-.5,0-5,1-9.6,3.1-13.4,6.2-1.1.9-1.9,2.1-2.4,3.3-.3.8-.5,1.6-.5,2.5,0,0,0,.2,0,.3,0,.9.2,1.9.5,2.8.5,1.4,1.5,2.7,2.8,3.6.3.2.6.4,1,.6h0c1.1.6,2.3.9,3.4.9,1.2,0,2.5-.2,3.6-.6.8-.3,1.5-.7,2.1-1.2,1-.8,2.1-1.4,3.3-1.9,1.6-.6,3.3-1,5.2-1,8,0,14.4,6.8,13.5,14.8-.7,6.1-5.7,11.1-11.9,11.7-2.4.3-4.7,0-6.7-.9-1.3-.5-2.4-1.2-3.4-2-1.5-1.2-3.3-1.8-5.1-1.8s-.2,0-.3,0h0c-1.3,0-2.5.4-3.7,1-1.9,1-3.2,2.6-3.8,4.5-.3.9-.5,1.8-.5,2.7s.2,1.6.5,2.5c.5,1.3,1.2,2.5,2.4,3.4,3.8,3.1,8.3,5.3,13.4,6.2.2,0,.3,0,.5,0,2.2.4,4.6.5,6.9.4,14.9-.8,27.1-12.7,28-27.4,1.1-17.1-12.6-31.3-29.8-31.3Z"/><path class="uuid-bb045d77-d904-48ee-b8ec-370f980e6808" d="m363.6,201.6h0c0,1.2-.4,2.5-1,3.6-1,1.8-2.6,3-4.3,3.7,0,0-.1,0-.2,0h0c-.5.2-.9.3-1.4.4-.2,0-.5,0-.7.1-.2,0-.5,0-.7,0h-51.5v-16h56c.1.3.3.6.4.8,0,.1.1.2.2.4.4.8.9,1.5,1.5,2.1.2.2.4.5.6.8.8,1.2,1.2,2.6,1.2,4Z"/><path class="uuid-bb045d77-d904-48ee-b8ec-370f980e6808" d="m401.8,186.2c-.9-14.6-12.9-26.6-27.8-27.5-17.4-1.1-31.8,12.4-31.8,29.3s.2,3.4.4,5.1c0,.2,0,.3,0,.5,1,4.9,3.2,9.4,6.3,13.1.9,1.1,2.1,1.9,3.4,2.3.9.3,1.9.5,2.8.5s.5,0,.7,0c.2,0,.5,0,.7-.1.5,0,.9-.2,1.4-.4h0c0,0,.1,0,.2,0,1.7-.6,3.2-1.8,4.1-3.6h0c.6-1.1.9-2.3.9-3.4,0-1.5-.3-2.9-1-4.2-.3-.5-.6-.9-.9-1.4-.4-.5-.8-1-1.1-1.5,0-.1-.1-.2-.2-.4-.2-.3-.3-.6-.4-.8,0-.2-.2-.3-.2-.5-.7-1.6-1-3.3-1-5.1,0-7.8,6.9-14.1,15.1-13.3,6.2.7,11.3,5.6,11.9,11.7.3,2.4,0,4.6-.9,6.6-.5,1.2-1.2,2.4-2.1,3.4-1.2,1.4-1.8,3.2-1.8,5s0,.2,0,.3h0c0,1.2.4,2.5,1,3.6,1,1.9,2.7,3.1,4.5,3.8,1,.3,1.8.5,2.7.5s.2,0,.3,0c.7,0,1.5-.2,2.2-.5,1.3-.5,2.5-1.2,3.5-2.4,3.1-3.7,5.4-8.2,6.3-13.1,0-.2,0-.3.1-.5.4-2.2.5-4.5.4-6.8Z"/><path class="uuid-d9c8d277-4d9a-4621-a89f-baf05570e082" d="m429,209.5v100.8c0,4.2-3.5,7.7-7.8,7.7h-105.4v-37.6c0-.9-.2-1.7-.5-2.7-.6-1.8-1.9-3.4-3.8-4.5-1.1-.6-2.4-.9-3.7-1h0c0,0-.2,0-.3,0-1.8,0-3.6.6-5.1,1.8-1,.8-2.2,1.5-3.4,2-2,.8-4.3,1.2-6.7.9-6.2-.7-11.2-5.6-11.9-11.7-.9-8,5.5-14.8,13.5-14.8s3.6.4,5.2,1c.2,0,.3.1.5.2h0c.3.2.6.3.9.4.1,0,.3.1.4.2.5.3,1.1.7,1.6,1.1.4.3.9.6,1.4.9,1.2.8,2.6,1.2,4.1,1.2h0c1.3,0,2.5-.4,3.7-1,1.8-1,3.1-2.5,3.7-4.2,0,0,0-.1,0-.2h0c.2-.5.3-.9.4-1.4,0-.5.1-.9.1-1.4v-37.8h39.4c.2,0,.5,0,.7,0,.2,0,.5,0,.7-.1.5,0,.9-.2,1.4-.4h0c0,0,.1,0,.2,0,1.8-.6,3.3-1.9,4.3-3.7.6-1.1,1-2.4,1-3.6h0c0-1.4-.4-2.8-1.2-4-.3-.5-.6-.9-.9-1.4-.4-.5-.8-1-1.1-1.5,0-.1-.1-.2-.2-.4-.1-.3-.3-.6-.4-.8h0c0-.2-.2-.3-.2-.5-.7-1.6-1-3.3-1-5.1,0-7.8,6.9-14.1,15.1-13.3,6.2.7,11.3,5.6,11.9,11.7.3,2.4,0,4.6-.9,6.6-.5,1.2-1.2,2.4-2.1,3.4-1.2,1.4-1.8,3.2-1.8,5s0,.2,0,.3h0c0,1.2.4,2.5,1,3.6,1,1.9,2.7,3.1,4.5,3.8,1,.3,1.8.5,2.7.5s.2,0,.3,0c.1,0,.2,0,.3,0h39.4Z"/><path class="uuid-d9c8d277-4d9a-4621-a89f-baf05570e082" d="m334.9,140.4c-.7,6.1-5.7,11.1-11.9,11.7-2.4.3-4.7,0-6.7-.9-1.3-.5-2.4-1.2-3.4-2-1.5-1.2-3.3-1.8-5.1-1.8s-.2,0-.3,0h0c-1.3,0-2.5.4-3.7,1-1.9,1-3.2,2.6-3.8,4.5-.3.9-.5,1.8-.5,2.7v37.9h-26.6c0-.2,0-.3,0-.5.3-1.6.4-3.3.4-5.1,0-16.8-14.4-30.4-31.8-29.3-14.9.9-27,12.9-27.8,27.5-.1,2.3,0,4.6.4,6.8,0,.2,0,.3,0,.5h-28.4v-102.8c0-4.2,3.5-7.7,7.8-7.7h105.7v38.9c0,0,0,.2,0,.3,0,0,0,.2,0,.3,0,.9.2,1.9.5,2.8.5,1.4,1.5,2.7,2.8,3.6.3.3.7.5,1,.7,1.1.7,2.4,1,3.7,1.1h0c1.2,0,2.3-.3,3.3-.9.8-.3,1.5-.7,2.1-1.2,1-.8,2.1-1.4,3.3-1.9,1.6-.6,3.3-1,5.2-1,8,0,14.4,6.8,13.5,14.8Z"/><path class="uuid-3bb99af2-0076-42b6-8ced-7ee422d10041" d="m429.2,205.9v104.6c0,12.7-10.8,23-24.1,23h-.2v-15.5h.2c4.3,0,7.8-3.3,7.8-7.5v-104.6h16.3Z"/><path class="uuid-bb045d77-d904-48ee-b8ec-370f980e6808" d="m384.8,193.5c-.6,1.2-1.3,2.4-2.2,3.4-1.2,1.4-1.9,3-1.9,4.8h0c0,1.2.4,2.5,1.1,3.6,1.1,1.9,2.9,3.1,4.9,3.8.9.3,1.7.4,2.6.5.1,0,.2,0,.3,0h39.4v100.8c0,4.2-3.5,7.7-7.8,7.7h-227.4c-4.3,0-7.8-3.4-7.8-7.7V90.7c0-4.2,3.5-7.7,7.8-7.7h113.7v-16h-113.7c-13.3,0-24.1,10.6-24.1,23.7v219.6c0,13.1,10.8,23.7,24.1,23.7h227.4c13.3,0,24.1-10.6,24.1-23.7v-116.8h-60.5Z"/><path class="uuid-5f2603aa-eae4-4653-babc-686378149c85" d="m264,265.7c.9,14.6,13.1,26.5,28,27.4,2.4.1,4.7,0,6.9-.4.2,0,.3,0,.5,0v25.4h-105.7c-4.3,0-7.8-3.4-7.8-7.7v-100.8h40.7c.9,0,1.8-.2,2.7-.5,1.9-.6,3.5-1.9,4.5-3.8.6-1.1,1-2.4,1-3.6h0c0,0,0-.2,0-.3,0-1.8-.6-3.6-1.8-5-.8-1-1.5-2.1-2.1-3.4-.8-2-1.2-4.3-.9-6.6.7-6.1,5.7-11,11.9-11.7,8.2-.9,15.1,5.4,15.1,13.3s-.4,3.5-1,5.1c0,.2-.1.3-.2.5h0c-.1.3-.3.6-.4.9,0,.1-.1.3-.2.4-.3.5-.7,1-1,1.5-.4.4-.7.9-.9,1.4-.8,1.2-1.2,2.6-1.3,4h0c0,1.2.4,2.5,1,3.6,1,1.8,2.6,3,4.3,3.7,0,0,.1,0,.2,0h0c.5.2.9.3,1.4.4.5,0,1,.1,1.4.1h39.1v25.5c-.2,0-.3,0-.5,0-1.7-.3-3.4-.4-5.2-.4-17.1,0-30.9,14.2-29.8,31.3Z"/><path class="uuid-5f2603aa-eae4-4653-babc-686378149c85" d="m495.7,23.7v102.1h-27.7c0-.2,0-.3,0-.5.4-2.2.5-4.5.4-6.8-.9-14.6-12.9-26.6-27.8-27.5-17.4-1.1-31.8,12.4-31.8,29.3s.2,3.4.4,5.1c0,.2,0,.3,0,.5h-26.4v-26.1c.2,0,.3,0,.5,0,2.2.4,4.6.5,6.9.4,14.9-.8,27.1-12.7,28-27.4,1.1-17.1-12.6-31.3-29.8-31.3s-3.5.2-5.2.4c-.2,0-.3,0-.5,0v-26.1h104.9c4.3,0,7.8,3.4,7.8,7.7Z"/><path class="uuid-3bb99af2-0076-42b6-8ced-7ee422d10041" d="m425.1,120.2c0,1.8.4,3.5,1,5.1.3.8.7,1.5,1.2,2.2-2.7,1.4-5.7,2.2-8.9,2.2s-6.1-.8-8.7-2.1h0c-6.2-3.2-10.4-9.6-10.4-17,0-10.5,8.5-19.1,19.1-19.1s5.7.7,8.2,1.8c5.4,2.5,9.4,7.6,10.6,13.6-6.8.7-12.1,6.4-12.1,13.3Z"/><path class="uuid-3bb99af2-0076-42b6-8ced-7ee422d10041" d="m495.7,128.1V23.4c0-12.7-10.8-23-24.1-23h-.2s0,15.5,0,15.5h.2c4.3,0,7.8,3.3,7.8,7.5v104.6s16.3,0,16.3,0Z"/><path class="uuid-bb045d77-d904-48ee-b8ec-370f980e6808" d="m487.9,0h-113.7v16h113.7c4.3,0,7.8,3.4,7.8,7.7v109.8h16.3V23.7C512,10.6,501.2,0,487.9,0Z"/><path class="uuid-bb045d77-d904-48ee-b8ec-370f980e6808" d="m512,125.8v10.2c0,3.2-2.7,5.8-5.9,5.8h-49.8c-.1,0-.2,0-.3,0-.8,0-1.7-.2-2.6-.5-2-.6-3.8-1.9-4.9-3.8-.5-.8-.8-1.8-1-2.7,0-.3,0-.6,0-.9h0c0-1.7.7-3.4,1.9-4.8.9-1,1.7-2.1,2.2-3.4h60.5Z"/><path class="uuid-bb045d77-d904-48ee-b8ec-370f980e6808" d="m468.5,118.5c-.9-14.6-12.9-26.6-27.8-27.5-5-.3-9.8.6-14,2.4-10.5,4.5-17.8,14.8-17.8,26.8s.2,3.4.5,5.1c0,.2,0,.3,0,.5.1.6.3,1.2.4,1.8h0c1.1,4.2,3.2,8.1,5.9,11.3,1,1.1,2.1,1.9,3.4,2.3.8.3,1.7.5,2.6.5,0,0,.1,0,.2,0,1,0,1.9-.2,2.8-.5,1.3-.5,2.4-1.2,3.4-2.3.4-.4.7-.9,1-1.4h0c.6-1.1.9-2.3.9-3.4,0-1.2-.2-2.5-.7-3.7-.3-.7-.7-1.4-1.2-2-.3-.3-.5-.7-.8-1-.5-.7-.9-1.4-1.2-2.2-.7-1.6-1-3.3-1-5.1,0-6.9,5.3-12.5,12.1-13.3,1-.1,2-.1,3,0,6.2.7,11.3,5.6,12,11.7.3,2.4,0,4.6-.9,6.6-.5,1.2-1.2,2.4-2,3.4-1.2,1.4-1.8,3.2-1.8,5s0,.2,0,.3h0c0,.3,0,.6,0,.9.1.9.4,1.8.9,2.7,1,1.9,2.7,3.1,4.5,3.8,1,.3,1.8.5,2.7.5s.2,0,.3,0c.7,0,1.5-.2,2.2-.5,1.3-.5,2.5-1.2,3.5-2.4,3.1-3.7,5.4-8.2,6.3-13.1,0-.2,0-.3,0-.5.4-2.2.5-4.5.4-6.8Z"/><path class="uuid-bb045d77-d904-48ee-b8ec-370f980e6808" d="m430.3,133.9h0c0,1.2-.4,2.5-1.1,3.6-.3.5-.7,1-1.1,1.5-1,1.1-2.3,1.8-3.7,2.3-.9.3-1.8.5-2.7.5,0,0-.1,0-.2,0h-41.9c-7.1,0-12.9-5.7-12.9-12.7v-41.5c0-.9.2-1.7.5-2.7.6-1.8,1.9-3.4,3.8-4.5,1.1-.6,2.4-.9,3.7-1h0c1.7,0,3.4.6,4.8,1.8,1,.8,2.2,1.5,3.4,2v42.6h43.2c.5,1.2,1.3,2.4,2.2,3.4.4.4.7.9.9,1.3.6,1.1.9,2.2,1,3.4Z"/><path class="uuid-bb045d77-d904-48ee-b8ec-370f980e6808" d="m383,0v58.6c-1.3.5-2.4,1.3-3.4,2.1-.4.4-.9.7-1.4,1-1.1.6-2.2.9-3.4.9h0c-1.3,0-2.5-.4-3.7-1-.5-.3-.9-.6-1.4-1,0,0,0,0,0,0-1.2-1-2-2.3-2.5-3.8-.3-.9-.5-1.8-.5-2.6,0,0,0-.1,0-.2V6.7c0-3.7,3-6.7,6.8-6.7h9.5Z"/><path class="uuid-bb045d77-d904-48ee-b8ec-370f980e6808" d="m388.7,41.6c-1.8,0-3.5.2-5.2.4-.2,0-.3,0-.5,0-5,1-9.6,3.1-13.4,6.2-1.1.9-1.9,2.1-2.4,3.3-.3.8-.5,1.7-.5,2.6,0,0,0,.1,0,.2,0,.9.2,1.9.5,2.8.5,1.3,1.3,2.5,2.5,3.4,0,0,0,0,0,0,.4.3.8.6,1.3.8h0c1.1.6,2.3.9,3.4.9,1.3,0,2.5-.2,3.7-.7.7-.3,1.4-.7,2.1-1.2,1-.8,2.1-1.4,3.3-1.9,1.6-.6,3.3-1,5.2-1,8,0,14.4,6.8,13.5,14.8-.7,6.1-5.7,11.1-11.9,11.7-2.4.3-4.7,0-6.7-.9-1.3-.5-2.4-1.2-3.4-2-1.5-1.2-3.3-1.8-5.1-1.8s-.2,0-.3,0h0c-1.3,0-2.5.4-3.7,1-1.9,1-3.2,2.6-3.8,4.5-.3.9-.5,1.8-.5,2.7s.2,1.6.5,2.5c.5,1.3,1.2,2.5,2.4,3.4,3.8,3.1,8.3,5.3,13.4,6.2.2,0,.3,0,.5,0,2.2.4,4.6.5,6.9.4,14.9-.8,27.1-12.7,28-27.4,1.1-17.1-12.6-31.3-29.8-31.3Z"/></g></g></svg>