<?xml version="1.0" encoding="UTF-8"?><svg id="uuid-7f3065b0-885f-4415-b460-ac36babe174b" xmlns="http://www.w3.org/2000/svg" width="512" height="512" viewBox="0 0 512 512"><defs><style>.uuid-306aa934-2fc7-44c4-ba24-a703555d6c08{fill:#b7a097;}.uuid-306aa934-2fc7-44c4-ba24-a703555d6c08,.uuid-4915508a-887a-4396-aa54-16982a53c8a7,.uuid-80d22b6b-89ec-4741-9737-687c0b79c284,.uuid-5e956812-8caf-4fa2-b977-92199879b9e0,.uuid-3ae0b0ab-79dc-4729-bdc4-e5e33a78b04c,.uuid-ae89633d-7b2c-4b2b-95c0-944e7ffb63c2{stroke-width:0px;}.uuid-4915508a-887a-4396-aa54-16982a53c8a7{fill:#fcede8;}.uuid-80d22b6b-89ec-4741-9737-687c0b79c284{fill:#e5c9be;}.uuid-5e956812-8caf-4fa2-b977-92199879b9e0{fill:#fff;}.uuid-3ae0b0ab-79dc-4729-bdc4-e5e33a78b04c{fill:#c08a61;}.uuid-ae89633d-7b2c-4b2b-95c0-944e7ffb63c2{fill:#a38b7f;opacity:.7;}</style></defs><g id="uuid-59a055fe-849d-4490-9549-da495d76052e"><g id="uuid-4cef4e42-d72c-494c-9d95-16f08578637a"><g id="uuid-06ec59c4-43de-4bd3-8d44-eef809ddfed8"><path class="uuid-306aa934-2fc7-44c4-ba24-a703555d6c08" d="m400,321.1c-11,25-15.2,52.4-12,79.5,1.9,17.6,5.5,35,10.5,52,2.7,8.8,6.2,17.4,10.3,25.6,5.1,7.8,9.7,15.8,13.8,24.2l-216.7.6h0c-.7-2.6-13.7-52.9-42.6-65.8-5.4,1.9-11,3.8-16.8,5.7-19.2,6.6-38.7,12.2-58.4,16.8-5.4,1.3-11.2.5-16.1-2.2-5.6-3.4-9.7-8.6-11.7-14.8-2.3-6.1-3.1-12.6-2.4-19.1,2-6.6,2.7-13.5,2-20.3-2.2-8.6-10.5-10.8-17.1-15.4-5.4-3.8,4.2-15.8,4.2-15.8,0,0-10.2-7.4-13.8-10.7-3.8-3.1,1.6-8.4,6.3-18.4,2-4.3,2.5-9.2,1.6-13.8-1.8-9.1-15.8-12.6-22.7-17.7-3.3-2.4-8.5-6-9.1-10.3-.9-6.1,6.3-14.6,9.8-18.9,15.1-19.2,28-40,38.5-62,1.4-2.3,2.2-4.9,2.4-7.6-.2-12.2-18-17.3-19.7-29.1-.3-3.5.4-7,1.8-10.2,5-10.5,9.2-21.3,12.8-32.3,2.1-10.1,4.9-20.1,8.2-29.9,7.2-19.7,18.4-37.7,32.8-53,21.1-22.1,52.4-33.1,81.9-38.9,26.3-5.7,52.9-9.5,79.7-11.5.9,0,1.7,0,2.6-.2,55.2-2.7,98.9,15.8,141.7,49,23.3,17.2,40.4,41.5,48.6,69.1,6.3,22.8,9.2,46.4,8.7,70.1-.2,23.4-7.1,46.2-19.9,65.8-12.9,20.1-29.7,37.5-39.4,59.5Z"/><path class="uuid-5e956812-8caf-4fa2-b977-92199879b9e0" d="m373.4,321.5c-11,25-15.2,52.4-12,79.5,1.9,17.6,5.5,35,10.5,52,2.7,8.8,6.2,17.4,10.3,25.6,5.1,7.8,9.7,15.8,13.8,24.2l-166,.4h-24.8c-.6-2.2-11-42.4-33.8-60.2-2.7-2.1-5.7-4-8.8-5.4-.3,0-.4.2-.7.3-5.2,1.8-10.6,3.6-16.1,5.5,0,0-.3-.2-.3-.3-2.6-2.2-5.6-4.1-8.7-5.5-14.6,5-31.4,10.6-46.8,15.1-6.6,2-12.9,3.7-18.6,5.1-5.6-3.4-9.7-8.6-11.7-14.8-2.3-6.1-3.1-12.6-2.4-19.1,2-6.6,2.7-13.5,2-20.3-2.2-8.6-10.5-10.8-17.1-15.4-5.4-3.8,4.2-15.8,4.2-15.8,0,0-10.2-7.4-13.8-10.7-3.8-3.1,1.6-8.4,6.3-18.4,2-4.3,2.5-9.2,1.6-13.8-1.8-9.1-15.8-12.6-22.7-17.7-3.3-2.4-8.5-6-9.1-10.3-.9-6.1,6.3-14.6,9.8-18.9,15.1-19.2,28-40,38.5-62,1.4-2.3,2.2-4.9,2.4-7.6-.2-12.2-18-17.3-19.7-29.1-.3-3.5.4-7,1.8-10.2,5-10.5,9.2-21.3,12.8-32.3,2.1-10.1,4.9-20.1,8.2-29.9,7.2-19.7,18.4-37.7,32.8-53,21.1-22.1,52.4-33.1,81.9-38.9,26.3-5.7,52.9-9.5,79.7-11.5,3.9.3,7.7.6,11.4,1.1,39.5,5.6,76.6,22.2,107,47.7,23.3,17.2,40.4,41.5,48.6,69.1,6.3,22.8,9.2,46.4,8.7,70.1-.2,23.4-7.1,46.2-19.9,65.8-12.9,20.1-29.7,37.5-39.4,59.5Z"/><path class="uuid-4915508a-887a-4396-aa54-16982a53c8a7" d="m374.6,321.5c-11,25-15.2,52.4-12,79.5,1.9,17.6,5.5,35,10.5,52,2.7,8.8,6.2,17.4,10.3,25.6,5.1,7.8,9.7,15.8,13.8,24.2l-166,.4c-.9-3.2-14-52.8-42.6-65.6-5.1,1.8-10.4,3.6-16,5.4-.3.2-.6.3-.9.3-2.6-2.2-5.5-4.1-8.6-5.5-.2,0-.3-.2-.4-.3-5.1,1.8-10.5,3.6-16.1,5.5-16.8,5.6-34.9,11.2-49.4,14.8-2.3-1.3-4.4-3.1-6.1-5.1-2.5-2.8-4.3-6.1-5.5-9.7-2.3-6.1-3.1-12.6-2.4-19.1,2-6.6,2.7-13.5,2-20.3-2.2-8.6-10.5-10.8-17.1-15.4-5.4-3.8,4.2-15.8,4.2-15.8,0,0-10.2-7.4-13.8-10.7-3.8-3.1,1.6-8.4,6.3-18.4,2-4.3,2.5-9.2,1.6-13.8-1.8-9.1-15.8-12.6-22.7-17.7-3.3-2.4-8.5-6-9.1-10.3-.9-6.1,6.3-14.6,9.8-18.9,15.1-19.2,28-40,38.5-62,1.4-2.3,2.2-4.9,2.4-7.6-.2-12.2-18-17.3-19.7-29.1-.3-3.5.4-7,1.8-10.2,5-10.5,9.2-21.3,12.8-32.3,2.1-10.1,4.9-20.1,8.2-29.9,7.2-19.7,18.4-37.7,32.8-53,21.1-22.1,52.4-33.1,81.9-38.9,21.9-4.7,44-8.2,66.3-10.4,39.5,5.6,76.6,22.2,107,47.7,23.3,17.2,40.4,41.5,48.6,69.1,6.3,22.8,9.2,46.4,8.7,70.1-.2,23.4-7.1,46.2-19.9,65.8-12.9,20.1-29.7,37.5-39.4,59.5Z"/><path class="uuid-5e956812-8caf-4fa2-b977-92199879b9e0" d="m33.5,170.8c3.6-9.3,8-17.4,10.7-25.4.7-2,1.3-3.9,1.7-5.8l1.6-6.8c1.1-4.5,2.2-9.2,3.6-13.8,5.5-18.8,14.4-36.5,26.2-52.2,3.7-4.9,7.6-9.5,11.8-14l12.6,11.7c-3.7,3.9-7.2,8.1-10.5,12.4-10.5,14.1-18.5,29.9-23.4,46.7-1.2,4.3-2.3,8.6-3.3,13.1l-1.6,6.8c-.6,2.6-1.4,5.1-2.2,7.5-3.4,9.6-7.9,17.9-10.9,25.9l-16.1-6.1Z"/><g id="uuid-6a2a522f-41d0-4ab6-8fe7-7d3ebffa6f40"><path class="uuid-3ae0b0ab-79dc-4729-bdc4-e5e33a78b04c" d="m55.5,106.1c-.8,2.2-.8,4.7.1,6.8l.9,1.4c.4.5.8.9,1.2,1.2.4.4.8.7,1.3,1,.5.3,1,.5,1.6.7,2.2.6,4.5.5,6.6-.4,1-.5,1.8-1.1,2.6-1.9,2.3-2.4,2.9-5.9,1.6-8.9-.5-1-1.1-1.9-1.9-2.7-.8-.8-1.7-1.5-2.7-1.9-2.1-.9-4.5-1-6.6-.1-2.2,1-3.9,2.8-4.7,5Z"/><path class="uuid-3ae0b0ab-79dc-4729-bdc4-e5e33a78b04c" d="m430.2,500.3c-2.1-5.8-5.1-11.3-8.7-16.2-2.1-3-3.9-6-5.6-9.3-3.9-7.8-7.2-16-9.7-24.3-3.5-11.9-7.2-33.1-9-44.4-.7-4.3-4.6-7.4-8.9-7.2-5.2.2-8.5,4.8-8.1,9.9.9,13.4,5,33.4,9.6,46.6,3.2,9.1,6.4,18.1,10.7,26.7,2,3.9,4.2,7.6,6.7,11.2l.6.9-195.8.5c-5.7-20.3-16.1-38.9-30.3-54.6l7.8-2.7c5.8-2,10.1-3.5,12.4-4.2,37-11.6,55.5-28.3,55-49.6-.1-4.6-3.9-8.3-8.6-8.3h-.2c-2.3,0-4.5,1-6.1,2.6-1.6,1.6-2.4,3.8-2.4,6.1.2,8.8-7.1,21.6-43,32.9-2.3.7-6.8,2.3-12.8,4.4-6.4,2.2-14.4,5-23.3,8,0,0-.2,0-.3,0-24.3,8.8-49.1,16.2-74.2,22.2-8,1.5-15.9-3.5-17.8-11.4-1.8-4.9-2.5-10.1-2-15.2.2-1.8.6-3.6,1-5.4,1.8-5.9,2-12.2.8-18.2-2.5-7.9-8.3-14.2-16-17.5l-1.8-1c.9-1.9,2-3.6,3.3-5.3,1.5-1.8,2.1-4.1,1.8-6.4-.3-2.3-1.5-4.4-3.4-5.8-2.1-1.5-7-5.1-10.5-8,.4-.7.9-1.6,1.3-2.3,1.4-2.4,2.9-5.1,4.4-8.2,2.7-6,3.5-12.7,2.3-19.1-2.1-10.4-12.2-15.5-19.5-19.3-2.5-1.2-4.9-2.5-7.1-4.1-1.8-1.2-3.6-2.6-5.2-4.1,0-1.3,1.4-4.4,8-12.4,15.5-19.7,28.7-41,39.5-63.5,2-3.5,3.2-7.5,3.3-11.5-.9-8.6-5.5-16.4-12.6-21.4-3.5-3.2-6.8-6.2-7.2-8.9,0-2,.5-4,1.3-5.8h0c5-10.6,9.4-21.6,12.9-32.8.5-2.2.2-4.6-1-6.5-1.2-1.9-3.1-3.3-5.4-3.9-4.6-1-9.2,1.8-10.4,6.3-3.3,10.1-7.3,19.9-11.8,29.5-.2.3-.3.6-.4.9,0,0,0,.2-.1.3h0s0,0,0,0c-2,4.5-2.8,9.4-2.3,14.3,1.7,7.7,6.2,14.4,12.6,19.1,4.2,3.8,7,6.5,7,8.9-.3,1.3-.8,2.5-1.5,3.7-10.3,21.5-23,41.9-37.8,60.8-6.3,7.5-12.8,16.3-11.4,25.1,1.8,6.8,6.3,12.6,12.5,16,2.8,2,5.8,3.7,9,5.1,3.7,1.9,10,5.1,10.4,7.3.5,2.9.2,5.9-1,8.6-1.3,2.7-2.6,5.1-3.8,7.1-3.2,5.5-8.5,14.8-.5,21.2,1.9,1.7,5.1,4.2,8,6.4-2.2,3.7-3.1,8-2.8,12.3.5,3.4,2.3,6.4,5.1,8.4,1.9,1.3,4,2.5,6,3.6,5.1,2.9,7.1,4.2,7.8,6.9.5,3.4.2,6.9-.9,10.3-.5,2.3-1,4.6-1.3,6.8-.9,7.8.1,15.7,2.8,23,3.9,13.6,16.3,23,30.5,23.3,2.4,0,4.8-.3,7.1-.8,24.7-5.8,49-13,72.8-21.5,19.4,11.3,31.6,45.7,34.8,58.5.9,3.8,4.4,6.5,8.4,6.5h0s216.7-.6,216.7-.6c2.8,0,5.3-1.3,6.9-3.5s2.1-5,1.3-7.6ZM38.1,355.2h0c0,0,.2.2.3.2l-.3-.2Z"/></g><path class="uuid-306aa934-2fc7-44c4-ba24-a703555d6c08" d="m77.7,187.2c4.8,0,8.6-3.8,8.6-8.5s-3.9-8.5-8.6-8.5-8.6,3.8-8.6,8.5,3.9,8.5,8.6,8.5Z"/><path class="uuid-306aa934-2fc7-44c4-ba24-a703555d6c08" d="m88,157.9c-2.6,0-5.1-1.2-6.8-3.2-1.6-2-2.2-4.7-1.6-7.3l.9-3.7c1.7-7.8,3.8-15.5,6.4-23.1,6-16.4,15.3-31.5,27.3-44.3,13.2-12.6,29.5-21.7,47.3-26.2,3-1,6.2-.3,8.5,1.8,2.3,2.1,3.3,5.3,2.5,8.3s-3,5.4-6.1,6.2c-14.9,3.7-28.6,11.2-39.8,21.6-10.4,11.1-18.5,24.2-23.7,38.5-2.3,6.9-4.3,14-5.8,21.1l-.9,3.7c-.9,3.9-4.4,6.6-8.4,6.6Z"/></g><path class="uuid-80d22b6b-89ec-4741-9737-687c0b79c284" d="m512,167.3c0,16.1-3.9,71.6-51.5,111.1-32.3,26.8-84.6,33.6-123.4,33.6s-88-7.2-120.6-33.4c-48.4-38.9-53.8-94.7-54.3-110.9-.2-5.6,3.9-10.6,9.5-11.5,6.3-1.1,18.9-2.6,34.7-1.4-5.2-25.1-2.7-46.3-1.2-55.1.9-5.4,5.8-9.4,11.3-9.3,10.8.3,41,2.9,70.4,21.9,5.2-16.3,13.1-29.6,20.7-39.7,7.6-10,14.9-16.8,18.9-20.3,4.2-3.6,10.6-3.5,14.8.4,8.4,7.6,31.1,30.5,42.7,65.2,29.6-22.4,61.4-26.7,75.8-27.5,5.6-.3,10.5,3.6,11.6,9,1.7,8.8,4.8,30.3-.1,55.7,13.1-.9,24,.1,30.9,1.1,5.6.8,9.8,5.6,9.8,11.2Z"/><path class="uuid-ae89633d-7b2c-4b2b-95c0-944e7ffb63c2" d="m322.6,76.4l10.2-11.2c6.3,6.1,13.4,13.9,20.1,23.6,10.5,15.2,16.6,29.8,20.1,40.9l-15.8,19.4c-2.3-11.3-6.4-26-14.6-42-6.5-12.8-13.7-23-20.1-30.8Z"/><path class="uuid-ae89633d-7b2c-4b2b-95c0-944e7ffb63c2" d="m440.3,107.1c5.8-2,11.5-3.9,17.3-5.9h3.7c1.5,8.5,2.6,18.3,2.9,29.2.3,13.7-.7,25.9-2.3,36.1-7,1.2-14,2.5-20.9,3.7,1.2-11,1.9-23.5,1.4-37.2-.3-9.3-1.1-18-2.1-25.9Z"/><path class="uuid-ae89633d-7b2c-4b2b-95c0-944e7ffb63c2" d="m477.6,170h24.7c-.9,13.2-4.7,41.5-24.7,69.3-30.8,42.8-77.3,52.5-88,54.5,12.8-5.5,50.5-23.7,72.5-66.1,11.9-22.8,14.8-44.1,15.5-57.6Z"/><path class="uuid-3ae0b0ab-79dc-4729-bdc4-e5e33a78b04c" d="m502.2,156c-6.9-1-17.8-1.9-30.9-1.1,4.9-25.4,1.9-47,.1-55.7-1.1-5.4-6-9.3-11.6-9-14.4.8-46.3,5.1-75.8,27.5-11.6-34.7-34.3-57.6-42.7-65.2-4.2-3.8-10.6-4-14.8-.4-4,3.4-11.3,10.2-18.9,20.3-7.6,10-15.5,23.3-20.7,39.7-29.4-19-59.6-21.6-70.4-21.9-5.5-.1-10.4,3.9-11.3,9.3-1.5,8.7-4,30,1.2,55.1-15.9-1.1-28.5.4-34.7,1.4-5.6.9-9.7,5.9-9.5,11.5.5,16.2,5.9,72,54.3,110.9,32.6,26.2,82,33.4,120.6,33.4s91.1-6.8,123.4-33.6c47.6-39.4,51.4-95,51.5-111.1,0-5.6-4.2-10.4-9.8-11.2Zm-111.1,1.5c-.2-8-1.1-15.6-2.5-22.8,25.4-21.5,54.1-26.9,67.7-28.2,1.6,10.2,3.1,29.1-1.9,50.5-20,3.6-43.1,11.8-64.9,29.4-.4.3-.7.6-1.1.9,1.9-9.1,3-19,2.7-29.7Zm8.6,41.2c16.2-13,33.4-20.2,49-24.1-3.8,9.3-9.1,18.7-16.3,27.7-21,26.4-48.2,36.8-67.6,40.9,7.2-15.2,18.1-31.1,35-44.6Zm-25.3-49.7c.3,2.9.5,5.8.5,8.8.9,36.1-14.9,61.7-27.9,76.7-.9-20.9,2.4-55.1,27.2-85.3,0,0,.1-.1.2-.2Zm-63.9,93.4c-18.6-4.7-43.8-15.3-63.8-39.6-7.6-9.3-13.2-18.9-17.3-28.5,15.4,4,32,11.3,47.6,24.3,16.2,13.4,26.6,28.9,33.4,43.8Zm-90-136.1c12.7.9,38.3,5,62.3,22.3-1.5,8.7-2.3,18-1.9,28.1.4,9.7,1.7,18.9,3.8,27.4-20.4-16.1-42.1-24-61.2-27.5-5.4-21.2-4.3-40.1-3-50.3Zm6.2,159.5c-41.4-29.4-46.8-76.5-48.1-94.8,7.2-.9,18.7-1.7,32.3-.1,4.7,13.9,12,28.3,23.3,42,26.7,32.4,60.7,43.5,82.9,47.3,5.3,8.4,9,21.9,9,35.2-29.1,0-60.4-1.8-99.4-29.5Zm103.2-29c-13-15.5-31.3-43.6-32.8-80.8-.2-5.1,0-10,.4-14.8,2.5,2.6,5,5.4,7.4,8.4,25.1,31.5,26.8,66.9,25,87.2Zm-12.3-97.2c-5.3-6.7-11-12.4-16.8-17.4,7.4-27.9,23.8-46.5,32.9-55,9.8,9.6,28.6,31.1,37,61.9-3.1,3.1-6.1,6.3-9,9.9-10.7,13-17.9,26.7-22.6,40-4.4-13-11.2-26.4-21.5-39.3Zm132.5,126.2c-37.6,31.2-86.9,30.8-104.5,28.6.5-7.4,2.3-23,12.3-33.8,21.8-3,59.2-13.4,87.1-48.5,10.7-13.4,17.6-27.4,22-40.9,12-1.3,22.1-.8,28.6-.1-.8,18.1-6.8,62.5-45.6,94.6Z"/><path class="uuid-3ae0b0ab-79dc-4729-bdc4-e5e33a78b04c" d="m369.8,28.8C345.1,14.3,311.5,0,259.1,0c-28.1,0-56.2,3.5-83.5,10.4-39.5,9.9-67.2,22.2-86.5,42.4,0,0,0,0,0,0-4.2,4.4-8.1,9-11.7,13.9-1.8,2.4-3.6,4.9-5.2,7.4-1.3,1.9-1.8,4.3-1.3,6.6.5,2.3,1.9,4.2,4,5.4,4,2.3,9.1,1.2,11.8-2.6,1.5-2.3,3-4.5,4.7-6.6,3.2-4.3,6.8-8.5,10.5-12.5h0c16.5-17.3,43.2-27.2,77.4-36.9,26.2-7.4,55.2-13.5,96.3-11.8,33.4,1.4,62.5,13.9,86.7,28,17.9,10.5,34.3,23.5,48.8,38.9,3.2,3.4,8.6,3.5,12,.2h0c3.2-3.1,3.3-8.2.3-11.5-15.8-16.9-33.6-31.3-53.2-42.7Z"/><path class="uuid-3ae0b0ab-79dc-4729-bdc4-e5e33a78b04c" d="m380.5,414.9v-1.2c-1.5-12.2-3.4-28.8.7-48.4,3-14.7,7.1-26.1,10.4-33.9,1.9-4.4,7-6.5,11.4-4.6h0c4.3,1.8,6.4,6.8,4.6,11.1-3.7,8.9-7,19.6-9.2,30.3-3.6,17.4-1.9,32.7-.6,43.8v1.2c.1,0-17.3,1.6-17.3,1.6Z"/></g></g></svg>