<?xml version="1.0" encoding="UTF-8"?><svg id="uuid-a7982d72-7c0b-4cf9-8db8-b96ae61fafda" xmlns="http://www.w3.org/2000/svg" width="512" height="512" viewBox="0 0 512 512"><defs><style>.uuid-75c6c45a-5de6-485f-a56d-79aafa09035b{fill:#b7a097;}.uuid-75c6c45a-5de6-485f-a56d-79aafa09035b,.uuid-5fee2ea4-b37d-4871-af41-63ab178917a4,.uuid-666b704a-265a-400d-b47e-e431bf1adb2e,.uuid-0e454156-0abd-4788-9aa4-72bf62e91109,.uuid-48f28bc9-2557-418e-a5eb-b548c404b5bb,.uuid-67163186-db52-48ad-9b1f-281e3b2c544d{stroke-width:0px;}.uuid-5fee2ea4-b37d-4871-af41-63ab178917a4{fill:#fcede8;}.uuid-666b704a-265a-400d-b47e-e431bf1adb2e{fill:#e5c9be;}.uuid-0e454156-0abd-4788-9aa4-72bf62e91109{fill:#fff;}.uuid-48f28bc9-2557-418e-a5eb-b548c404b5bb{fill:#c08a61;}.uuid-67163186-db52-48ad-9b1f-281e3b2c544d{fill:#a38b7f;opacity:.7;}</style></defs><g id="uuid-3e925f2e-a712-4f25-b39f-9d78e40c54de"><g id="uuid-28513ff8-fdf3-4827-8ff8-c2e5f7da9ddd"><g id="uuid-b0d06a7c-a485-4415-be75-ae4a637c99a1"><path class="uuid-75c6c45a-5de6-485f-a56d-79aafa09035b" d="m397.7,321.4c-11,24.9-15.1,52.3-11.9,79.4,1.9,17.6,5.4,35,10.5,52,2.7,8.8,6.1,17.4,10.2,25.6,5.1,7.8,9.7,15.8,13.7,24.1l-215.4.6h0c-.7-2.6-13.6-52.8-42.3-65.7-5.3,1.9-11,3.8-16.7,5.7-19.1,6.6-38.5,12.2-58.1,16.7-5.4,1.3-11.1.5-16-2.2-5.5-3.4-9.6-8.6-11.6-14.8-2.2-6.1-3.1-12.6-2.4-19,2-6.6,2.6-13.5,2-20.3-2.2-8.6-10.5-10.8-17-15.4-5.3-3.8,4.2-15.8,4.2-15.8,0,0-10.1-7.4-13.7-10.7-3.8-3.1,1.5-8.4,6.3-18.3,1.9-4.3,2.5-9.2,1.6-13.8-1.8-9.1-15.7-12.6-22.6-17.7-3.3-2.4-8.5-6-9.1-10.3-.9-6.1,6.3-14.6,9.8-18.9,15-19.2,27.8-39.9,38.3-61.9,1.4-2.3,2.2-4.9,2.4-7.6-.2-12.2-17.9-17.2-19.6-29.1-.3-3.5.4-7,1.8-10.2,4.9-10.5,9.2-21.2,12.7-32.3,2.1-10.1,4.8-20.1,8.2-29.9,7.2-19.6,18.3-37.6,32.6-52.9,21-22.1,52.1-33,81.5-38.8,26.1-5.7,52.6-9.5,79.2-11.5.9,0,1.7,0,2.6-.2,54.9-2.7,98.4,15.8,140.9,48.9,23.2,17.2,40.2,41.4,48.3,69,6.2,22.8,9.1,46.4,8.7,70-.2,23.3-7,46.1-19.7,65.7-12.8,20.1-29.5,37.5-39.2,59.4Z"/><path class="uuid-0e454156-0abd-4788-9aa4-72bf62e91109" d="m371.3,321.8c-11,24.9-15.1,52.3-11.9,79.4,1.9,17.6,5.4,35,10.5,52,2.7,8.8,6.1,17.4,10.2,25.6,5.1,7.8,9.7,15.8,13.7,24.1l-165.1.4h-24.6c-.6-2.2-11-42.3-33.6-60.2-2.7-2.1-5.6-3.9-8.8-5.4-.3,0-.4.2-.7.3-5.1,1.8-10.6,3.6-16.1,5.5,0,0-.3-.2-.3-.3-2.6-2.2-5.5-4.1-8.7-5.5-14.5,5-31.2,10.6-46.5,15.1-6.5,2-12.8,3.7-18.5,5.1-5.5-3.4-9.6-8.6-11.6-14.8-2.2-6.1-3.1-12.6-2.4-19,2-6.6,2.6-13.5,2-20.3-2.2-8.6-10.5-10.8-17-15.4-5.3-3.8,4.2-15.8,4.2-15.8,0,0-10.1-7.4-13.7-10.7-3.8-3.1,1.5-8.4,6.3-18.3,1.9-4.3,2.5-9.2,1.6-13.8-1.8-9.1-15.7-12.6-22.6-17.7-3.3-2.4-8.5-6-9.1-10.3-.9-6.1,6.3-14.6,9.8-18.9,15-19.2,27.8-39.9,38.3-61.9,1.4-2.3,2.2-4.9,2.4-7.6-.2-12.2-17.9-17.2-19.6-29.1-.3-3.5.4-7,1.8-10.2,4.9-10.5,9.2-21.2,12.7-32.3,2.1-10.1,4.8-20.1,8.2-29.9,7.2-19.6,18.3-37.6,32.6-52.9,21-22.1,52.1-33,81.5-38.8,26.1-5.7,52.6-9.5,79.2-11.5,3.9.3,7.6.6,11.3,1.1,39.3,5.6,76.1,22.1,106.4,47.6,23.2,17.2,40.2,41.4,48.3,69,6.2,22.8,9.1,46.4,8.7,70-.2,23.3-7,46.1-19.7,65.7-12.8,20.1-29.5,37.5-39.2,59.4Z"/><path class="uuid-5fee2ea4-b37d-4871-af41-63ab178917a4" d="m372.5,321.8c-11,24.9-15.1,52.3-11.9,79.4,1.9,17.6,5.4,35,10.5,52,2.7,8.8,6.1,17.4,10.2,25.6,5.1,7.8,9.7,15.8,13.7,24.1l-165.1.4c-.9-3.2-13.9-52.7-42.3-65.5-5.1,1.8-10.4,3.6-15.9,5.4-.3.2-.6.3-.9.3-2.6-2.2-5.5-4.1-8.6-5.5-.2,0-.3-.2-.4-.3-5.1,1.8-10.5,3.6-16,5.5-16.7,5.5-34.7,11.2-49.1,14.8-2.3-1.3-4.4-3.1-6.1-5.1-2.4-2.8-4.3-6.1-5.5-9.6-2.2-6.1-3.1-12.6-2.4-19,2-6.6,2.6-13.5,2-20.3-2.2-8.6-10.5-10.8-17-15.4-5.3-3.8,4.2-15.8,4.2-15.8,0,0-10.1-7.4-13.7-10.7-3.8-3.1,1.5-8.4,6.3-18.3,1.9-4.3,2.5-9.2,1.6-13.8-1.8-9.1-15.7-12.6-22.6-17.7-3.3-2.4-8.5-6-9.1-10.3-.9-6.1,6.3-14.6,9.8-18.9,15-19.2,27.8-39.9,38.3-61.9,1.4-2.3,2.2-4.9,2.4-7.6-.2-12.2-17.9-17.2-19.6-29.1-.3-3.5.4-7,1.8-10.2,4.9-10.5,9.2-21.2,12.7-32.3,2.1-10.1,4.8-20.1,8.2-29.9,7.2-19.6,18.3-37.6,32.6-52.9,21-22.1,52.1-33,81.5-38.8,21.8-4.7,43.8-8.1,65.9-10.4,39.3,5.6,76.1,22.1,106.4,47.6,23.2,17.2,40.2,41.4,48.3,69,6.2,22.8,9.1,46.4,8.7,70-.2,23.3-7,46.1-19.7,65.7-12.8,20.1-29.5,37.5-39.2,59.4Z"/><path class="uuid-0e454156-0abd-4788-9aa4-72bf62e91109" d="m33.4,171.3c3.6-9.3,7.9-17.4,10.7-25.3.7-2,1.3-3.9,1.7-5.8l1.6-6.7c1.1-4.5,2.2-9.2,3.5-13.8,5.5-18.8,14.3-36.4,26-52.2,3.6-4.9,7.6-9.5,11.7-13.9l12.5,11.7c-3.7,3.9-7.2,8.1-10.4,12.4-10.5,14.1-18.4,29.9-23.3,46.6-1.2,4.3-2.3,8.6-3.3,13.1l-1.6,6.7c-.6,2.6-1.4,5.1-2.2,7.5-3.4,9.6-7.8,17.9-10.8,25.9l-16.1-6.1Z"/><path class="uuid-666b704a-265a-400d-b47e-e431bf1adb2e" d="m472.9,203.1l-36.6,36.5-4.9,4.8-85.8-85.3,6.8-6.8c8.4,7.3,21.6,15.2,39.8,15.9,23.7.8,39.5-11.5,46.6-18.1.2-.2.4-.4.6-.6,1.5-1.6,2.3-3.6,2.3-5.6s-1.1-4.8-3.3-6.4c-3.1-2.3-7.5-2-10.3.6-6.2,5.9-18.4,14.8-35.4,14.2-20-.7-33.2-13.9-38-20.2-1.1-1.4-3.1-1.5-4.4-.3l-3,2.9-5.8,5.8-54.6,54.3c-4.3,4.2-11.3,7.1-16.4,2.2-4.9-5.3-2.1-12.4,2.1-16.6l60.4-60.1,28-28.1c30.7-30.5,80.9-30.1,111.6.3,30.7,30.5,30.7,80.1,0,110.6Z"/><path class="uuid-666b704a-265a-400d-b47e-e431bf1adb2e" d="m365.8,315.7c-5.3,5.3-10.8,3.6-13.2,1.1l-105.9-105.3c-3-3-8.3-3.3-11.4-.4-3.3,3.1-3.4,8.3-.2,11.5l106.1,105.5c3.6,3.5,3.7,8.6-1.1,13.4-4.7,4.7-9.9,3.8-13.2.8l-137-136.2c-31-30.8-32-81.1-1.3-112.2,31-31.5,82-31.6,113.3-.6l3.1,3.1,7.2-2.6,12.7,12-63.5,63.2c-13.2,13.2-13,28.7-2.3,39.4,5.3,5.3,12.4,7.8,19.7,7.2.2.4.5.7.9,1l86.8,86.3c2.9,2.9,3.7,8.3-.7,12.7Z"/><path class="uuid-67163186-db52-48ad-9b1f-281e3b2c544d" d="m264.3,70.5c6.9,5,15.5,11.6,23.5,21s9.5,11.9,17.4,23.6l13.6-12.2c-5.5-5.7-11.7-10.2-21.2-16.4-12.5-8.2-24.3-13.1-33.3-15.9Z"/><g id="uuid-f4fa61c5-b989-4100-8286-b18ea63b890e"><path class="uuid-48f28bc9-2557-418e-a5eb-b548c404b5bb" d="m55.2,106.7c-.8,2.2-.8,4.7.1,6.8l.9,1.4c.3.5.8.9,1.2,1.2.4.4.8.7,1.3,1,.5.3,1,.5,1.6.7,2.2.6,4.5.5,6.5-.4,1-.5,1.8-1.1,2.6-1.9,2.2-2.4,2.9-5.9,1.6-8.9-.5-1-1.1-1.9-1.9-2.7-.8-.8-1.7-1.5-2.7-1.9-2.1-.9-4.5-1-6.6-.1-2.1,1-3.8,2.8-4.7,4.9Z"/><path class="uuid-48f28bc9-2557-418e-a5eb-b548c404b5bb" d="m285.5.7c-9.1-.7-18.4-.9-27.9-.4-27.9,1.9-55.7,5.9-83,11.8-38.7,7.7-66.8,21.2-86,41.3,0,0,0,0,0,0-4.2,4.4-8,9-11.7,13.9-1.8,2.4-3.5,4.9-5.2,7.4-1.3,1.9-1.8,4.3-1.3,6.5.5,2.3,1.9,4.2,3.9,5.4,4,2.3,9.1,1.2,11.7-2.6,1.5-2.3,3-4.5,4.6-6.6,3.2-4.3,6.7-8.5,10.4-12.4h0c16.4-17.2,42.3-29.5,76.9-36.3,26.5-5.8,53.4-9.6,80.5-11.5,8.7-.4,17.2-.3,25.5.4,3.8.3,7.4-1.9,8.8-5.5,2-5.3-1.6-11.1-7.2-11.5Z"/><path class="uuid-48f28bc9-2557-418e-a5eb-b548c404b5bb" d="m427.8,500.3c-2.1-5.8-5-11.2-8.7-16.2-2.1-2.9-3.9-6-5.6-9.2-3.9-7.8-7.1-15.9-9.7-24.3-3.5-11.8-7.1-33-9-44.3-.7-4.3-4.5-7.3-8.9-7.1-5.1.2-8.5,4.8-8.1,9.9.9,13.4,5,33.4,9.6,46.6,3.2,9.1,6.4,18.1,10.7,26.7,2,3.9,4.2,7.6,6.6,11.2l.6.8-194.7.5c-5.7-20.2-16-38.9-30.2-54.5l7.7-2.7c5.7-2,10.1-3.5,12.3-4.2,36.8-11.6,55.2-28.2,54.7-49.5-.1-4.6-3.9-8.3-8.6-8.3h-.2c-2.3,0-4.5,1-6,2.6-1.6,1.6-2.4,3.8-2.4,6.1.2,8.8-7,21.6-42.7,32.8-2.3.7-6.8,2.3-12.8,4.4-6.3,2.2-14.3,5-23.2,8,0,0-.2,0-.3,0-24.2,8.8-48.8,16.2-73.8,22.2-8,1.5-15.8-3.5-17.7-11.4-1.8-4.9-2.5-10.1-2-15.2.2-1.8.6-3.6,1-5.4,1.7-5.9,2-12.1.7-18.2-2.5-7.8-8.3-14.2-15.9-17.5l-1.8-1c.9-1.9,2-3.6,3.3-5.3,1.5-1.8,2.1-4.1,1.8-6.4-.3-2.3-1.5-4.4-3.4-5.8-2.1-1.5-6.9-5.1-10.5-8,.4-.7.9-1.6,1.3-2.3,1.3-2.3,2.9-5.1,4.4-8.2,2.7-6,3.5-12.6,2.3-19.1-2.1-10.4-12.1-15.5-19.4-19.2-2.5-1.2-4.8-2.5-7.1-4.1-1.8-1.2-3.6-2.6-5.1-4.1,0-1.3,1.4-4.4,7.9-12.3,15.4-19.7,28.6-40.9,39.3-63.4,2-3.5,3.1-7.5,3.3-11.5-.9-8.6-5.5-16.4-12.5-21.3-3.5-3.2-6.7-6.2-7.1-8.9,0-2,.5-4,1.3-5.8h0c5-10.6,9.3-21.6,12.9-32.7.5-2.2.2-4.5-1-6.5-1.2-1.9-3.1-3.3-5.4-3.9-4.6-1-9.2,1.8-10.3,6.3-3.3,10-7.2,19.9-11.7,29.5-.2.3-.3.6-.4.9,0,0,0,.2-.1.3h0s0,0,0,0c-2,4.5-2.8,9.4-2.3,14.3,1.7,7.6,6.2,14.4,12.5,19.1,4.2,3.8,7,6.5,7,8.9-.3,1.3-.8,2.5-1.5,3.7-10.3,21.5-22.9,41.9-37.6,60.7-6.2,7.5-12.7,16.3-11.4,25.1,1.8,6.8,6.3,12.6,12.5,16,2.8,1.9,5.8,3.7,8.9,5.1,3.7,1.9,9.9,5,10.4,7.3.5,2.9.2,5.9-1,8.6-1.3,2.7-2.6,5.1-3.8,7.1-3.1,5.5-8.4,14.8-.5,21.2,1.9,1.7,5.1,4.2,8,6.4-2.1,3.7-3.1,8-2.8,12.3.5,3.4,2.3,6.4,5.1,8.4,1.9,1.3,3.9,2.5,5.9,3.6,5,2.9,7,4.2,7.7,6.9.5,3.4.2,6.9-.9,10.2-.5,2.3-1,4.6-1.3,6.8-.9,7.8.1,15.6,2.8,23,3.9,13.5,16.2,23,30.3,23.3,2.4,0,4.8-.3,7.1-.8,24.5-5.8,48.7-13,72.4-21.5,19.3,11.3,31.5,45.6,34.6,58.4.9,3.8,4.4,6.5,8.3,6.5h0s215.4-.6,215.4-.6c2.7,0,5.3-1.3,6.9-3.5s2.1-5,1.3-7.6ZM37.9,355.5h0c0,0,.2.2.3.2l-.3-.2Z"/></g><path class="uuid-75c6c45a-5de6-485f-a56d-79aafa09035b" d="m77.3,187.7c4.7,0,8.6-3.8,8.6-8.5s-3.8-8.5-8.6-8.5-8.6,3.8-8.6,8.5,3.8,8.5,8.6,8.5Z"/><path class="uuid-666b704a-265a-400d-b47e-e431bf1adb2e" d="m416.4,265.6c-4,3.9-10,4.3-13.3,1l-82.8-82.3,13.9-13.8,82.8,82.3c2.8,3.3,3.6,8.7-.6,12.8Z"/><path class="uuid-666b704a-265a-400d-b47e-e431bf1adb2e" d="m391.1,290.9c-3.8,3.8-9.9,4.2-13.3.7l-82.9-82.4c1.2-.9,2.4-2,3.6-3.1l10.5-10.5,82.8,82.3c3.7,3.7,2.9,9.3-.7,13Z"/><path class="uuid-75c6c45a-5de6-485f-a56d-79aafa09035b" d="m87.5,158.4c-2.6,0-5.1-1.2-6.7-3.2-1.6-2-2.2-4.7-1.6-7.3l.9-3.7c1.7-7.8,3.8-15.5,6.4-23.1,6-16.4,15.2-31.5,27.2-44.3,13.2-12.6,29.4-21.6,47-26.2,3-1,6.2-.3,8.5,1.8,2.3,2.1,3.3,5.3,2.5,8.3s-3,5.4-6,6.2c-14.8,3.7-28.4,11.2-39.6,21.6-10.4,11.1-18.4,24.2-23.6,38.4-2.3,6.9-4.2,13.9-5.7,21.1l-.9,3.7c-.9,3.9-4.4,6.6-8.4,6.6Z"/><path class="uuid-67163186-db52-48ad-9b1f-281e3b2c544d" d="m372.4,311c-.2-3.5-2-6.5-4.7-8.4-.2-.1-.3-.2-.5-.3-.6-.4-1.3-.7-2-1-1.4.7-3.6,1.6-6.3,1.7-1.4,0-2.7,0-3.9-.4-4.5-1.1-7.5-4-8.2-4.7l-.9.9c1.2,1.1,3.9,4.1,5.2,8.8.1.5.2.9.3,1.4.6,2.9.4,5.5,0,7.3.6,1.2,1.3,2.2,2.2,3.1,2.1,2,5,3.2,8.2,3,6.1-.3,10.7-5.4,10.4-11.4Z"/><path class="uuid-67163186-db52-48ad-9b1f-281e3b2c544d" d="m345.9,335.4c-.2-3.5-2-6.5-4.7-8.4-.2-.1-.3-.2-.5-.3-.6-.4-1.3-.7-2-1-1.4.7-3.6,1.6-6.3,1.7-1.4,0-2.7,0-3.9-.4-4.5-1.1-7.5-4-8.2-4.7l-.9.9c1.2,1.1,3.9,4.1,5.2,8.8.1.5.2.9.3,1.4.6,2.9.4,5.5,0,7.3.6,1.2,1.3,2.2,2.2,3.1,2.1,2,5,3.2,8.2,3,6.1-.3,10.7-5.4,10.4-11.4Z"/><path class="uuid-67163186-db52-48ad-9b1f-281e3b2c544d" d="m396.3,285c-.2-3.5-2-6.5-4.7-8.4-.2-.1-.3-.2-.5-.3-.6-.4-1.3-.7-2-1-1.4.7-3.6,1.6-6.3,1.7-1.4,0-2.7,0-3.9-.4-4.5-1.1-7.5-4-8.2-4.7l-.9.9c1.2,1.1,3.9,4.1,5.2,8.8.1.5.2.9.3,1.4.6,2.9.4,5.5,0,7.3.6,1.2,1.3,2.2,2.2,3.1,2.1,2,5,3.2,8.2,3,6.1-.3,10.7-5.4,10.4-11.4Z"/><path class="uuid-67163186-db52-48ad-9b1f-281e3b2c544d" d="m430.7,68.6c7.5,1,25.1,4.3,41.3,18.1,23.3,19.7,26.7,46.3,27.4,52.7,3.1,30.6-12.6,52.2-16.3,57-24,25.6-50.5,53.4-74.5,79-4.6-4.3-7-9.4-11.6-13.8l55.3-56.1c5.9-6.3,16.6-19.6,21.7-39.7,1.7-6.6,6.1-25.1-.9-47.1-1.3-4.2-6.3-18.6-19.4-32.6-8.4-8.9-17.1-14.4-23.1-17.6Z"/></g><path class="uuid-48f28bc9-2557-418e-a5eb-b548c404b5bb" d="m465.5,232.8c-10.3,10.3-20.8,20.4-31,30.9-2.7,2.7,0,6.7-6.6,13.2-6.1,6.1-12.6,7.4-18,8,0,2-.6,10.1-7.1,17-7,7.3-15.9,7.9-17.7,8-.1,2.2-.9,10.2-7.5,17.1-7,7.3-15.7,8.1-17.8,8.3-.2,2.4-1.4,11.4-9.1,18.4-2,1.8-8.1,7.2-17.5,7.2-9.8,0-16.2-5.9-17.5-7.2l-136.8-136c-37.3-37-38.5-97.3-1.6-134.8,18.8-19.1,43.7-28.7,68.5-28.7s49,9.3,67.7,27.9l4.8,4.7c1.6,1.6,2.4,3.6,2.4,5.7s-.8,4.1-2.4,5.6c-3.1,3.1-8.2,3.1-11.4,0l-4.8-4.8c-31.3-31.1-82.3-30.9-113.3.6-30.7,31.1-29.7,81.4,1.3,112.2l137,136.2c3.3,3,8.5,3.9,13.2-.8,4.8-4.8,4.6-9.9,1.1-13.4l-106.1-105.5c-3.2-3.2-3.1-8.4.2-11.5,3.1-2.9,8.4-2.6,11.4.4l105.9,105.3c2.5,2.5,7.9,4.1,13.2-1.1,4.4-4.3,3.6-9.7.7-12.7l-86.8-86.3c-.3-.3-.6-.6-.9-1-2.3-3.2-2-7.7,1-10.5,3.1-2.9,8.4-2.6,11.4.4l3.6,3.6,82.9,82.4c3.4,3.4,9.4,3,13.3-.7,3.6-3.6,4.4-9.3.7-13l-82.8-82.3-4.1-4c-3.2-3.2-3.1-8.4.2-11.5,3.1-2.9,8.4-2.6,11.4.4l3.8,3.8,82.8,82.3c3.3,3.3,9.3,3,13.3-1,4.2-4.2,3.3-9.5.6-12.8l-86.8-86.3c-3.2-3.2-3.1-8.4.2-11.5,3.1-2.9,8.4-2.6,11.4.4l3.8,3.8,85.8,85.3,4.9-4.8,18-17.9,11.1,11h0Z"/><path class="uuid-48f28bc9-2557-418e-a5eb-b548c404b5bb" d="m484.2,81.2c-37-36.8-97.4-37.1-134.4-.3l-28,28.1,11.4,11.3,28-28.1c30.7-30.5,80.9-30.1,111.6.3,30.7,30.5,30.7,80.1,0,110.6l-36.6,36.5,11,11,18.1-17.8,18.5-18.2c18.5-18.4,28.1-42.6,28.1-66.8,0-24.1-9.3-48.2-27.8-66.6Z"/><path class="uuid-48f28bc9-2557-418e-a5eb-b548c404b5bb" d="m358.9,146l-6.4,6.4-6.8,6.8-11.4,11.3-13.9,13.8-11.4,11.3-10.5,10.5c-1.2,1.1-2.3,2.2-3.6,3.1-5.1,3.9-10.7,6-16.1,6.5-7.3.6-14.3-1.9-19.7-7.2-10.8-10.7-11-26.3,2.3-39.4l60.4-60.1,11.4,11.3-60.4,60.1c-4.2,4.2-7,11.3-2.1,16.6,5,4.9,12.1,2,16.4-2.2l54.6-54.3,5.8-5.8,11.4,11.3Z"/><path class="uuid-48f28bc9-2557-418e-a5eb-b548c404b5bb" d="m441.9,143.9c0,2-.8,4-2.3,5.6-.2.2-.4.4-.6.6-7.1,6.7-22.9,19-46.6,18.1-18.2-.6-31.5-8.6-39.8-15.9-6.4-5.5-10-10.7-10.8-11.9l5.8-5.8,3-2.9c1.3-1.2,3.3-1.1,4.4.3,4.8,6.3,18,19.5,38,20.2,17,.6,29.2-8.3,35.4-14.2,2.8-2.7,7.2-3,10.3-.6,2.2,1.6,3.3,4,3.3,6.4Z"/><path class="uuid-48f28bc9-2557-418e-a5eb-b548c404b5bb" d="m512,147.8c0-24.1-9.3-48.2-27.8-66.6-37-36.8-97.4-37.1-134.4-.3l-19.8,19.8-8.3,8.3-3.5,3.4-56.9,56.6c-13.2,13.2-13,28.7-2.3,39.4,5.3,5.3,12.4,7.8,19.7,7.2.2.4.5.7.9,1l86.8,86.3c2.9,2.9,3.7,8.3-.7,12.7-5.3,5.3-10.8,3.6-13.2,1.1l-105.9-105.3c-3-3-8.3-3.3-11.4-.4-3.3,3.1-3.4,8.3-.2,11.5l106.1,105.5c3.6,3.5,3.7,8.6-1.1,13.4-4.7,4.7-9.9,3.8-13.2.8l-137-136.2c-31-30.8-32-81.1-1.3-112.2,31-31.5,82-31.6,113.3-.6l3.1,3.1,1.7,1.6c3.1,3.1,8.2,3.1,11.4,0,1.6-1.6,2.4-3.6,2.4-5.6s-.3-2.4-.8-3.4c-.4-.8-.9-1.6-1.6-2.2l-4.8-4.7c-18.7-18.6-43.2-27.9-67.7-27.9s-49.7,9.5-68.5,28.7c-36.8,37.4-35.6,97.7,1.6,134.8l136.8,136c1.3,1.3,7.7,7.2,17.5,7.2,9.4,0,15.5-5.4,17.5-7.2,7.7-7,8.8-16,9.1-18.4,2.1-.1,10.7-1,17.8-8.3,6.6-6.9,7.4-14.9,7.5-17.1,1.9,0,10.7-.7,17.7-8,6.5-6.9,7.1-15,7.1-17,5.4-.7,11.9-1.9,18-8,6.6-6.6,3.9-10.5,6.6-13.2,10.2-10.4,20.7-20.6,31-30.9h0s18.5-18.2,18.5-18.2c18.5-18.4,28.1-42.6,28.1-66.8Zm-120.9,143c-3.8,3.8-9.9,4.2-13.3.7l-82.9-82.4c1.2-.9,2.4-2,3.6-3.1l10.5-10.5,82.8,82.3c3.7,3.7,2.9,9.3-.7,13Zm25.4-25.2c-4,3.9-10,4.3-13.3,1l-82.8-82.3,13.9-13.8,82.8,82.3c2.8,3.3,3.6,8.7-.6,12.8Zm19.9-26l-4.9,4.8-85.8-85.3,6.8-6.8c8.4,7.3,21.6,15.2,39.8,15.9,23.7.8,39.5-11.5,46.6-18.1.2-.2.4-.4.6-.6,1.5-1.6,2.3-3.6,2.3-5.6s-1.1-4.8-3.3-6.4c-3.1-2.3-7.5-2-10.3.6-6.2,5.9-18.4,14.8-35.4,14.2-20-.7-33.2-13.9-38-20.2-1.1-1.4-3.1-1.5-4.4-.3l-3,2.9-5.8,5.8-54.6,54.3c-4.3,4.2-11.3,7.1-16.4,2.2-4.9-5.3-2.1-12.4,2.1-16.6l60.4-60.1,28-28.1c30.7-30.5,80.9-30.1,111.6.3,30.7,30.5,30.7,80.1,0,110.6l-36.6,36.5Z"/></g></g></svg>