<?xml version="1.0" encoding="UTF-8"?><svg id="uuid-bd3a55e6-56ed-4d90-a77c-17cea6a67ef1" xmlns="http://www.w3.org/2000/svg" width="512" height="512" viewBox="0 0 512 512"><defs><style>.uuid-b493593e-8f78-4fdd-8cb7-240e2dfa9f4f{fill:#b7a097;}.uuid-b493593e-8f78-4fdd-8cb7-240e2dfa9f4f,.uuid-cd39c12d-2ed3-4c6e-90a2-7e5c1c70af53,.uuid-813d6062-debc-4ffc-ac23-070bbbb323a5,.uuid-0a4cac7e-8f94-419a-957d-f47ab9c514b4,.uuid-21c927ba-85a8-4e6a-8d7f-e7d7c427e4c5,.uuid-126174a6-211a-4082-9094-1647065c77d2,.uuid-1e1ff3fb-8024-4ca3-b203-2981c06e15c2{stroke-width:0px;}.uuid-cd39c12d-2ed3-4c6e-90a2-7e5c1c70af53{fill:#fcede8;}.uuid-813d6062-debc-4ffc-ac23-070bbbb323a5{fill:#e5c9be;}.uuid-0a4cac7e-8f94-419a-957d-f47ab9c514b4{fill:#fff;}.uuid-21c927ba-85a8-4e6a-8d7f-e7d7c427e4c5{fill:#c08a61;}.uuid-126174a6-211a-4082-9094-1647065c77d2{fill:#ceb2a5;}.uuid-1e1ff3fb-8024-4ca3-b203-2981c06e15c2{fill:#a38b7f;opacity:.7;}</style></defs><g id="uuid-efb99700-e9e5-413b-b690-4196d1e30848"><g id="uuid-08b54408-9bd8-45d5-8192-5cbf342d8012"><g id="uuid-871902b1-ed2e-48a1-9e22-72cf5d6ca0bf"><g id="uuid-8ab96db7-9459-4ae5-b34f-7c5193f13e9a"><path class="uuid-b493593e-8f78-4fdd-8cb7-240e2dfa9f4f" d="m396.5,320.4c-11,25.1-15.1,52.6-11.9,79.7,1.9,17.7,5.4,35.2,10.4,52.2,2.7,8.8,6.1,17.4,10.2,25.7,5.1,7.8,9.6,15.9,13.7,24.3l-214.8.6h0c-.7-2.7-13.6-53.1-42.2-66-5.3,1.9-11,3.8-16.7,5.7-19,6.6-38.3,12.2-57.9,16.8-5.4,1.3-11.1.5-15.9-2.2-5.5-3.4-9.6-8.7-11.6-14.8-2.2-6.1-3.1-12.6-2.4-19.1,2-6.6,2.6-13.5,2-20.4-2.2-8.7-10.4-10.8-16.9-15.4-5.3-3.8,4.2-15.9,4.2-15.9,0,0-10.1-7.5-13.7-10.7-3.8-3.1,1.5-8.4,6.2-18.4,1.9-4.4,2.5-9.2,1.6-13.9-1.8-9.2-15.7-12.7-22.5-17.8-3.3-2.4-8.5-6-9.1-10.4-.9-6.1,6.2-14.7,9.8-19,14.9-19.3,27.7-40.1,38.2-62.2,1.4-2.3,2.2-4.9,2.4-7.6-.2-12.3-17.9-17.3-19.5-29.2-.3-3.5.4-7,1.8-10.2,4.9-10.5,9.2-21.3,12.7-32.4,2.1-10.2,4.8-20.2,8.1-30,7.2-19.7,18.2-37.8,32.5-53.2,21-22.2,51.9-33.2,81.2-39,26-5.7,52.4-9.6,79-11.6.9,0,1.7,0,2.6-.2,54.8-2.7,98.1,15.9,140.5,49.1,23.1,17.3,40,41.6,48.2,69.4,6.2,22.9,9.1,46.6,8.6,70.3-.2,23.4-7,46.3-19.7,66-12.8,20.2-29.4,37.6-39.1,59.7Z"/><path class="uuid-0a4cac7e-8f94-419a-957d-f47ab9c514b4" d="m369.9,318.6c-11,25.1-15.1,52.6-11.9,79.7,1.9,17.7,5.4,35.2,10.4,52.2,2.7,8.8,6.1,17.4,10.2,25.7,5.1,7.8,9.6,15.9,13.7,24.3l-164.6.4h-24.6c-.6-2.2-11-42.5-33.5-60.5-2.7-2.2-5.6-4-8.7-5.4-.3,0-.4.2-.7.3-5.1,1.8-10.5,3.6-16,5.5,0,0-.3-.2-.3-.3-2.6-2.2-5.5-4.1-8.6-5.5-14.5,5.1-31.1,10.6-46.4,15.2-6.5,2-12.8,3.7-18.5,5.1-5.5-3.4-9.6-8.7-11.6-14.8-2.2-6.1-3.1-12.6-2.4-19.1,2-6.6,2.6-13.5,2-20.4-2.2-8.7-10.4-10.8-16.9-15.4-5.3-3.8,4.2-15.9,4.2-15.9,0,0-10.1-7.5-13.7-10.7-3.8-3.1,1.5-8.4,6.2-18.4,1.9-4.4,2.5-9.2,1.6-13.9-1.8-9.2-15.7-12.7-22.5-17.8-3.3-2.4-8.5-6-9.1-10.4-.9-6.1,6.2-14.7,9.8-18.9,14.9-19.3,27.7-40.1,38.2-62.2,1.4-2.3,2.2-4.9,2.4-7.6-.2-12.3-17.9-17.3-19.5-29.2-.3-3.5.4-7,1.8-10.2,4.9-10.5,9.2-21.3,12.7-32.4,2.1-10.2,4.8-20.2,8.1-30,7.2-19.7,18.2-37.8,32.5-53.2,21-22.2,51.9-33.2,81.2-39,26-5.7,52.4-9.6,79-11.6,3.9.3,7.6.6,11.3,1.1,39.1,5.7,75.9,22.2,106.1,47.8,23.1,17.3,40,41.6,48.2,69.4,6.2,22.9,9.1,46.6,8.6,70.3-.2,23.4-7,46.3-19.7,66-12.8,20.2-29.4,37.6-39.1,59.7Z"/><path class="uuid-cd39c12d-2ed3-4c6e-90a2-7e5c1c70af53" d="m370.2,320.8c-11,25.1-15.1,52.6-11.9,79.7,1.9,17.7,5.4,35.2,10.4,52.2,2.7,8.8,6.1,17.4,10.2,25.7,5.1,7.8,9.6,15.9,13.7,24.3l-164.6.4c-.9-3.3-13.9-53-42.2-65.9-5,1.8-10.4,3.6-15.8,5.4-.3.2-.6.3-.9.3-2.6-2.2-5.5-4.1-8.6-5.5-.2,0-.3-.2-.4-.3-5,1.8-10.4,3.6-15.9,5.5-16.7,5.6-34.6,11.2-49,14.8-2.3-1.3-4.4-3.1-6.1-5.1-2.4-2.8-4.3-6.1-5.5-9.7-2.2-6.1-3.1-12.6-2.4-19.1,2-6.6,2.6-13.5,2-20.4-2.2-8.7-10.4-10.8-16.9-15.4-5.3-3.8,4.2-15.9,4.2-15.9,0,0-10.1-7.5-13.7-10.7-3.8-3.1,1.5-8.4,6.2-18.4,1.9-4.4,2.5-9.2,1.6-13.9-1.8-9.2-15.7-12.7-22.5-17.8-3.3-2.4-8.5-6-9.1-10.4-.9-6.1,6.2-14.7,9.8-18.9,14.9-19.3,27.7-40.1,38.2-62.2,1.4-2.3,2.2-4.9,2.4-7.6-.2-12.3-17.9-17.3-19.5-29.2-.3-3.5.4-7,1.8-10.2,4.9-10.5,9.2-21.3,12.7-32.4,2.1-10.2,4.8-20.2,8.1-30,7.2-19.7,18.2-37.8,32.5-53.2,21-22.2,51.9-33.2,81.2-39,21.7-4.7,43.6-8.2,65.7-10.5,39.1,5.7,75.9,22.2,106.1,47.8,23.1,17.3,40,41.6,48.2,69.4,6.2,22.9,9.1,46.6,8.6,70.3-.2,23.4-7,46.3-19.7,66-12.8,20.2-29.4,37.6-39.1,59.7Z"/><path class="uuid-0a4cac7e-8f94-419a-957d-f47ab9c514b4" d="m33.3,169.6c3.6-9.4,7.9-17.5,10.6-25.4.7-2,1.2-3.9,1.7-5.9l1.6-6.8c1.1-4.6,2.2-9.2,3.5-13.9,5.5-18.9,14.3-36.6,26-52.4,3.6-4.9,7.5-9.6,11.7-14l12.4,11.8c-3.7,4-7.2,8.1-10.4,12.5-10.5,14.1-18.3,30-23.2,46.9-1.2,4.3-2.3,8.6-3.3,13.1l-1.6,6.8c-.6,2.6-1.4,5.1-2.2,7.5-3.3,9.7-7.8,18-10.8,26l-16-6.1Z"/><g id="uuid-bad36f56-33fd-4663-a465-f8ea006d3319"><path class="uuid-21c927ba-85a8-4e6a-8d7f-e7d7c427e4c5" d="m55,104.7c-.8,2.2-.8,4.7.1,6.9l.9,1.4c.3.5.8.9,1.2,1.2.4.4.8.7,1.3,1,.5.3,1,.5,1.6.7,2.2.6,4.5.5,6.5-.4,1-.5,1.8-1.1,2.6-1.9,2.2-2.4,2.9-5.9,1.6-9-.5-1-1.1-1.9-1.9-2.7-.8-.8-1.7-1.5-2.7-1.9-2.1-.9-4.4-1-6.6-.1-2.1,1-3.8,2.8-4.7,5Z"/><path class="uuid-21c927ba-85a8-4e6a-8d7f-e7d7c427e4c5" d="m426.5,500.3c-2.1-5.8-5-11.3-8.7-16.3-2-3-3.9-6.1-5.5-9.3-3.9-7.9-7.1-16-9.7-24.4-3.5-11.9-7.1-33.2-9-44.5-.7-4.3-4.5-7.4-8.9-7.2-5.1.2-8.4,4.8-8.1,10,.9,13.4,4.9,33.5,9.6,46.8,3.2,9.1,6.4,18.2,10.6,26.8,2,3.9,4.2,7.6,6.6,11.2l.6.9-194.1.5c-5.7-20.3-16-39.1-30.1-54.8l7.7-2.7c5.7-2,10-3.5,12.3-4.2,36.7-11.6,55-28.4,54.5-49.7-.1-4.7-3.9-8.4-8.6-8.4h-.2c-2.3,0-4.4,1-6,2.6-1.6,1.6-2.4,3.8-2.4,6.1.2,8.8-7,21.7-42.6,33-2.3.7-6.8,2.3-12.7,4.4-6.3,2.2-14.3,5-23.1,8,0,0-.2,0-.3,0-24.1,8.8-48.7,16.3-73.6,22.3-8,1.5-15.7-3.5-17.6-11.4-1.8-4.9-2.5-10.1-2-15.3.2-1.8.6-3.6,1-5.4,1.7-5.9,2-12.2.7-18.2-2.5-7.9-8.3-14.3-15.8-17.5l-1.8-1c.9-1.9,2-3.6,3.3-5.3,1.5-1.8,2.1-4.2,1.8-6.5-.3-2.3-1.5-4.4-3.4-5.8-2.1-1.5-6.9-5.1-10.4-8,.4-.7.9-1.6,1.3-2.3,1.3-2.4,2.9-5.1,4.4-8.3,2.7-6,3.5-12.7,2.3-19.2-2.1-10.5-12.1-15.6-19.3-19.3-2.5-1.2-4.8-2.5-7.1-4.1-1.8-1.2-3.5-2.6-5.1-4.2,0-1.3,1.4-4.5,7.9-12.4,15.3-19.8,28.5-41.1,39.2-63.7,2-3.5,3.1-7.5,3.3-11.6-.9-8.6-5.4-16.4-12.5-21.4-3.5-3.2-6.7-6.2-7.1-9,0-2,.5-4,1.3-5.9h0c5-10.7,9.3-21.7,12.8-32.9.5-2.2.2-4.6-1-6.5-1.2-2-3.1-3.3-5.3-3.9-4.6-1-9.1,1.8-10.3,6.3-3.3,10.1-7.2,20-11.7,29.6-.2.3-.3.6-.4.9,0,0,0,.2-.1.3h0s0,0,0,0c-2,4.5-2.7,9.4-2.3,14.3,1.7,7.7,6.1,14.5,12.5,19.2,4.2,3.8,7,6.6,7,8.9-.3,1.3-.8,2.6-1.5,3.7-10.2,21.6-22.8,42.1-37.4,61-6.2,7.6-12.7,16.4-11.3,25.2,1.8,6.8,6.3,12.6,12.4,16.1,2.8,2,5.8,3.7,8.9,5.1,3.7,1.9,9.9,5.1,10.3,7.3.5,2.9.2,5.9-1,8.7-1.3,2.7-2.6,5.1-3.8,7.1-3.1,5.5-8.4,14.8-.5,21.3,1.8,1.7,5,4.2,8,6.4-2.1,3.8-3.1,8.1-2.8,12.4.5,3.4,2.3,6.4,5.1,8.4,1.9,1.3,3.9,2.5,5.9,3.6,5,2.9,7,4.2,7.7,6.9.5,3.5.2,7-.9,10.3-.5,2.3-1,4.6-1.3,6.9-.8,7.8.1,15.7,2.8,23.1,3.8,13.6,16.1,23.1,30.2,23.4,2.4,0,4.7-.3,7.1-.8,24.5-5.8,48.6-13.1,72.2-21.6,19.2,11.4,31.4,45.8,34.5,58.7.9,3.8,4.4,6.5,8.3,6.5h0s214.8-.6,214.8-.6c2.7,0,5.3-1.3,6.9-3.5s2.1-5,1.3-7.6ZM37.8,354.7h0c0,0,.2.2.3.2l-.3-.2Z"/></g><path class="uuid-b493593e-8f78-4fdd-8cb7-240e2dfa9f4f" d="m77,186.1c4.7,0,8.6-3.8,8.6-8.6s-3.8-8.6-8.6-8.6-8.6,3.8-8.6,8.6,3.8,8.6,8.6,8.6Z"/></g><path class="uuid-813d6062-debc-4ffc-ac23-070bbbb323a5" d="m503.4,34.8v225c-1.5.6-3.1.9-4.8.9h-121.9v14.5c0,3.1-1.1,6-2.8,8.3h-78.5c-1.8-2.3-2.8-5.1-2.8-8.3v-14.5h-122c-1.7,0-3.4-.3-4.9-.9V34.8h337.7Z"/><rect class="uuid-1e1ff3fb-8024-4ca3-b203-2981c06e15c2" x="380" y="134.3" width="215.1" height="16" rx="8" ry="8" transform="translate(345.3 629.8) rotate(-90)"/><path class="uuid-21c927ba-85a8-4e6a-8d7f-e7d7c427e4c5" d="m512,39.3v207.9c0,5.7-3.6,10.6-8.6,12.5-1.5.6-3.1.9-4.8.9h-121.9v14.5c0,3.1-1.1,6-2.8,8.3-2.4,3.1-6.2,5.1-10.5,5.1h-57.4c-4.3,0-8.1-2-10.5-5.1-1.8-2.3-2.8-5.1-2.8-8.3v-14.5h-122c-1.7,0-3.4-.3-4.9-.9-5-1.9-8.5-6.8-8.5-12.5V39.3c0-7.4,6-13.4,13.4-13.4h34.4v16.1h-31.7v202.6h122.7c7,0,12.6,5.7,12.6,12.7v15.3h52.1v-15.3c0-7,5.7-12.7,12.6-12.7h122.7V42h-27.5v-16.1h30.2c7.4,0,13.4,6,13.4,13.4Z"/><path class="uuid-21c927ba-85a8-4e6a-8d7f-e7d7c427e4c5" d="m463.2,0h-99.2c-11.9,0-22.5,5.6-29.4,14.3-6.8-8.7-17.5-14.3-29.4-14.3h-99.2c-9,0-16.4,7.3-16.4,16.4v194.7c0,9.1,7.4,16.5,16.5,16.5h256.9c9.1,0,16.5-7.4,16.5-16.5V16.4c0-9.1-7.3-16.4-16.4-16.4Zm-136.6,211.5h-120.4c-.2,0-.4-.2-.4-.4V16.4c0-.2.1-.3.3-.3h99.2c11.8,0,21.4,9.6,21.4,21.4v174.1Zm136.9-.4c0,.2-.2.4-.4.4h-120.4V37.5c0-11.8,9.6-21.4,21.4-21.4h99.2c.2,0,.3.1.3.3v194.7Z"/><path class="uuid-0a4cac7e-8f94-419a-957d-f47ab9c514b4" d="m326.6,37.5v174.1h-120.4c-.2,0-.4-.2-.4-.4V16.4c0-.2.1-.3.3-.3h99.2c11.8,0,21.4,9.6,21.4,21.4Z"/><path class="uuid-0a4cac7e-8f94-419a-957d-f47ab9c514b4" d="m463.5,16.4v194.7c0,.2-.2.4-.4.4h-120.4V37.5c0-11.8,9.6-21.4,21.4-21.4h99.2c.2,0,.3.1.3.3Z"/><rect class="uuid-b493593e-8f78-4fdd-8cb7-240e2dfa9f4f" x="225.3" y="126.2" width="83.8" height="16.1" rx="8" ry="8"/><rect class="uuid-b493593e-8f78-4fdd-8cb7-240e2dfa9f4f" x="225.3" y="42" width="83.8" height="16.1" rx="8" ry="8"/><rect class="uuid-b493593e-8f78-4fdd-8cb7-240e2dfa9f4f" x="225.3" y="84.1" width="83.8" height="16.1" rx="8" ry="8"/><rect class="uuid-b493593e-8f78-4fdd-8cb7-240e2dfa9f4f" x="360.7" y="126.2" width="83.8" height="16.1" rx="8" ry="8"/><rect class="uuid-b493593e-8f78-4fdd-8cb7-240e2dfa9f4f" x="360.7" y="42" width="83.8" height="16.1" rx="8" ry="8"/><rect class="uuid-b493593e-8f78-4fdd-8cb7-240e2dfa9f4f" x="360.7" y="84.1" width="83.8" height="16.1" rx="8" ry="8"/><path class="uuid-21c927ba-85a8-4e6a-8d7f-e7d7c427e4c5" d="m313.8,168.9h-123.2v16.1h123.7c5.5,0,10.2,3.4,12.2,8.1h16.1c-2.4-13.8-14.4-24.2-28.8-24.2Z"/><path class="uuid-21c927ba-85a8-4e6a-8d7f-e7d7c427e4c5" d="m326.6,193.2h16.1c2-4.8,6.7-8.1,12.2-8.1h123.7s0-16.1,0-16.1h-123.2c-14.4,0-26.4,10.5-28.8,24.2Z"/><rect class="uuid-21c927ba-85a8-4e6a-8d7f-e7d7c427e4c5" x="292.6" y="203.5" width="83.9" height="16" rx="8" ry="8" transform="translate(123.1 546.1) rotate(-90)"/><rect class="uuid-126174a6-211a-4082-9094-1647065c77d2" x="347.9" y="107.6" width="215.1" height="16" rx="8" ry="8" transform="translate(339.8 571.1) rotate(-90)"/><path class="uuid-21c927ba-85a8-4e6a-8d7f-e7d7c427e4c5" d="m463.2,0h-99.2c-11.9,0-22.5,5.6-29.4,14.3-6.8-8.7-17.5-14.3-29.4-14.3h-99.2c-9,0-16.4,7.3-16.4,16.4v194.7c0,9.1,7.4,16.5,16.5,16.5h256.9c9.1,0,16.5-7.4,16.5-16.5V16.4c0-9.1-7.3-16.4-16.4-16.4Zm-136.6,211.5h-120.4c-.2,0-.4-.2-.4-.4V16.4c0-.2.1-.3.3-.3h99.2c11.8,0,21.4,9.6,21.4,21.4v174.1Zm136.9-.4c0,.2-.2.4-.4.4h-120.4V37.5c0-11.8,9.6-21.4,21.4-21.4h99.2c.2,0,.3.1.3.3v194.7Z"/><path class="uuid-21c927ba-85a8-4e6a-8d7f-e7d7c427e4c5" d="m72.4,90.5h0c-4.2-1.9-6-6.9-3.9-11,6.3-12.1,14.4-22.9,24.2-32.5,9.7-9.4,20.7-17.1,32.7-22.9,4.2-2,9.2,0,10.9,4.2h0c1.6,3.9-.2,8.4-4,10.3-10.5,5.1-20,11.8-28.4,19.9-8.6,8.3-15.6,17.8-21.1,28.2-2,3.8-6.5,5.4-10.4,3.7Z"/><path class="uuid-b493593e-8f78-4fdd-8cb7-240e2dfa9f4f" d="m87.6,154.2h0c-4.6-.4-7.9-4.6-7.2-9.2,2.4-15.4,7.4-30.5,14.9-44.1,7.1-13,16.1-24.5,26.9-34.5s8.7-2.7,11.6.9h0c2.7,3.3,2.3,8.1-.8,11-9.5,8.7-17.4,18.9-23.6,30.3-6.5,11.9-11,25.2-13.1,38.7s-4.4,7.2-8.6,6.8Z"/></g><path class="uuid-21c927ba-85a8-4e6a-8d7f-e7d7c427e4c5" d="m388.7,423c-4.5,1.1-10.3-1.7-11.1-6.2-3.8-20.1-4.2-48.2,4.4-79.3,5.1-18.6,13.2-36,24.2-52s7.8-4.6,11.5-1.9h0c3.4,2.6,4.2,7.4,1.8,10.9-10,14.5-17.3,30.4-22,47.2-7.8,28.4-6.5,46.8-2.7,72.1s-1.9,8.2-6,9.2h0Z"/></g></g></svg>