<?xml version="1.0" encoding="UTF-8"?><svg id="uuid-d11a14c5-b9f0-4209-a05f-3e6121905e95" xmlns="http://www.w3.org/2000/svg" width="512" height="512" viewBox="0 0 512 512"><defs><style>.uuid-ea364c1d-186f-406b-b0a0-c91306e488cd{fill:#b7a097;}.uuid-ea364c1d-186f-406b-b0a0-c91306e488cd,.uuid-3cf6c228-c791-4689-b59a-3a5901b6f54d,.uuid-0cb92eba-1c10-4e3f-93e3-a235ca8262e6,.uuid-2d34ebd7-d4b4-4c2e-836f-bfa1ebf94b66,.uuid-49fe1246-4a9e-4712-88a1-06cef58b7dc9,.uuid-ed80e84d-00a0-4912-9df5-7d1bf6150bf6{stroke-width:0px;}.uuid-3cf6c228-c791-4689-b59a-3a5901b6f54d{fill:#fcede8;}.uuid-0cb92eba-1c10-4e3f-93e3-a235ca8262e6{fill:#e5c9be;}.uuid-2d34ebd7-d4b4-4c2e-836f-bfa1ebf94b66{fill:#fff;}.uuid-49fe1246-4a9e-4712-88a1-06cef58b7dc9{fill:#c08a61;}.uuid-ed80e84d-00a0-4912-9df5-7d1bf6150bf6{fill:#a38b7f;opacity:.7;}</style></defs><g id="uuid-9620b1a1-909e-48a2-8d1e-3611619dfbec"><g id="uuid-7987f5c2-3a5f-4f8e-9db8-4bbc70fa1037"><g id="uuid-389a0c3d-0559-408e-9e9c-9312d561a129"><path class="uuid-ea364c1d-186f-406b-b0a0-c91306e488cd" d="m407.1,321.5c-11.2,24.9-15.5,52.3-12.2,79.3,2,17.6,5.6,35,10.7,51.9,2.8,8.8,6.3,17.3,10.5,25.6,5.2,7.8,9.9,15.8,14.1,24.1l-220.5.6h0c-.7-2.6-14-52.8-43.3-65.7-5.4,1.9-11.2,3.8-17.1,5.7-19.5,6.6-39.4,12.1-59.5,16.7-5.5,1.3-11.4.5-16.3-2.2-5.7-3.4-9.9-8.6-11.9-14.8-2.3-6.1-3.1-12.6-2.5-19,2-6.6,2.7-13.5,2-20.3-2.3-8.6-10.7-10.7-17.4-15.3-5.4-3.8,4.3-15.8,4.3-15.8,0,0-10.4-7.4-14.1-10.7-3.9-3.1,1.6-8.4,6.4-18.3,2-4.3,2.6-9.2,1.7-13.8-1.8-9.1-16.1-12.6-23.1-17.6-3.3-2.4-8.7-6-9.3-10.3-1-6.1,6.4-14.6,10-18.8,15.3-19.2,28.5-39.9,39.2-61.8,1.4-2.3,2.2-4.9,2.5-7.6-.2-12.2-18.4-17.2-20-29.1-.3-3.5.4-7,1.8-10.1,5.1-10.5,9.4-21.2,13-32.2,2.2-10.1,5-20.1,8.3-29.8,7.4-19.6,18.7-37.6,33.4-52.9,21.5-22.1,53.3-33,83.4-38.8,26.7-5.7,53.8-9.5,81.1-11.5.9,0,1.8,0,2.6-.2,56.2-2.7,100.7,15.8,144.3,48.9,23.7,17.2,41.1,41.4,49.5,69,6.4,22.8,9.4,46.3,8.9,69.9-.2,23.3-7.2,46.1-20.2,65.7-13.1,20-30.2,37.4-40.2,59.3Z"/><path class="uuid-2d34ebd7-d4b4-4c2e-836f-bfa1ebf94b66" d="m380.1,321.9c-11.2,24.9-15.5,52.3-12.2,79.3,2,17.6,5.6,35,10.7,51.9,2.8,8.8,6.3,17.3,10.5,25.6,5.2,7.8,9.9,15.8,14.1,24.1l-169,.4h-25.2c-.6-2.2-11.2-42.3-34.4-60.1-2.8-2.1-5.8-3.9-9-5.4-.3,0-.4.2-.7.3-5.3,1.8-10.8,3.6-16.4,5.5,0,0-.3-.2-.4-.3-2.7-2.2-5.7-4.1-8.9-5.5-14.8,5-32,10.6-47.6,15.1-6.7,2-13.1,3.7-19,5.1-5.7-3.4-9.9-8.6-11.9-14.8-2.3-6.1-3.1-12.6-2.5-19,2-6.6,2.7-13.5,2-20.3-2.3-8.6-10.7-10.7-17.4-15.3-5.4-3.8,4.3-15.8,4.3-15.8,0,0-10.4-7.4-14.1-10.7-3.9-3.1,1.6-8.4,6.4-18.3,2-4.3,2.6-9.2,1.7-13.8-1.8-9.1-16.1-12.6-23.1-17.6-3.3-2.4-8.7-6-9.3-10.3-1-6.1,6.4-14.6,10-18.8,15.3-19.2,28.5-39.9,39.2-61.8,1.4-2.3,2.2-4.9,2.5-7.6-.2-12.2-18.4-17.2-20-29.1-.3-3.5.4-7,1.8-10.1,5.1-10.5,9.4-21.2,13-32.2,2.2-10.1,5-20.1,8.3-29.8,7.4-19.6,18.7-37.6,33.4-52.9,21.5-22.1,53.3-33,83.4-38.8,26.7-5.7,53.8-9.5,81.1-11.5,4,.3,7.8.6,11.6,1.1,40.2,5.6,78,22.1,109,47.6,23.7,17.2,41.1,41.4,49.5,69,6.4,22.8,9.4,46.3,8.9,69.9-.2,23.3-7.2,46.1-20.2,65.7-13.1,20-30.2,37.4-40.2,59.3Z"/><path class="uuid-3cf6c228-c791-4689-b59a-3a5901b6f54d" d="m380.1,321.9c-11.2,24.9-15.5,52.3-12.2,79.3,2,17.6,5.6,35,10.7,51.9,2.8,8.8,6.3,17.3,10.5,25.6,5.2,7.8,9.9,15.8,14.1,24.1l-169,.4c-.9-3.2-14.2-52.7-43.3-65.5-5.2,1.8-10.6,3.6-16.3,5.4-.3.1-.6.3-.9.3-2.6-2.2-5.6-4.1-8.8-5.5-.2,0-.3-.2-.4-.3-5.2,1.8-10.7,3.6-16.3,5.5-17.1,5.5-35.5,11.2-50.3,14.8-2.4-1.3-4.5-3.1-6.2-5.1-2.5-2.8-4.4-6.1-5.6-9.6-2.3-6.1-3.1-12.6-2.5-19,2-6.6,2.7-13.5,2-20.3-2.3-8.6-10.7-10.7-17.4-15.3-5.4-3.8,4.3-15.8,4.3-15.8,0,0-10.4-7.4-14.1-10.7-3.9-3.1,1.6-8.4,6.4-18.3,2-4.3,2.6-9.2,1.7-13.8-1.8-9.1-16.1-12.6-23.1-17.6-3.3-2.4-8.7-6-9.3-10.3-1-6.1,6.4-14.6,10-18.8,15.3-19.2,28.5-39.9,39.2-61.8,1.4-2.3,2.2-4.9,2.5-7.6-.2-12.2-18.4-17.2-20-29.1-.3-3.5.4-7,1.8-10.1,5.1-10.5,9.4-21.2,13-32.2,2.2-10.1,5-20.1,8.3-29.8,7.4-19.6,18.7-37.6,33.4-52.9,21.5-22.1,53.3-33,83.4-38.8,22.3-4.7,44.8-8.1,67.5-10.4,40.2,5.6,78,22.1,109,47.6,23.7,17.2,41.1,41.4,49.5,69,6.4,22.8,9.4,46.3,8.9,69.9-.2,23.3-7.2,46.1-20.2,65.7-13.1,20-30.2,37.4-40.2,59.3Z"/><path class="uuid-2d34ebd7-d4b4-4c2e-836f-bfa1ebf94b66" d="m34.2,171.5c3.7-9.3,8.1-17.4,10.9-25.3.7-2,1.3-3.9,1.8-5.8l1.6-6.7c1.1-4.5,2.2-9.2,3.6-13.8,5.6-18.8,14.7-36.4,26.7-52.1,3.7-4.9,7.7-9.5,12-13.9l12.8,11.7c-3.8,3.9-7.4,8.1-10.7,12.4-10.7,14-18.8,29.8-23.9,46.6-1.2,4.3-2.3,8.6-3.4,13l-1.6,6.7c-.6,2.6-1.4,5.1-2.2,7.5-3.4,9.6-8,17.9-11.1,25.8l-16.4-6.1Z"/><g id="uuid-e198629b-e225-411c-a73d-d7c57fa95e40"><path class="uuid-49fe1246-4a9e-4712-88a1-06cef58b7dc9" d="m56.5,107c-.9,2.2-.8,4.7.1,6.8l.9,1.4c.4.5.8.9,1.3,1.2.4.4.8.7,1.3,1,.5.3,1.1.5,1.6.7,2.2.6,4.6.5,6.7-.4,1-.5,1.9-1.1,2.6-1.9,2.3-2.4,3-5.9,1.7-8.9-.5-1-1.1-1.9-1.9-2.7-.8-.8-1.7-1.5-2.8-1.9-2.1-.9-4.6-1-6.7-.1-2.2,1-3.9,2.8-4.8,4.9Z"/><path class="uuid-49fe1246-4a9e-4712-88a1-06cef58b7dc9" d="m292.3,1.1c-9.3-.7-18.8-.9-28.5-.4-28.6,1.9-57,5.9-85,11.8-39.6,7.7-68.4,21.2-88.1,41.3,0,0,0,0,0,0-4.2,4.4-8.2,9-11.9,13.9-1.9,2.4-3.6,4.9-5.3,7.4-1.4,1.9-1.8,4.3-1.3,6.5.5,2.3,2,4.2,4,5.4,4.1,2.3,9.3,1.2,12-2.6,1.5-2.3,3.1-4.5,4.8-6.6,3.3-4.3,6.9-8.5,10.7-12.4h0c16.8-17.2,43.3-29.5,78.8-36.3,27.2-5.8,54.7-9.6,82.4-11.5,8.9-.4,17.6-.3,26.1.4,3.9.3,7.6-1.9,9-5.5,2.1-5.3-1.6-11.1-7.4-11.5Z"/><path class="uuid-49fe1246-4a9e-4712-88a1-06cef58b7dc9" d="m437.9,500.3c-2.2-5.8-5.2-11.2-8.9-16.2-2.1-2.9-4-6-5.7-9.2-4-7.8-7.3-15.9-9.9-24.3-3.6-11.8-7.3-33-9.2-44.3-.7-4.3-4.6-7.3-9.1-7.1-5.3.2-8.7,4.8-8.3,9.9,1,13.3,5.1,33.3,9.8,46.5,3.2,9.1,6.5,18.1,10.9,26.7,2,3.9,4.3,7.6,6.8,11.2l.6.8-199.3.5c-5.8-20.2-16.4-38.9-30.9-54.5l7.9-2.7c5.9-2,10.3-3.5,12.6-4.2,37.6-11.6,56.5-28.2,56-49.5-.1-4.6-4-8.3-8.8-8.3h-.2c-2.3,0-4.6,1-6.2,2.6-1.6,1.6-2.5,3.8-2.4,6.1.2,8.8-7.2,21.6-43.7,32.8-2.4.7-7,2.3-13.1,4.4-6.5,2.2-14.7,5-23.7,8,0,0-.2,0-.3,0-24.7,8.8-50,16.2-75.6,22.2-8.2,1.5-16.2-3.5-18.1-11.3-1.9-4.9-2.6-10.1-2.1-15.2.2-1.8.7-3.6,1.1-5.3,1.8-5.9,2.1-12.1.8-18.1-2.6-7.8-8.5-14.2-16.3-17.4l-1.8-1c.9-1.9,2.1-3.6,3.4-5.3,1.5-1.8,2.2-4.1,1.8-6.4-.3-2.3-1.6-4.4-3.5-5.7-2.1-1.5-7.1-5.1-10.7-8,.4-.7.9-1.6,1.3-2.3,1.4-2.3,3-5.1,4.5-8.2,2.8-6,3.6-12.6,2.3-19.1-2.1-10.4-12.4-15.5-19.9-19.2-2.5-1.2-5-2.5-7.2-4.1-1.9-1.2-3.6-2.6-5.3-4.1,0-1.3,1.4-4.4,8.1-12.3,15.7-19.6,29.2-40.9,40.2-63.4,2.1-3.5,3.2-7.5,3.4-11.5-.9-8.6-5.6-16.3-12.8-21.3-3.5-3.2-6.9-6.1-7.3-8.9,0-2,.5-4,1.4-5.8h0c5.1-10.6,9.5-21.5,13.2-32.7.6-2.2.2-4.5-1-6.5-1.2-1.9-3.2-3.3-5.5-3.8-4.7-1-9.4,1.8-10.5,6.3-3.4,10-7.4,19.9-12,29.5-.2.3-.3.6-.4.9,0,0,0,.2-.1.3h0s0,0,0,0c-2,4.5-2.8,9.4-2.3,14.3,1.8,7.6,6.3,14.4,12.8,19.1,4.3,3.8,7.2,6.5,7.2,8.9-.3,1.3-.8,2.5-1.5,3.7-10.5,21.5-23.4,41.8-38.4,60.6-6.4,7.5-13,16.3-11.6,25.1,1.9,6.8,6.5,12.6,12.8,16,2.9,1.9,5.9,3.7,9.1,5.1,3.8,1.9,10.2,5,10.6,7.2.6,2.9.2,5.9-1,8.6-1.3,2.7-2.7,5.1-3.9,7.1-3.2,5.5-8.6,14.8-.5,21.2,1.9,1.7,5.2,4.2,8.2,6.4-2.2,3.7-3.2,8-2.9,12.3.5,3.4,2.4,6.4,5.2,8.4,2,1.3,4,2.5,6.1,3.6,5.2,2.9,7.2,4.2,7.9,6.9.5,3.4.2,6.9-.9,10.2-.5,2.3-1,4.6-1.3,6.8-.9,7.8.1,15.6,2.9,23,3.9,13.5,16.6,23,31.1,23.2,2.4,0,4.9-.3,7.2-.8,25.1-5.8,49.9-13,74.1-21.5,19.7,11.3,32.2,45.6,35.5,58.4,1,3.8,4.5,6.5,8.5,6.5h0s220.5-.6,220.5-.6c2.8,0,5.4-1.3,7.1-3.5s2.1-5,1.3-7.6ZM38.8,355.6h0c0,0,.2.2.3.2l-.3-.2Z"/></g><path class="uuid-49fe1246-4a9e-4712-88a1-06cef58b7dc9" d="m390.6,428.1c-4.3-16.9-6.1-34.2-5.2-51.6,1.2-22.8,6.8-40.4,10-48.9,6.3-16.7,13-25.7,20.9-36,4.3-5.7,9.3-12.3,14.8-21.1,5.6-9,20.5-32.9,26.5-60.5,11.3-51.4-12.2-95.9-17-104.3-20.9-36.5-51.4-53.2-69.6-63.2-27.9-15.3-59.9-24.1-92.3-25.5l.7-17c35,1.5,69.6,11,99.8,27.6,18.5,10.1,52.9,29,76.2,69.6,5.4,9.3,31.5,58.9,18.9,116.4-6.7,30.4-22.7,56.1-28.7,65.8-5.9,9.5-11.1,16.3-15.6,22.4-7.3,9.7-13.1,17.3-18.5,31.7-2.9,7.6-7.8,23.4-8.9,43.9-.8,15.7.7,31.3,4.6,46.5l-16.5,4.2Z"/></g><path class="uuid-ea364c1d-186f-406b-b0a0-c91306e488cd" d="m80.4,187.1c4.7,0,8.6-3.8,8.6-8.5s-3.8-8.5-8.6-8.5-8.6,3.8-8.6,8.5,3.8,8.5,8.6,8.5Z"/><path class="uuid-ea364c1d-186f-406b-b0a0-c91306e488cd" d="m90.7,157.8c-2.6,0-5.1-1.2-6.7-3.2-1.6-2-2.2-4.7-1.6-7.2l.9-3.7c1.7-7.8,3.8-15.5,6.3-23.1,6-16.4,15.2-31.5,27.1-44.2,13.1-12.6,29.3-21.6,47-26.2,2.9-1,6.2-.3,8.5,1.8,2.3,2.1,3.2,5.3,2.5,8.3s-3,5.4-6,6.2c-14.8,3.7-28.4,11.2-39.5,21.6-10.3,11.1-18.3,24.1-23.5,38.4-2.3,6.9-4.2,13.9-5.7,21.1l-.9,3.7c-.9,3.9-4.4,6.6-8.3,6.6Z"/><path class="uuid-0cb92eba-1c10-4e3f-93e3-a235ca8262e6" d="m312,240.6c-7.6,3.2-17.1,4.8-28.2,4.8h0c-24.6,0-50.2-7.9-63.5-14,10-14.3,28.9-34.4,54.2-49.3,8.8-5.2,18.5-7.8,28.9-7.8,21.9,0,40,11.9,43.4,18.1,1.9,6.1-4.5,35.4-34.7,48.1Z"/><path class="uuid-0cb92eba-1c10-4e3f-93e3-a235ca8262e6" d="m495.9,353c0,27.4-22.4,49.7-50,49.7h-87.1c-27.5,0-50-22.3-50-49.7s12.8-38.5,30.9-46c5.7-2.4,11.9-3.7,18.5-3.8,2.9-6.2,7.1-11.6,12.3-16,8.6-7.3,19.7-11.8,31.8-11.8s23.3,4.4,31.8,11.8c5.1,4.4,9.3,9.8,12.3,16,6.5,0,12.8,1.4,18.5,3.7,18.1,7.5,30.9,25.3,30.9,46Z"/><path class="uuid-0cb92eba-1c10-4e3f-93e3-a235ca8262e6" d="m453,90.9c-14.6,32.1-42.1,46.6-56.2,52.2-10-12.2-14.9-25-14.8-38.2.2-16.7,8.2-30.3,14.9-38.8,20.1-25.6,47.7-35.8,60.3-39.3,3.4,13.9,6.4,40.8-4.2,64.2Z"/><path class="uuid-ed80e84d-00a0-4912-9df5-7d1bf6150bf6" d="m409.6,275.9c3.2,1.9,7.2,4.8,11.2,9,2.6,2.8,4.6,5.5,6.1,7.9,5.1.3,13.8,1.5,23.1,6.4,2.9,1.5,15.1,8.2,23.3,22.7,10.3,18,7.5,35.7,6.6,40.2-4.8,25.3-24.4,38.2-27.9,40.4,4,1.3,11.7,3.1,20.5.9,13.2-3.3,20.2-13.4,24.5-19.5,2.8-4.1,11.3-16.6,10.4-34.2-.7-15.7-8.4-26.3-13.3-33-7.4-10.2-15.3-15.8-23-21.2-3.7-2.6-10.9-2-16.4-5s-11.4-10.6-20.8-12.6c-10-2.2-18.6-2.2-24.5-1.9Z"/><path class="uuid-ed80e84d-00a0-4912-9df5-7d1bf6150bf6" d="m460.9,30.8c-5.6,7.2-11.1,14.5-16.7,21.7.7,8.5.8,23.5-5.7,40.4-9.1,23.8-25.8,37.2-33,42.3-.2,4.5-.4,9.1-.6,13.6,7.5-1.9,20-6.1,31.7-16.2,12.3-10.6,17.6-22.4,23-34.2,4.4-9.8,10-25,12.1-44.9-3.6-7.6-7.2-15.1-10.8-22.7Z"/><path class="uuid-49fe1246-4a9e-4712-88a1-06cef58b7dc9" d="m456.3,288.1c-11.6-17.2-31.4-28.6-53.9-28.6s-42.2,11.3-53.9,28.6c-14.1,2.2-26.7,8.8-36.4,18.4-12,11.9-19.3,28.3-19.3,46.5,0,36.3,29.6,65.7,66,65.7h87.1c18.2,0,34.7-7.4,46.7-19.2,11.9-11.9,19.3-28.3,19.3-46.5,0-32.8-24.1-60-55.7-64.9Zm-10.3,114.6h-87.1c-27.5,0-50-22.3-50-49.7s12.8-38.5,30.9-46c5.7-2.4,11.9-3.7,18.5-3.8,2.9-6.2,7.1-11.6,12.3-16,8.6-7.3,19.7-11.8,31.8-11.8s23.3,4.4,31.8,11.8c5.1,4.4,9.3,9.8,12.3,16,6.5,0,12.8,1.4,18.5,3.7,18.1,7.5,30.9,25.3,30.9,46s-22.4,49.7-50,49.7Z"/><path class="uuid-49fe1246-4a9e-4712-88a1-06cef58b7dc9" d="m361.2,185.3c-9.1-17.7-55-40.4-94.9-17-35,20.6-58.4,50.2-65.9,64.9-1.1,2.2.2,5,2.2,6.5,14.4,11,76.6,32.1,115.7,15.5,38.9-16.5,49.7-56.7,42.9-69.9Zm-49.2,55.2c-7.6,3.2-17.1,4.8-28.2,4.8h0c-24.6,0-50.2-7.9-63.5-14,10-14.3,28.9-34.4,54.2-49.3,8.8-5.2,18.5-7.8,28.9-7.8,21.9,0,40,11.9,43.4,18.1,1.9,6.1-4.5,35.4-34.7,48.1Z"/><path class="uuid-49fe1246-4a9e-4712-88a1-06cef58b7dc9" d="m470.5,15.2c-1.4-4.1-5.6-6.5-9.9-5.7-15.1,2.8-51.1,14.4-76.4,46.7-21.1,26.9-30.2,67.4,7.7,105.4,5.4-1.3,53.5-15,75.7-64,14.5-32,7.8-68.4,2.9-82.4Zm-17.5,75.8c-14.6,32.1-42.1,46.6-56.2,52.2-10-12.2-14.9-25-14.8-38.2.2-16.7,8.2-30.3,14.9-38.8,20.1-25.6,47.7-35.8,60.3-39.3,3.4,13.9,6.4,40.8-4.2,64.2Z"/><path class="uuid-49fe1246-4a9e-4712-88a1-06cef58b7dc9" d="m400.2,310c-12.6-34.1-18.2-68.6-17.8-104.7.6-50.5,13.9-89.6,21.9-108.4,12.8-30.4,30.8-58.2,53.5-82.4l11.8,10.9c-21.4,22.9-38.4,49-50.5,77.7-7.5,17.7-20.1,54.6-20.6,102.4-.4,34.2,5.5,67.9,17.3,100.3l-15.6,4.3Z"/><rect class="uuid-49fe1246-4a9e-4712-88a1-06cef58b7dc9" x="377.9" y="295.5" width="50.5" height="15" rx="7.5" ry="7.5"/><path class="uuid-49fe1246-4a9e-4712-88a1-06cef58b7dc9" d="m209.7,240.9c-.6,0-1.3,0-1.9,0v-16c27.9.2,54-4,77.8-12.4,9.6-3.4,18.3-7.3,26.7-11,21.7-9.7,40.5-18,60.7-10.2,9.8,3.8,18.3,10.8,25.2,20.8l-13.2,9c-5-7.3-11-12.3-17.7-14.9-14-5.4-28.4,1-48.3,9.9-8.2,3.7-17.6,7.8-27.8,11.4-25,8.8-52.3,13.3-81.3,13.3Z"/></g></g></svg>