<?xml version="1.0" encoding="UTF-8"?><svg id="uuid-dffa52c2-7200-49a7-8b2a-2b7d6601f06c" xmlns="http://www.w3.org/2000/svg" width="512" height="512" viewBox="0 0 512 512"><defs><style>.uuid-6e1d6720-0c20-43bc-bf4a-995959d51ea4{fill:#b7a097;}.uuid-6e1d6720-0c20-43bc-bf4a-995959d51ea4,.uuid-c5c5d09c-0281-4b1c-a9d6-6372e062a9f8,.uuid-ca122d01-fbc5-45b3-8366-d2fee5b1699a,.uuid-0b06c344-b7ea-4e85-919e-bbd16092f14f,.uuid-347b21da-dba1-4955-a361-1a4ae237ed02,.uuid-3fd18946-716f-4204-b640-9529de68806c{stroke-width:0px;}.uuid-c5c5d09c-0281-4b1c-a9d6-6372e062a9f8{fill:#fcede8;}.uuid-ca122d01-fbc5-45b3-8366-d2fee5b1699a{fill:#e5c9be;}.uuid-0b06c344-b7ea-4e85-919e-bbd16092f14f{fill:#fff;}.uuid-347b21da-dba1-4955-a361-1a4ae237ed02{fill:#c08a61;}.uuid-3fd18946-716f-4204-b640-9529de68806c{fill:#ceb2a5;}</style></defs><g id="uuid-b7d7cea5-2d95-46e7-bb5d-42cad53eb273"><g id="uuid-c5f87bda-e2ff-4a88-b90c-54aaa7fef29f"><path class="uuid-6e1d6720-0c20-43bc-bf4a-995959d51ea4" d="m394.8,321.8c-10.9,24.9-15,52.3-11.9,79.4,1.9,17.6,5.4,35,10.4,52,2.7,8.8,6.1,17.4,10.2,25.6,5,7.8,9.6,15.8,13.7,24.1l-214.2.6h0c-.7-2.6-13.6-52.8-42.1-65.7-5.3,1.9-10.9,3.8-16.6,5.7-19,6.6-38.2,12.2-57.8,16.7-5.4,1.3-11,.5-15.9-2.2-5.5-3.4-9.6-8.6-11.5-14.8-2.2-6.1-3.1-12.6-2.4-19,2-6.6,2.6-13.5,2-20.3-2.2-8.6-10.4-10.8-16.9-15.4-5.3-3.8,4.2-15.8,4.2-15.8,0,0-10.1-7.4-13.7-10.7-3.8-3.1,1.5-8.4,6.2-18.3,1.9-4.3,2.5-9.2,1.6-13.8-1.8-9.1-15.6-12.6-22.4-17.7-3.2-2.4-8.4-6-9-10.3-.9-6.1,6.2-14.6,9.7-18.9,14.9-19.2,27.6-39.9,38.1-61.9,1.4-2.3,2.2-4.9,2.4-7.6-.2-12.2-17.8-17.2-19.5-29.1-.3-3.5.4-7,1.8-10.2,4.9-10.5,9.1-21.2,12.6-32.3,2.1-10.1,4.8-20.1,8.1-29.9,7.2-19.6,18.2-37.6,32.4-52.9,20.9-22.1,51.8-33,81-38.8,26-5.7,52.3-9.5,78.8-11.5.9,0,1.7,0,2.6-.2,54.6-2.7,97.8,15.8,140.1,48.9,23.1,17.2,39.9,41.4,48,69,6.2,22.8,9.1,46.4,8.6,70-.2,23.3-7,46.1-19.6,65.7-12.7,20.1-29.4,37.5-39,59.4Z"/><path class="uuid-0b06c344-b7ea-4e85-919e-bbd16092f14f" d="m369.2,321.8c-10.9,24.9-15,52.3-11.9,79.4,1.9,17.6,5.4,35,10.4,52,2.7,8.8,6.1,17.4,10.2,25.6,5,7.8,9.6,15.8,13.7,24.1l-164.1.4h-24.5c-.6-2.2-10.9-42.3-33.4-60.2-2.7-2.1-5.6-3.9-8.7-5.4-.3,0-.4.2-.7.3-5.1,1.8-10.5,3.6-16,5.5,0,0-.3-.2-.3-.3-2.6-2.2-5.5-4.1-8.6-5.5-14.4,5-31.1,10.6-46.2,15.1-6.5,2-12.7,3.7-18.4,5.1-5.5-3.4-9.6-8.6-11.5-14.8-2.2-6.1-3.1-12.6-2.4-19,2-6.6,2.6-13.5,2-20.3-2.2-8.6-10.4-10.8-16.9-15.4-5.3-3.8,4.2-15.8,4.2-15.8,0,0-10.1-7.4-13.7-10.7-3.8-3.1,1.5-8.4,6.2-18.3,1.9-4.3,2.5-9.2,1.6-13.8-1.8-9.1-15.6-12.6-22.4-17.7-3.2-2.4-8.4-6-9-10.3-.9-6.1,6.2-14.6,9.7-18.9,14.9-19.2,27.6-39.9,38.1-61.9,1.4-2.3,2.2-4.9,2.4-7.6-.2-12.2-17.8-17.2-19.5-29.1-.3-3.5.4-7,1.8-10.2,4.9-10.5,9.1-21.2,12.6-32.3,2.1-10.1,4.8-20.1,8.1-29.9,7.2-19.6,18.2-37.6,32.4-52.9,20.9-22.1,51.8-33,81-38.8,26-5.7,52.3-9.5,78.8-11.5,3.8.3,7.6.6,11.3,1.1,39,5.6,75.7,22.1,105.8,47.6,23.1,17.2,39.9,41.4,48,69,6.2,22.8,9.1,46.4,8.6,70-.2,23.3-7,46.1-19.6,65.7-12.7,20.1-29.4,37.5-39,59.4Z"/><path class="uuid-c5c5d09c-0281-4b1c-a9d6-6372e062a9f8" d="m369.2,321.8c-10.9,24.9-15,52.3-11.9,79.4,1.9,17.6,5.4,35,10.4,52,2.7,8.8,6.1,17.4,10.2,25.6,5,7.8,9.6,15.8,13.7,24.1l-164.1.4c-.9-3.2-13.8-52.7-42.1-65.5-5,1.8-10.3,3.6-15.8,5.4-.3.2-.6.3-.9.3-2.6-2.2-5.4-4.1-8.5-5.5-.2,0-.3-.2-.4-.3-5,1.8-10.4,3.6-15.9,5.5-16.6,5.5-34.5,11.2-48.8,14.8-2.3-1.3-4.4-3.1-6.1-5.1-2.4-2.8-4.3-6.1-5.5-9.6-2.2-6.1-3.1-12.6-2.4-19,2-6.6,2.6-13.5,2-20.3-2.2-8.6-10.4-10.8-16.9-15.4-5.3-3.8,4.2-15.8,4.2-15.8,0,0-10.1-7.4-13.7-10.7-3.8-3.1,1.5-8.4,6.2-18.3,1.9-4.3,2.5-9.2,1.6-13.8-1.8-9.1-15.6-12.6-22.4-17.7-3.2-2.4-8.4-6-9-10.3-.9-6.1,6.2-14.6,9.7-18.9,14.9-19.2,27.6-39.9,38.1-61.9,1.4-2.3,2.2-4.9,2.4-7.6-.2-12.2-17.8-17.2-19.5-29.1-.3-3.5.4-7,1.8-10.2,4.9-10.5,9.1-21.2,12.6-32.3,2.1-10.1,4.8-20.1,8.1-29.9,7.2-19.6,18.2-37.6,32.4-52.9,20.9-22.1,51.8-33,81-38.8,21.6-4.7,43.5-8.1,65.5-10.4,39,5.6,75.7,22.1,105.8,47.6,23.1,17.2,39.9,41.4,48,69,6.2,22.8,9.1,46.4,8.6,70-.2,23.3-7,46.1-19.6,65.7-12.7,20.1-29.4,37.5-39,59.4Z"/><path class="uuid-6e1d6720-0c20-43bc-bf4a-995959d51ea4" d="m486.4,76.8h-238.9c-9.4,0-17.1,7.6-17.1,17.1v119.5c0,9.4,7.6,17.1,17.1,17.1h238.9c9.4,0,17.1-7.6,17.1-17.1v-119.5c0-9.4-7.6-17.1-17.1-17.1Z"/><path class="uuid-ca122d01-fbc5-45b3-8366-d2fee5b1699a" d="m460.8,76.8h-213.3c-9.4,0-17.1,7.6-17.1,17.1v119.5c0,9.4,7.6,17.1,17.1,17.1h213.3c9.4,0,17.1-7.6,17.1-17.1v-119.5c0-9.4-7.6-17.1-17.1-17.1Z"/><path class="uuid-3fd18946-716f-4204-b640-9529de68806c" d="m460.8,110.9h-187.7c-4.7,0-8.5,3.8-8.5,8.5v68.3c0,4.7,3.8,8.5,8.5,8.5h187.7c4.7,0,8.5-3.8,8.5-8.5v-68.3c0-4.7-3.8-8.5-8.5-8.5Z"/><path class="uuid-0b06c344-b7ea-4e85-919e-bbd16092f14f" d="m435.2,110.9h-162.1c-4.7,0-8.5,3.8-8.5,8.5v68.3c0,4.7,3.8,8.5,8.5,8.5h162.1c4.7,0,8.5-3.8,8.5-8.5v-68.3c0-4.7-3.8-8.5-8.5-8.5Z"/><path class="uuid-ca122d01-fbc5-45b3-8366-d2fee5b1699a" d="m213.3,119.5h17.1v68.3h-17.1c-9.4,0-17.1-7.6-17.1-17.1v-34.1c0-9.4,7.6-17.1,17.1-17.1Z"/><path class="uuid-ca122d01-fbc5-45b3-8366-d2fee5b1699a" d="m273.1,110.9h42.7v85.3h-42.7c-4.7,0-8.5-3.8-8.5-8.5v-68.3c0-4.7,3.8-8.5,8.5-8.5Z"/><path class="uuid-0b06c344-b7ea-4e85-919e-bbd16092f14f" d="m33.2,171.3c3.6-9.3,7.9-17.4,10.6-25.3.7-2,1.2-3.9,1.7-5.8l1.6-6.7c1.1-4.5,2.2-9.2,3.5-13.8,5.5-18.8,14.2-36.4,25.9-52.2,3.6-4.9,7.5-9.5,11.7-13.9l12.4,11.7c-3.7,3.9-7.2,8.1-10.4,12.4-10.4,14.1-18.3,29.9-23.2,46.6-1.2,4.3-2.3,8.6-3.3,13.1l-1.6,6.7c-.6,2.6-1.4,5.1-2.2,7.5-3.3,9.6-7.8,17.9-10.8,25.9l-16-6.1Z"/><path class="uuid-347b21da-dba1-4955-a361-1a4ae237ed02" d="m55.6,134.3c-4.6-1-9.1,1.8-10.2,6.3-3.4,10.5-7.5,20.7-12.2,30.7l16,6.1c5-10.6,9.2-21.6,12.8-32.7.5-2.2.2-4.5-1-6.5-1.2-1.9-3.1-3.3-5.3-3.9Z"/><path class="uuid-347b21da-dba1-4955-a361-1a4ae237ed02" d="m100.5,65.2l-12.4-11.7c-4.2,4.4-8.1,9.1-11.7,14-1.8,2.4-3.5,4.9-5.2,7.4-1.3,1.9-1.8,4.3-1.3,6.5.5,2.3,1.9,4.2,3.9,5.4,3.9,2.3,9,1.2,11.6-2.6,1.5-2.3,3-4.5,4.6-6.6,3.2-4.3,6.7-8.5,10.4-12.4Z"/><path class="uuid-347b21da-dba1-4955-a361-1a4ae237ed02" d="m54.9,106.7c-.8,2.2-.8,4.7.1,6.8l.9,1.4c.3.5.8.9,1.2,1.2.4.4.8.7,1.3,1,.5.3,1,.5,1.6.7,2.2.6,4.5.5,6.5-.4,1-.5,1.8-1.1,2.6-1.9,2.2-2.4,2.9-5.9,1.6-8.9-.5-1-1.1-1.9-1.9-2.7-.8-.8-1.7-1.5-2.7-1.9-2.1-.9-4.4-1-6.6-.1-2.1,1-3.8,2.8-4.7,4.9Z"/><path class="uuid-347b21da-dba1-4955-a361-1a4ae237ed02" d="m81.2,469.3c-14.1-.3-26.3-9.7-30.2-23.3-2.7-7.3-3.7-15.2-2.8-23,.3-2.2.8-4.5,1.3-6.8,1-3.3,1.3-6.8.9-10.2-.7-2.7-2.7-4-7.7-6.9-2-1.1-4-2.3-5.9-3.6-2.8-2-4.6-5-5.1-8.4-.3-4.3.6-8.6,2.8-12.3-2.9-2.2-6.1-4.7-7.9-6.4-7.9-6.4-2.7-15.7.5-21.2,1.2-2,2.5-4.4,3.8-7.1,1.2-2.7,1.5-5.7,1-8.6-.4-2.2-6.6-5.4-10.3-7.3-3.1-1.5-6.1-3.2-8.9-5.1-6.1-3.5-10.6-9.2-12.4-16-1.4-8.8,5.1-17.6,11.3-25.1,14.6-18.8,27.1-39.2,37.3-60.7.7-1.2,1.1-2.4,1.5-3.7,0-2.3-2.8-5-6.9-8.9-6.3-4.7-10.7-11.4-12.4-19.1-.5-4.9.3-9.8,2.3-14.3,1-2.9,3.5-5.1,6.6-5.6,3.1-.5,6.2.6,8.1,3,2,2.4,2.5,5.7,1.3,8.6-.8,1.9-1.3,3.9-1.4,5.9.4,2.8,3.6,5.8,7.1,8.9,7,5,11.6,12.8,12.5,21.3-.2,4-1.3,8-3.3,11.5-10.7,22.5-23.8,43.8-39.1,63.4-6.5,7.9-7.9,11.1-7.9,12.3,1.6,1.5,3.3,2.9,5.1,4.1,2.2,1.6,4.6,2.9,7,4.1,7.3,3.7,17.2,8.8,19.3,19.2,1.2,6.4.4,13.1-2.3,19.1-1.5,3.2-3,5.9-4.4,8.2-.4.7-.9,1.6-1.3,2.3,3.5,2.8,8.4,6.5,10.4,8,1.9,1.4,3.1,3.5,3.4,5.8.3,2.3-.3,4.6-1.8,6.4-1.3,1.6-2.4,3.4-3.3,5.3l1.8,1c7.6,3.2,13.3,9.6,15.8,17.5,1.3,6,1,12.3-.7,18.2-.4,1.8-.8,3.6-1,5.4-.5,5.2.2,10.4,2,15.2,1.9,7.9,9.6,12.9,17.6,11.4,24.9-6,49.4-13.4,73.4-22.2,4.5-1.5,9.3.8,10.9,5.3,1.5,4.5-.8,9.3-5.3,10.9-24.7,9.1-49.9,16.6-75.5,22.7-2.3.5-4.7.8-7,.8Zm-43.5-113.8l.3.2c0,0-.2-.2-.3-.3h0Z"/><path class="uuid-347b21da-dba1-4955-a361-1a4ae237ed02" d="m417.2,85.3c-2.4,0-4.7-1-6.3-2.8-5.9-6.6-12.4-12.6-19.4-18.1-44.7-35-86.1-49.5-134.4-47.1-26.9,1.9-53.7,5.7-80,11.5-34.4,6.8-60.2,19.1-76.5,36.3-2.1,2.3-5.2,3.2-8.2,2.5-3-.7-5.4-3-6.3-5.9-.9-3,0-6.1,2.1-8.4,19.1-20.2,47-33.7,85.5-41.3,27.2-6,54.8-9.9,82.5-11.8,52.5-2.6,97.6,13,145.8,50.7,7.8,6.1,15,12.8,21.6,20.1,2.3,2.5,2.8,6.1,1.5,9.2s-4.4,5.1-7.8,5.1Z"/><path class="uuid-347b21da-dba1-4955-a361-1a4ae237ed02" d="m202.9,512c-3.9,0-7.4-2.7-8.3-6.5-3.3-13.5-16.5-50.5-37.3-60-3.2-1.4-5.2-4.7-5-8.2.2-3.5,2.5-6.5,5.8-7.7,8.9-3,17-5.8,23.3-8.1,5.9-2.1,10.4-3.6,12.7-4.4,35.5-11.2,42.7-24,42.5-32.8,0-2.3.8-4.5,2.4-6.1s3.7-2.6,6-2.6h.2c4.6,0,8.4,3.7,8.5,8.3.5,21.3-17.8,37.9-54.3,49.5-2.2.7-6.5,2.2-12.2,4.2l-7.7,2.7c14.1,15.6,24.3,34.3,30,54.5l193.5-.5-.6-.9c-2.5-3.6-4.7-7.3-6.6-11.2-4.2-8.6-7.8-17.5-10.6-26.7-5.2-17.5-8.8-35.4-10.7-53.5-3.4-28.5,1-57.5,12.5-83.8,6.8-14.2,15.2-27.7,25.1-40,4.9-6.7,10.1-13.6,14.5-20.6,5.9-9.3,10.5-19.3,13.7-29.8.9-2.9,3.2-5.2,6.2-5.9,3-.7,6.1.2,8.2,2.4s2.9,5.4,2,8.3c-3.6,12.1-8.9,23.5-15.7,34.1-4.8,7.5-10.1,14.7-15.2,21.6-9.1,11.3-16.9,23.6-23.2,36.6-10.3,23.5-14.2,49.4-11.2,74.9,1.8,17.1,5.2,34,10.1,50.5,2.5,8.3,5.8,16.5,9.6,24.3,1.6,3.2,3.5,6.3,5.5,9.2,3.6,5,6.5,10.4,8.6,16.2.8,2.6.3,5.4-1.3,7.6-1.6,2.2-4.2,3.5-6.9,3.5l-214.2.6h0Z"/><path class="uuid-6e1d6720-0c20-43bc-bf4a-995959d51ea4" d="m87,158.4c-2.6,0-5.1-1.2-6.7-3.2-1.6-2-2.2-4.7-1.6-7.3l.9-3.7c1.6-7.8,3.8-15.5,6.3-23.1,5.9-16.4,15.1-31.5,27-44.3,13.1-12.6,29.2-21.6,46.8-26.2,2.9-1,6.2-.3,8.4,1.8,2.3,2.1,3.2,5.3,2.5,8.3s-3,5.4-6,6.2c-14.7,3.7-28.3,11.2-39.3,21.6-10.3,11.1-18.3,24.2-23.4,38.4-2.3,6.9-4.2,13.9-5.7,21.1l-.9,3.7c-.9,3.9-4.3,6.6-8.3,6.6Z"/><path class="uuid-6e1d6720-0c20-43bc-bf4a-995959d51ea4" d="m76.8,187.7c4.7,0,8.5-3.8,8.5-8.5s-3.8-8.5-8.5-8.5-8.5,3.8-8.5,8.5,3.8,8.5,8.5,8.5Z"/><path class="uuid-347b21da-dba1-4955-a361-1a4ae237ed02" d="m486.4,238.9h-238.9c-14.1,0-25.6-11.5-25.6-25.6v-119.5c0-14.1,11.5-25.6,25.6-25.6h238.9c14.1,0,25.6,11.5,25.6,25.6v119.5c0,14.1-11.5,25.6-25.6,25.6ZM247.5,85.3c-4.7,0-8.5,3.8-8.5,8.5v119.5c0,4.7,3.8,8.5,8.5,8.5h238.9c4.7,0,8.5-3.8,8.5-8.5v-119.5c0-4.7-3.8-8.5-8.5-8.5h-238.9Z"/><path class="uuid-347b21da-dba1-4955-a361-1a4ae237ed02" d="m230.4,196.3h-17.1c-14.1,0-25.6-11.5-25.6-25.6v-34.1c0-14.1,11.5-25.6,25.6-25.6h17.1c4.7,0,8.5,3.8,8.5,8.5v68.3c0,4.7-3.8,8.5-8.5,8.5Zm-17.1-68.3c-4.7,0-8.5,3.8-8.5,8.5v34.1c0,4.7,3.8,8.5,8.5,8.5h8.5v-51.2h-8.5Z"/><path class="uuid-6e1d6720-0c20-43bc-bf4a-995959d51ea4" d="m315.7,204.8c-4.7,0-8.5-3.8-8.5-8.5v-85.3c0-4.7,3.8-8.5,8.5-8.5s8.5,3.8,8.5,8.5v85.3c0,4.7-3.8,8.5-8.5,8.5Z"/><path class="uuid-6e1d6720-0c20-43bc-bf4a-995959d51ea4" d="m366.9,204.8c-4.7,0-8.5-3.8-8.5-8.5v-17.1c0-4.7,3.8-8.5,8.5-8.5s8.5,3.8,8.5,8.5v17.1c0,4.7-3.8,8.5-8.5,8.5Z"/><path class="uuid-6e1d6720-0c20-43bc-bf4a-995959d51ea4" d="m418.1,204.8c-4.7,0-8.5-3.8-8.5-8.5v-17.1c0-4.7,3.8-8.5,8.5-8.5s8.5,3.8,8.5,8.5v17.1c0,4.7-3.8,8.5-8.5,8.5Z"/><path class="uuid-347b21da-dba1-4955-a361-1a4ae237ed02" d="m469.3,204.8h-204.8c-4.7,0-8.5-3.8-8.5-8.5v-85.3c0-4.7,3.8-8.5,8.5-8.5h204.8c4.7,0,8.5,3.8,8.5,8.5v85.3c0,4.7-3.8,8.5-8.5,8.5Zm-196.3-17.1h187.7v-68.3h-187.7v68.3Z"/></g></g></svg>