<?xml version="1.0" encoding="UTF-8"?><svg id="uuid-0e7a8a5e-2ae7-436f-85b1-a351ae50262d" xmlns="http://www.w3.org/2000/svg" width="513" height="469.1" viewBox="0 0 513 469.1"><defs><style>.uuid-e9f678b1-4f4f-4d23-ba7b-b615f79d12be{fill:#a57e6a;}.uuid-e9f678b1-4f4f-4d23-ba7b-b615f79d12be,.uuid-feb4214d-4856-4d71-951f-2e9058b21afe{stroke-width:0px;}.uuid-15bf1236-070d-45cc-a35b-77d1ac1a96aa{fill:none;stroke:#685a53;stroke-miterlimit:10;stroke-width:2px;}.uuid-feb4214d-4856-4d71-951f-2e9058b21afe{fill:#c08a61;}</style></defs><g id="uuid-08dcc7b6-6068-410a-8888-4f45e53fa312"><g id="uuid-1a6186a1-21d2-4f05-ab17-1cd065cc8064"><path class="uuid-e9f678b1-4f4f-4d23-ba7b-b615f79d12be" d="m30.1,184c-15,9-23.8,25.6-24.5,43.1L.4,366.6c-.7,18.9-1.3,38.5,6.3,55.8,12.3,28.3,45.1,44.1,76,42.7,30.8-1.4,59.5-17.5,82.4-38.2,22.9-20.7,41.2-45.9,60.3-70.2,11.8-14.9,27.6-31.2,47.6-24.7,8.9,2.9,15.9,10,19.8,18.6,8.9,19.6,4.4,40.2,3.3,60.5-1.1,20.5,2.3,43.4,23.4,53.8,9.3,4.5,20.1,5.3,30.1,2.6,25.2-6.9,39.8-30.3,45.1-54.5,4.2-19.5,3-39.7,1.8-59.6l-5.9-95.5c-1.2-18.9-2.7-38.8-13.4-54.5-14.3-20.9-41.6-28.8-66.9-29.4-62.6-1.4-124.4,36.2-152,92.4-6.9,14-11.9,29.4-24.7,39.6-5.2,4.2-11.6,6.9-18.2,6.9-21.3.2-30.3-23.3-29.1-42.6,1.6-26.2,14.8-52.2-9-77.8-3.7-4-8.1-7.4-12.9-9.9-9.5-4.9-20.4-6.7-34,1.4h0Z"/><path class="uuid-feb4214d-4856-4d71-951f-2e9058b21afe" d="m433.5,411.6c-9.5,11.2-15.1,25.6-15.6,40.2-.2,6.7,1.7,14.9,8.1,16.8,4.7,1.4,9.5-1.3,13.3-4.3,12.7-10,21.5-24.9,24.2-40.8.9-5.3,1.1-10.8-.7-15.8-1.8-5-5.9-9.5-11.1-10.5-5.2-1.1-9.2,3.7-18.3,14.4Z"/><path class="uuid-15bf1236-070d-45cc-a35b-77d1ac1a96aa" d="m155.1,319.2c.6,27.2-12.4,53.9-4.7,80,7.7,26.1,27,49.3,52.5,58.4,25.6,9.2,57,2.4,74.1-18.8,12.7-15.6,16.5-36.3,22.4-55.6,5.9-19.3,16-39.4,34.7-46.9,31.6-12.6,63.3,17.8,96.7,24,30.5,5.7,63.9-12,76.3-40.4,5.3-12.2,7-26.6,1.4-38.7-16-34.8-72.4-25.7-97.7-54.5-16-18.3-14.1-46.6-4.9-69.1,9.2-22.5,24.4-42.3,33.3-64.9,8.9-22.6,10.2-51-6.4-68.9-15.2-16.3-39.8-18.4-62-19.5-30.4-1.5-66.7,0-82.9,25.8-12.8,20.4-6.5,47.1-12.6,70.4-8.5,32.7-41.4,54.8-74.8,59.2-23.9,3.1-51.2-.2-69.2,15.8-13.7,12.3-17.4,32.8-13.8,50.9,3.6,18,36.3,29.4,37.5,92.6h0Z"/><path class="uuid-feb4214d-4856-4d71-951f-2e9058b21afe" d="m131.5,26.5c-10.6,13.6-21.7,28.7-21.2,45.9.6,22.1,21.9,39.9,44,41.8,22.1,1.8,43.6-9.3,59.6-24.6,8.6-8.2,16.1-17.9,20.2-29.1,4.1-11.2,4.2-24.1-1.2-34.7-6.7-13-20.9-20.9-35.3-23.2-14.4-2.3-39.1-10.7-66,23.9h0Z"/></g></g></svg>