<?xml version="1.0" encoding="UTF-8"?><svg id="uuid-ffc3cb57-95c3-4f75-b23a-2eb4dab4622a" xmlns="http://www.w3.org/2000/svg" width="493.2" height="513" viewBox="0 0 493.2 513"><defs><style>.uuid-5ee862dd-978a-4df9-8437-a389d5f58729{fill:#a57e6a;}.uuid-5ee862dd-978a-4df9-8437-a389d5f58729,.uuid-5f0e91fd-a86d-4e13-91f4-21c9b0c9bbe3{stroke-width:0px;}.uuid-f8bbe1a2-687e-4b19-969d-93c23881f4b4{fill:none;stroke:#685a53;stroke-miterlimit:10;stroke-width:2px;}.uuid-5f0e91fd-a86d-4e13-91f4-21c9b0c9bbe3{fill:#c08a61;}</style></defs><g id="uuid-9a1c06b9-6748-4318-94c6-7fe58ef9ff81"><g id="uuid-b0573b71-e96d-4cf7-8298-6bb2da7c612e"><path class="uuid-5ee862dd-978a-4df9-8437-a389d5f58729" d="m50.9,62.3c-26.6,6.9-44.4,32.2-44.3,59.6C6.8,170-.3,218.1,0,266.3c.3,57,13,117.6,53.6,157.4,38.9,38.2,96.1,50.4,150.4,55.7,24.6,2.4,50.3,3.5,73.1-6.3,27.7-11.8,46.7-37.8,60.7-64.5,43.3-82.1,52-181.9,23-270.2-3.7-11.2-9.2-22-17.3-30.6-35.3-37.4-80.9-5.3-92.6,32.2-9.3,29.7-4.1,61.6-2.9,92.7,1.2,32.9-4,69.7-30.9,89.8-4.9,3.6-10.5,6.4-16.4,7.8-24.1,5.3-37-12-44.1-29.4-14.1-34.4-12.3-72.9-13-110.1-.7-37.2-4.9-76.8-28.3-105.8-14.6-18.1-39-29.3-64.5-22.7h0Z"/><path class="uuid-f8bbe1a2-687e-4b19-969d-93c23881f4b4" d="m78.4,429.8c.5,9.8,13.9,15.5,22.2,10.2,8.3-5.3,9.8-17.9,4.5-26.2-5.3-8.3-15.9-12.2-25.7-11.5-11.7.7-22.9,7.5-29,17.4-6.1,10-7.1,22.9-2.5,33.7,9.3,21.8,39.6,29.2,60.4,18.1,24.1-12.8,34-46.1,22.4-70.7-11.7-24.7-42.2-38-68.7-31.5-26.5,6.6-46.9,31.5-49.7,58.7-2.9,27.1,11.1,54.9,33.5,70.4,34,23.5,85.8,15.6,111.3-16.8,25.5-32.5,20.9-84.6-10-112.1"/><path class="uuid-5f0e91fd-a86d-4e13-91f4-21c9b0c9bbe3" d="m172.9,2.6c-15.8,3-30.5,11.4-41,23.5-4.9,5.5-8.9,13.9-4.7,19.9,3,4.4,9,5.4,14.3,5.5,17.7.2,35.4-6.3,48.7-18.1,4.4-3.9,8.4-8.4,10.3-13.9,1.9-5.5,1.5-12.1-2.2-16.6-3.7-4.5-10.3-3.2-25.5-.4Z"/><path class="uuid-f8bbe1a2-687e-4b19-969d-93c23881f4b4" d="m196.1,74.4c-56.6,25.2-103.8,70.4-133.4,124.7-16.4,30.1-27.3,69,2.2,95.5,7.8,7.1,17.6,11.8,28,14.3,30.6,7.5,60.2-2.1,89.1-11.2,22.7-7.2,46.3-14.1,70-12.3,4.9.4,10,1.2,14.1,4,6.4,4.3,9.1,12.5,8.9,20.1-.2,7.7-3,15-5.8,22.1-9.1,23.1-18.3,46.3-22.4,70.7-4.1,24.4-2.8,50.6,8.6,72.6,5.9,11.4,15.3,22,27.9,24.5,14.3,2.9,28.4-5.5,39.4-15,30.1-26,49.6-62.4,65.5-98.5,26.5-60.1,44.3-123.4,56.8-187.9,4.7-24.6,13.3-52.9,3.4-77.3-6.1-15.3-18.8-26.9-32.2-36.5-19.1-13.6-50.5-21.9-80.2-27-47.1-8-95.7-2.4-139.4,16.9-.2,0-.3.1-.5.2v.2Z"/><path class="uuid-5f0e91fd-a86d-4e13-91f4-21c9b0c9bbe3" d="m484.7,283.6c-69.4-124.5-224.2-25.8-154.6,92,13.9,24,37.9,28,62.4,27.3,8.1-.2,16.2.2,24.2,1.6,58.7,10.6,93.5-73.1,68-120.9h0Zm-38.4,57.4c-15,49.2-100,22.9-90.8-24.4,15.6-81.9,115-26.1,90.8,24.4Z"/></g></g></svg>