<?xml version="1.0" encoding="UTF-8"?><svg id="uuid-3dd507dc-ed3b-4178-a3be-c25026c96c0e" xmlns="http://www.w3.org/2000/svg" width="513" height="444.3" viewBox="0 0 513 444.3"><defs><style>.uuid-fa878313-437f-4415-a567-e6b4443d1102{fill:#a57e6a;}.uuid-fa878313-437f-4415-a567-e6b4443d1102,.uuid-e445d7b7-e026-4bd7-aa7d-47186f48a630{stroke-width:0px;}.uuid-32bc3a7c-840c-4bab-9cd0-e574cc5df53a{fill:none;stroke:#685a53;stroke-miterlimit:10;stroke-width:2px;}.uuid-e445d7b7-e026-4bd7-aa7d-47186f48a630{fill:#c08a61;}</style></defs><g id="uuid-ad0ab144-58ce-4674-8d69-a39995357968"><g id="uuid-cef05c62-76fa-4192-94b6-4e9bbee6a89e"><path class="uuid-fa878313-437f-4415-a567-e6b4443d1102" d="m366.8,122.1c-3.2-97.9-114.4-155.7-195.6-100.8-19.8,13.4-37.9,29.2-53.7,47.2-49.6,56.5-75.5,133.3-70.2,208.3,3.9,55.8,29.4,115.3,80.7,137.6,24.2,10.5,51.3,11.5,77.7,10.2,27.7-1.4,55.9-5.5,80.9-17.6,33.9-16.3,61.7-49,57.4-89.8-1.1-10-4.5-19.7-10.2-28-39.3-56.8-123.1-.2-154.7-66.4-.6-1.4-1.2-2.9-1.5-4.4-2.8-14.5,4.1-29.9,15.8-38.8,11.7-8.9,27.6-11.5,41.9-8.2,30.2,7,54.4,37.8,85.3,33.8,17.1-2.2,31.3-15.6,38.4-31.3,7.2-15.7,8.3-33.4,7.8-50.7v-1.2h0Z"/><path class="uuid-e445d7b7-e026-4bd7-aa7d-47186f48a630" d="m152.8,139.2c-4.1-11.8-10.3-22.7-18.1-32.4.2-.3.4-.5.5-.8,8-13.4,14.1-28.7,12.3-44.6-1.1-8.8-5-17-11.5-22.2-4.5-3.6-9.7-5.4-17.8-5.2-13.8.4-27,7.2-37.2,17.9-3.1,3.2-6.4,6.3-9.6,9.4-14.2-6.2-30-11.3-48.7-15.8C12.5,43.1,1.7,49.6.2,60.1c-.3,1.8-.2,3.6.1,5.4,1.4,8,7.7,14,13.7,19.5,5.6,5.2,11.2,10.3,16.8,15.4-4.6,5.5-8.8,11.3-12.3,17.5-9.9,17.6-14.1,40.1-5.5,57.9,2.2,4.6,5.3,8.6,9.3,11.4,12.6,8.9,24.7,1.4,35.4-5.9,11.7-8.1,23.4-16.6,34.4-26,4.5,3.8,9,7.6,13.7,11.3,5.8,4.7,11.9,9.3,18.9,11.9,7,2.6,15.3,2.7,21.6-1.3,5.8-3.7,9.2-10.5,10-17.4.8-7-.8-14.1-3.1-20.8h-.2Z"/><path class="uuid-32bc3a7c-840c-4bab-9cd0-e574cc5df53a" d="m98.5,336.5c-13.2,13-26.9,26.7-33.1,44.2-6.2,17.5-2.6,40,13.2,49.8,10,6.2,23.2,6.1,34.1,1.6,10.9-4.6,19.8-13.1,26.7-22.6,7.3-10.2,12.9-21.9,14-34.4,1.1-12.5-2.5-25.7-11.3-34.7-8.8-8.9-27.6-19.6-43.6-3.8h0Z"/><path class="uuid-32bc3a7c-840c-4bab-9cd0-e574cc5df53a" d="m228.6,201.9c-24.6,89.8,20.6,193.8,103.1,237,34.2,18,70.9-22.6,80.7-60,9.8-37.4,12.7-82.3,44.9-103.6,46-30.3,66.7-93.9,47.4-145.5-19.3-51.6-76.7-85.9-131.2-78.6-54.6,7.3-117.2,49.6-144.8,150.6h-.1Z"/></g></g></svg>