<?xml version="1.0" encoding="UTF-8"?><svg id="uuid-3c3e2d58-3daa-4e9a-aaf7-1828ee083647" xmlns="http://www.w3.org/2000/svg" width="514" height="387.3" viewBox="0 0 514 387.3"><defs><style>.uuid-20790564-fad8-4811-b9da-08aa12ce22a6{fill:#a57e6a;}.uuid-20790564-fad8-4811-b9da-08aa12ce22a6,.uuid-b1d10495-04ee-481d-91e5-3df638593e05{stroke-width:0px;}.uuid-3d2095db-e7df-4c62-b8b8-0aec9a5bfc5c{fill:none;stroke:#685a53;stroke-miterlimit:10;stroke-width:2px;}.uuid-b1d10495-04ee-481d-91e5-3df638593e05{fill:#c08a61;}</style></defs><g id="uuid-befbcceb-c80d-47f7-a7db-5d395afef732"><g id="uuid-50b077e2-3ecc-4089-b062-024f0564dc98"><path class="uuid-20790564-fad8-4811-b9da-08aa12ce22a6" d="m158.4,51.9c-18.7,4.6-32.2,22.2-29.9,41.3v.3c1.4,11.4,7.1,22.8,17.2,28.2,8.4,4.5,18.4,4.4,27.9,4.1,53.9-1.6,107.8-3.2,161.7-4.9,10.7-.3,21.6-.7,31.6-4.5,10-3.8,19-11.9,21-22.5,2.2-11.3-4.3-22.8-13.3-29.8-9.1-7-20.5-10.2-31.6-12.9-58.6-13.9-120.1-15.3-184.6.5h0Z"/><path class="uuid-b1d10495-04ee-481d-91e5-3df638593e05" d="m145.2,274.3c-22.6,2.8-38.3,25.4-31,46.9,5.1,15.1,16,28.9,29.6,37.1,27.1,16.3,60.6,16.4,92.2,15.1,46.2-1.9,92.3-5.5,138.2-10.9,13-1.6,27-3.8,35.9-13.2,8.5-9,10.2-22.9,6.3-34.6-3.9-11.7-12.6-21.3-22.6-28.5-27.3-19.6-62.9-22.6-96.5-22.7-48.7-.2-97.5,4.1-152.2,10.8h0Z"/><path class="uuid-b1d10495-04ee-481d-91e5-3df638593e05" d="m149.5,149.9c-23.9,2.9-43,23.3-42.5,47.3v.4c.3,14.3,6.5,29.2,18.9,36.4,8.2,4.7,18.1,5.5,27.5,6,70,3.9,140.4,1.9,210.1-5.9,15-1.7,31-4.1,40.4-17.7,7.3-10.6,7.7-25,.9-35.9-10.6-17-32.6-19.9-52-21.4-37.4-3-74.9-6-112.3-9-27.9-2.2-56.5-4.4-91.1-.2h0Z"/><path class="uuid-3d2095db-e7df-4c62-b8b8-0aec9a5bfc5c" d="m212.5,117.3c-14.3,80.9,12.7,164.7,73.6,219.8.5.4.9.8,1.4,1.3,30.1,26.9,67.3,51.3,107.5,47.5,38.8-3.7,70.8-33.3,90.2-67.1,34.9-60.7,37.1-138.9,5.6-201.4C459.3,54.8,395,10.1,325.5,2.2c-27.4-3.1-56.5-.5-79.8,14.1-23.1,14.5-23,43.3-33.2,101h0Z"/><path class="uuid-3d2095db-e7df-4c62-b8b8-0aec9a5bfc5c" d="m55.3,217.3c-4.3,7.9-8.6,16.2-8.4,25.2.2,9,6.9,18.4,15.8,18.3,8.2,0,14.3-7.7,17.9-15.1,4.1-8.5,6.8-17.7,7.9-27.2.6-5.8.4-12.3-3.7-16.5-5.4-5.6-17.7-6.4-29.5,15.3h0Z"/><path class="uuid-3d2095db-e7df-4c62-b8b8-0aec9a5bfc5c" d="m52.5,297.4c-4.3,6-7.5,12.8-9.4,19.9-1,3.6-1.5,7.9,1,10.6,1.6,1.9,4.4,2.5,6.8,2.2,2.5-.3,4.7-1.6,6.6-3.2,5.1-3.9,8.5-9.7,10.8-15.6,1.5-3.7,2.7-7.8,2.1-11.7-.6-4-3.3-7.9-7.2-8.8-2.7-.6-6.2,0-10.8,6.5h0Z"/><path class="uuid-3d2095db-e7df-4c62-b8b8-0aec9a5bfc5c" d="m81.8,350c-5.7,6.7-9,15.4-9.4,24.1-.1,4,1,8.9,4.9,10.1,2.8.8,5.7-.8,8-2.6,7.6-6,12.9-14.9,14.5-24.5.5-3.2.6-6.5-.4-9.5-1.1-3-3.5-5.7-6.6-6.3s-5.5,2.2-11,8.6Z"/><path class="uuid-3d2095db-e7df-4c62-b8b8-0aec9a5bfc5c" d="m14.6,348.5c-6.1,6.6-10.5,14.6-12.9,23.3-.6,2.5-1.1,5.1-.2,7.5,1,2.7,3.7,4.5,6.5,5.1,2.8.6,5.7,0,8.4-1.1,8.3-3.3,14.6-11.3,15.6-20.2.6-4.6-.3-9.5-3.2-13.1s-9.4-6.6-14.2-1.5h0Z"/></g></g></svg>