<?xml version="1.0" encoding="UTF-8"?><svg id="uuid-a6d280dc-a703-4a74-a364-6e4054968c91" xmlns="http://www.w3.org/2000/svg" width="512" height="484" viewBox="0 0 512 484"><defs><style>.uuid-69081d6f-d240-45db-bbf4-b568f67f8b84{fill:#a57e6a;}.uuid-69081d6f-d240-45db-bbf4-b568f67f8b84,.uuid-5b0f7bce-f74f-47ae-b345-3c856f0404ff{stroke-width:0px;}.uuid-0bc8673d-ce0b-460b-9ca1-db4e1e10a9b9{fill:none;stroke:#685a53;stroke-miterlimit:10;stroke-width:2px;}.uuid-5b0f7bce-f74f-47ae-b345-3c856f0404ff{fill:#c08a61;}</style></defs><g id="uuid-e14bf529-505d-4027-87e0-bda1b233d9d5"><g id="uuid-ff110bfc-bbd9-4f6e-98c6-bfdb782841fe"><path class="uuid-5b0f7bce-f74f-47ae-b345-3c856f0404ff" d="m422.6,146.8C266.8-132.8-81.1,89,75.3,353.5c31.3,53.9,85.2,62.9,140.1,61.3,18.2-.5,36.4.5,54.4,3.7,131.9,23.8,210.2-164.3,152.8-271.6h0Zm-86.3,129c-33.6,110.4-224.6,51.4-204-54.9,35.1-183.9,258.3-58.8,204,54.9Z"/><path class="uuid-69081d6f-d240-45db-bbf4-b568f67f8b84" d="m306.7,268.7c29.8,0,59,7.1,88.8,8.1,29.7,1,61.9-5.6,81.9-27.6,12.2-13.5,18.6-31.1,23.6-48.6,11.8-40.5,17.9-86.2-2.3-123.2-16.8-30.9-50.8-50.9-85.8-54-35.1-3.1-70.6,9.5-98.2,31.5-27.6,21.9-47.5,52.5-59.9,85.4-8.6,22.6-13.8,47.2-9.7,71.1,4.1,23.8,17.5,57.3,61.6,57.4Z"/><path class="uuid-0bc8673d-ce0b-460b-9ca1-db4e1e10a9b9" d="m342.5,196c-38.4,37.8-78.2,77.5-96.2,128.3-18.1,50.8-7.5,116.2,38.3,144.6,29.2,18.1,67.4,17.8,99.1,4.6,31.7-13.2,57.5-38,77.6-65.8,21.3-29.5,37.4-63.7,40.7-99.9,3.3-36.3-7.2-74.7-32.7-100.6-25.5-25.9-80.1-56.9-126.7-11.1Z"/><path class="uuid-69081d6f-d240-45db-bbf4-b568f67f8b84" d="m29.7,16C18.7,25,7.2,34.7,2.1,48c-5.1,13.3-1.1,31.2,12.2,36.5,12.2,4.9,25.7-2.6,35.5-11.3,11.3-10,20.8-22,28-35.2,4.4-8.2,8-18,4.6-26.6C77.8-.2,60.1-8.8,29.7,16Z"/></g></g></svg>